%TF.GenerationSoftware,KiCad,Pcbnew,(6.0.4)*%
%TF.CreationDate,2022-04-24T15:44:46-04:00*%
%TF.ProjectId,keeb,6b656562-2e6b-4696-9361-645f70636258,rev?*%
%TF.SameCoordinates,Original*%
%TF.FileFunction,Legend,Top*%
%TF.FilePolarity,Positive*%
%FSLAX46Y46*%
G04 Gerber Fmt 4.6, Leading zero omitted, Abs format (unit mm)*
G04 Created by KiCad (PCBNEW (6.0.4)) date 2022-04-24 15:44:46*
%MOMM*%
%LPD*%
G01*
G04 APERTURE LIST*
G04 Aperture macros list*
%AMRoundRect*
0 Rectangle with rounded corners*
0 $1 Rounding radius*
0 $2 $3 $4 $5 $6 $7 $8 $9 X,Y pos of 4 corners*
0 Add a 4 corners polygon primitive as box body*
4,1,4,$2,$3,$4,$5,$6,$7,$8,$9,$2,$3,0*
0 Add four circle primitives for the rounded corners*
1,1,$1+$1,$2,$3*
1,1,$1+$1,$4,$5*
1,1,$1+$1,$6,$7*
1,1,$1+$1,$8,$9*
0 Add four rect primitives between the rounded corners*
20,1,$1+$1,$2,$3,$4,$5,0*
20,1,$1+$1,$4,$5,$6,$7,0*
20,1,$1+$1,$6,$7,$8,$9,0*
20,1,$1+$1,$8,$9,$2,$3,0*%
%AMFreePoly0*
4,1,22,0.500000,-0.750000,0.000000,-0.750000,0.000000,-0.745033,-0.079941,-0.743568,-0.215256,-0.701293,-0.333266,-0.622738,-0.424486,-0.514219,-0.481581,-0.384460,-0.499164,-0.250000,-0.500000,-0.250000,-0.500000,0.250000,-0.499164,0.250000,-0.499963,0.256109,-0.478152,0.396186,-0.417904,0.524511,-0.324060,0.630769,-0.204165,0.706417,-0.067858,0.745374,0.000000,0.744959,0.000000,0.750000,
0.500000,0.750000,0.500000,-0.750000,0.500000,-0.750000,$1*%
%AMFreePoly1*
4,1,20,0.000000,0.744959,0.073905,0.744508,0.209726,0.703889,0.328688,0.626782,0.421226,0.519385,0.479903,0.390333,0.500000,0.250000,0.500000,-0.250000,0.499851,-0.262216,0.476331,-0.402017,0.414519,-0.529596,0.319384,-0.634700,0.198574,-0.708877,0.061801,-0.746166,0.000000,-0.745033,0.000000,-0.750000,-0.500000,-0.750000,-0.500000,0.750000,0.000000,0.750000,0.000000,0.744959,
0.000000,0.744959,$1*%
%AMFreePoly2*
4,1,22,0.550000,-0.750000,0.000000,-0.750000,0.000000,-0.745033,-0.079941,-0.743568,-0.215256,-0.701293,-0.333266,-0.622738,-0.424486,-0.514219,-0.481581,-0.384460,-0.499164,-0.250000,-0.500000,-0.250000,-0.500000,0.250000,-0.499164,0.250000,-0.499963,0.256109,-0.478152,0.396186,-0.417904,0.524511,-0.324060,0.630769,-0.204165,0.706417,-0.067858,0.745374,0.000000,0.744959,0.000000,0.750000,
0.550000,0.750000,0.550000,-0.750000,0.550000,-0.750000,$1*%
%AMFreePoly3*
4,1,20,0.000000,0.744959,0.073905,0.744508,0.209726,0.703889,0.328688,0.626782,0.421226,0.519385,0.479903,0.390333,0.500000,0.250000,0.500000,-0.250000,0.499851,-0.262216,0.476331,-0.402017,0.414519,-0.529596,0.319384,-0.634700,0.198574,-0.708877,0.061801,-0.746166,0.000000,-0.745033,0.000000,-0.750000,-0.550000,-0.750000,-0.550000,0.750000,0.000000,0.750000,0.000000,0.744959,
0.000000,0.744959,$1*%
G04 Aperture macros list end*
%ADD10C,0.150000*%
%ADD11C,0.127000*%
%ADD12C,0.120000*%
%ADD13C,0.203200*%
%ADD14C,0.200000*%
%ADD15RoundRect,0.250000X0.475000X-0.250000X0.475000X0.250000X-0.475000X0.250000X-0.475000X-0.250000X0*%
%ADD16C,4.000000*%
%ADD17C,2.500000*%
%ADD18FreePoly0,0.000000*%
%ADD19FreePoly1,0.000000*%
%ADD20R,1.500000X1.000000*%
%ADD21FreePoly2,0.000000*%
%ADD22R,1.000000X1.500000*%
%ADD23FreePoly3,0.000000*%
%ADD24C,1.727200*%
%ADD25C,3.505200*%
%ADD26O,1.600000X2.000000*%
%ADD27C,2.700000*%
%ADD28R,1.700000X1.700000*%
%ADD29C,1.700000*%
%ADD30RoundRect,0.020300X-0.774700X-0.124700X0.774700X-0.124700X0.774700X0.124700X-0.774700X0.124700X0*%
%ADD31RoundRect,0.020300X0.774700X0.124700X-0.774700X0.124700X-0.774700X-0.124700X0.774700X-0.124700X0*%
%ADD32C,1.600000*%
%ADD33O,1.601600X3.101600*%
%ADD34O,3.101600X1.601600*%
%ADD35RoundRect,0.250000X-0.475000X0.250000X-0.475000X-0.250000X0.475000X-0.250000X0.475000X0.250000X0*%
%ADD36C,0.650000*%
%ADD37O,0.950000X0.650000*%
%ADD38R,0.300000X0.700000*%
%ADD39O,0.800000X1.400000*%
G04 APERTURE END LIST*
D10*
X187726190Y-72002380D02*
X187726190Y-71002380D01*
X188202380Y-72002380D02*
X188202380Y-71002380D01*
X188773809Y-72002380D01*
X188773809Y-71002380D01*
X175009523Y-55004761D02*
X175152380Y-55052380D01*
X175390476Y-55052380D01*
X175485714Y-55004761D01*
X175533333Y-54957142D01*
X175580952Y-54861904D01*
X175580952Y-54766666D01*
X175533333Y-54671428D01*
X175485714Y-54623809D01*
X175390476Y-54576190D01*
X175200000Y-54528571D01*
X175104761Y-54480952D01*
X175057142Y-54433333D01*
X175009523Y-54338095D01*
X175009523Y-54242857D01*
X175057142Y-54147619D01*
X175104761Y-54100000D01*
X175200000Y-54052380D01*
X175438095Y-54052380D01*
X175580952Y-54100000D01*
X176485714Y-55052380D02*
X176009523Y-55052380D01*
X176009523Y-54052380D01*
X177390476Y-54957142D02*
X177342857Y-55004761D01*
X177200000Y-55052380D01*
X177104761Y-55052380D01*
X176961904Y-55004761D01*
X176866666Y-54909523D01*
X176819047Y-54814285D01*
X176771428Y-54623809D01*
X176771428Y-54480952D01*
X176819047Y-54290476D01*
X176866666Y-54195238D01*
X176961904Y-54100000D01*
X177104761Y-54052380D01*
X177200000Y-54052380D01*
X177342857Y-54100000D01*
X177390476Y-54147619D01*
X190607142Y-75152380D02*
X190130952Y-75152380D01*
X190130952Y-74152380D01*
X190940476Y-74628571D02*
X191273809Y-74628571D01*
X191416666Y-75152380D02*
X190940476Y-75152380D01*
X190940476Y-74152380D01*
X191416666Y-74152380D01*
X191845238Y-75152380D02*
X191845238Y-74152380D01*
X192083333Y-74152380D01*
X192226190Y-74200000D01*
X192321428Y-74295238D01*
X192369047Y-74390476D01*
X192416666Y-74580952D01*
X192416666Y-74723809D01*
X192369047Y-74914285D01*
X192321428Y-75009523D01*
X192226190Y-75104761D01*
X192083333Y-75152380D01*
X191845238Y-75152380D01*
X174985714Y-57604761D02*
X175128571Y-57652380D01*
X175366666Y-57652380D01*
X175461904Y-57604761D01*
X175509523Y-57557142D01*
X175557142Y-57461904D01*
X175557142Y-57366666D01*
X175509523Y-57271428D01*
X175461904Y-57223809D01*
X175366666Y-57176190D01*
X175176190Y-57128571D01*
X175080952Y-57080952D01*
X175033333Y-57033333D01*
X174985714Y-56938095D01*
X174985714Y-56842857D01*
X175033333Y-56747619D01*
X175080952Y-56700000D01*
X175176190Y-56652380D01*
X175414285Y-56652380D01*
X175557142Y-56700000D01*
X175985714Y-57652380D02*
X175985714Y-56652380D01*
X176223809Y-56652380D01*
X176366666Y-56700000D01*
X176461904Y-56795238D01*
X176509523Y-56890476D01*
X176557142Y-57080952D01*
X176557142Y-57223809D01*
X176509523Y-57414285D01*
X176461904Y-57509523D01*
X176366666Y-57604761D01*
X176223809Y-57652380D01*
X175985714Y-57652380D01*
X176938095Y-57366666D02*
X177414285Y-57366666D01*
X176842857Y-57652380D02*
X177176190Y-56652380D01*
X177509523Y-57652380D01*
X193700000Y-70952380D02*
X193890476Y-70952380D01*
X193985714Y-71000000D01*
X194080952Y-71095238D01*
X194128571Y-71285714D01*
X194128571Y-71619047D01*
X194080952Y-71809523D01*
X193985714Y-71904761D01*
X193890476Y-71952380D01*
X193700000Y-71952380D01*
X193604761Y-71904761D01*
X193509523Y-71809523D01*
X193461904Y-71619047D01*
X193461904Y-71285714D01*
X193509523Y-71095238D01*
X193604761Y-71000000D01*
X193700000Y-70952380D01*
X194557142Y-70952380D02*
X194557142Y-71761904D01*
X194604761Y-71857142D01*
X194652380Y-71904761D01*
X194747619Y-71952380D01*
X194938095Y-71952380D01*
X195033333Y-71904761D01*
X195080952Y-71857142D01*
X195128571Y-71761904D01*
X195128571Y-70952380D01*
X195461904Y-70952380D02*
X196033333Y-70952380D01*
X195747619Y-71952380D02*
X195747619Y-70952380D01*
%TO.C,C14*%
X138307142Y-148642857D02*
X138354761Y-148690476D01*
X138402380Y-148833333D01*
X138402380Y-148928571D01*
X138354761Y-149071428D01*
X138259523Y-149166666D01*
X138164285Y-149214285D01*
X137973809Y-149261904D01*
X137830952Y-149261904D01*
X137640476Y-149214285D01*
X137545238Y-149166666D01*
X137450000Y-149071428D01*
X137402380Y-148928571D01*
X137402380Y-148833333D01*
X137450000Y-148690476D01*
X137497619Y-148642857D01*
X138402380Y-147690476D02*
X138402380Y-148261904D01*
X138402380Y-147976190D02*
X137402380Y-147976190D01*
X137545238Y-148071428D01*
X137640476Y-148166666D01*
X137688095Y-148261904D01*
X137735714Y-146833333D02*
X138402380Y-146833333D01*
X137354761Y-147071428D02*
X138069047Y-147309523D01*
X138069047Y-146690476D01*
%TO.C,SW5*%
X175066666Y-61104761D02*
X175209523Y-61152380D01*
X175447619Y-61152380D01*
X175542857Y-61104761D01*
X175590476Y-61057142D01*
X175638095Y-60961904D01*
X175638095Y-60866666D01*
X175590476Y-60771428D01*
X175542857Y-60723809D01*
X175447619Y-60676190D01*
X175257142Y-60628571D01*
X175161904Y-60580952D01*
X175114285Y-60533333D01*
X175066666Y-60438095D01*
X175066666Y-60342857D01*
X175114285Y-60247619D01*
X175161904Y-60200000D01*
X175257142Y-60152380D01*
X175495238Y-60152380D01*
X175638095Y-60200000D01*
X175971428Y-60152380D02*
X176209523Y-61152380D01*
X176400000Y-60438095D01*
X176590476Y-61152380D01*
X176828571Y-60152380D01*
X177685714Y-60152380D02*
X177209523Y-60152380D01*
X177161904Y-60628571D01*
X177209523Y-60580952D01*
X177304761Y-60533333D01*
X177542857Y-60533333D01*
X177638095Y-60580952D01*
X177685714Y-60628571D01*
X177733333Y-60723809D01*
X177733333Y-60961904D01*
X177685714Y-61057142D01*
X177638095Y-61104761D01*
X177542857Y-61152380D01*
X177304761Y-61152380D01*
X177209523Y-61104761D01*
X177161904Y-61057142D01*
%TO.C,SW6*%
X136066666Y-80604761D02*
X136209523Y-80652380D01*
X136447619Y-80652380D01*
X136542857Y-80604761D01*
X136590476Y-80557142D01*
X136638095Y-80461904D01*
X136638095Y-80366666D01*
X136590476Y-80271428D01*
X136542857Y-80223809D01*
X136447619Y-80176190D01*
X136257142Y-80128571D01*
X136161904Y-80080952D01*
X136114285Y-80033333D01*
X136066666Y-79938095D01*
X136066666Y-79842857D01*
X136114285Y-79747619D01*
X136161904Y-79700000D01*
X136257142Y-79652380D01*
X136495238Y-79652380D01*
X136638095Y-79700000D01*
X136971428Y-79652380D02*
X137209523Y-80652380D01*
X137400000Y-79938095D01*
X137590476Y-80652380D01*
X137828571Y-79652380D01*
X138638095Y-79652380D02*
X138447619Y-79652380D01*
X138352380Y-79700000D01*
X138304761Y-79747619D01*
X138209523Y-79890476D01*
X138161904Y-80080952D01*
X138161904Y-80461904D01*
X138209523Y-80557142D01*
X138257142Y-80604761D01*
X138352380Y-80652380D01*
X138542857Y-80652380D01*
X138638095Y-80604761D01*
X138685714Y-80557142D01*
X138733333Y-80461904D01*
X138733333Y-80223809D01*
X138685714Y-80128571D01*
X138638095Y-80080952D01*
X138542857Y-80033333D01*
X138352380Y-80033333D01*
X138257142Y-80080952D01*
X138209523Y-80128571D01*
X138161904Y-80223809D01*
%TO.C,SW7*%
X155566666Y-80604761D02*
X155709523Y-80652380D01*
X155947619Y-80652380D01*
X156042857Y-80604761D01*
X156090476Y-80557142D01*
X156138095Y-80461904D01*
X156138095Y-80366666D01*
X156090476Y-80271428D01*
X156042857Y-80223809D01*
X155947619Y-80176190D01*
X155757142Y-80128571D01*
X155661904Y-80080952D01*
X155614285Y-80033333D01*
X155566666Y-79938095D01*
X155566666Y-79842857D01*
X155614285Y-79747619D01*
X155661904Y-79700000D01*
X155757142Y-79652380D01*
X155995238Y-79652380D01*
X156138095Y-79700000D01*
X156471428Y-79652380D02*
X156709523Y-80652380D01*
X156900000Y-79938095D01*
X157090476Y-80652380D01*
X157328571Y-79652380D01*
X157614285Y-79652380D02*
X158280952Y-79652380D01*
X157852380Y-80652380D01*
%TO.C,C12*%
X159257142Y-132942857D02*
X159304761Y-132990476D01*
X159352380Y-133133333D01*
X159352380Y-133228571D01*
X159304761Y-133371428D01*
X159209523Y-133466666D01*
X159114285Y-133514285D01*
X158923809Y-133561904D01*
X158780952Y-133561904D01*
X158590476Y-133514285D01*
X158495238Y-133466666D01*
X158400000Y-133371428D01*
X158352380Y-133228571D01*
X158352380Y-133133333D01*
X158400000Y-132990476D01*
X158447619Y-132942857D01*
X159352380Y-131990476D02*
X159352380Y-132561904D01*
X159352380Y-132276190D02*
X158352380Y-132276190D01*
X158495238Y-132371428D01*
X158590476Y-132466666D01*
X158638095Y-132561904D01*
X158447619Y-131609523D02*
X158400000Y-131561904D01*
X158352380Y-131466666D01*
X158352380Y-131228571D01*
X158400000Y-131133333D01*
X158447619Y-131085714D01*
X158542857Y-131038095D01*
X158638095Y-131038095D01*
X158780952Y-131085714D01*
X159352380Y-131657142D01*
X159352380Y-131038095D01*
%TO.C,LED14*%
X140804761Y-149152380D02*
X140328571Y-149152380D01*
X140328571Y-148152380D01*
X141138095Y-148628571D02*
X141471428Y-148628571D01*
X141614285Y-149152380D02*
X141138095Y-149152380D01*
X141138095Y-148152380D01*
X141614285Y-148152380D01*
X142042857Y-149152380D02*
X142042857Y-148152380D01*
X142280952Y-148152380D01*
X142423809Y-148200000D01*
X142519047Y-148295238D01*
X142566666Y-148390476D01*
X142614285Y-148580952D01*
X142614285Y-148723809D01*
X142566666Y-148914285D01*
X142519047Y-149009523D01*
X142423809Y-149104761D01*
X142280952Y-149152380D01*
X142042857Y-149152380D01*
X143566666Y-149152380D02*
X142995238Y-149152380D01*
X143280952Y-149152380D02*
X143280952Y-148152380D01*
X143185714Y-148295238D01*
X143090476Y-148390476D01*
X142995238Y-148438095D01*
X144423809Y-148485714D02*
X144423809Y-149152380D01*
X144185714Y-148104761D02*
X143947619Y-148819047D01*
X144566666Y-148819047D01*
X152885714Y-152352380D02*
X152314285Y-152352380D01*
X152600000Y-152352380D02*
X152600000Y-151352380D01*
X152504761Y-151495238D01*
X152409523Y-151590476D01*
X152314285Y-151638095D01*
%TO.C,LED13*%
X121404761Y-149202380D02*
X120928571Y-149202380D01*
X120928571Y-148202380D01*
X121738095Y-148678571D02*
X122071428Y-148678571D01*
X122214285Y-149202380D02*
X121738095Y-149202380D01*
X121738095Y-148202380D01*
X122214285Y-148202380D01*
X122642857Y-149202380D02*
X122642857Y-148202380D01*
X122880952Y-148202380D01*
X123023809Y-148250000D01*
X123119047Y-148345238D01*
X123166666Y-148440476D01*
X123214285Y-148630952D01*
X123214285Y-148773809D01*
X123166666Y-148964285D01*
X123119047Y-149059523D01*
X123023809Y-149154761D01*
X122880952Y-149202380D01*
X122642857Y-149202380D01*
X124166666Y-149202380D02*
X123595238Y-149202380D01*
X123880952Y-149202380D02*
X123880952Y-148202380D01*
X123785714Y-148345238D01*
X123690476Y-148440476D01*
X123595238Y-148488095D01*
X124500000Y-148202380D02*
X125119047Y-148202380D01*
X124785714Y-148583333D01*
X124928571Y-148583333D01*
X125023809Y-148630952D01*
X125071428Y-148678571D01*
X125119047Y-148773809D01*
X125119047Y-149011904D01*
X125071428Y-149107142D01*
X125023809Y-149154761D01*
X124928571Y-149202380D01*
X124642857Y-149202380D01*
X124547619Y-149154761D01*
X124500000Y-149107142D01*
X133335714Y-153502380D02*
X132764285Y-153502380D01*
X133050000Y-153502380D02*
X133050000Y-152502380D01*
X132954761Y-152645238D01*
X132859523Y-152740476D01*
X132764285Y-152788095D01*
%TO.C,C11*%
X139757142Y-132942857D02*
X139804761Y-132990476D01*
X139852380Y-133133333D01*
X139852380Y-133228571D01*
X139804761Y-133371428D01*
X139709523Y-133466666D01*
X139614285Y-133514285D01*
X139423809Y-133561904D01*
X139280952Y-133561904D01*
X139090476Y-133514285D01*
X138995238Y-133466666D01*
X138900000Y-133371428D01*
X138852380Y-133228571D01*
X138852380Y-133133333D01*
X138900000Y-132990476D01*
X138947619Y-132942857D01*
X139852380Y-131990476D02*
X139852380Y-132561904D01*
X139852380Y-132276190D02*
X138852380Y-132276190D01*
X138995238Y-132371428D01*
X139090476Y-132466666D01*
X139138095Y-132561904D01*
X139852380Y-131038095D02*
X139852380Y-131609523D01*
X139852380Y-131323809D02*
X138852380Y-131323809D01*
X138995238Y-131419047D01*
X139090476Y-131514285D01*
X139138095Y-131609523D01*
%TO.C,LED3*%
X166830952Y-76252380D02*
X166354761Y-76252380D01*
X166354761Y-75252380D01*
X167164285Y-75728571D02*
X167497619Y-75728571D01*
X167640476Y-76252380D02*
X167164285Y-76252380D01*
X167164285Y-75252380D01*
X167640476Y-75252380D01*
X168069047Y-76252380D02*
X168069047Y-75252380D01*
X168307142Y-75252380D01*
X168450000Y-75300000D01*
X168545238Y-75395238D01*
X168592857Y-75490476D01*
X168640476Y-75680952D01*
X168640476Y-75823809D01*
X168592857Y-76014285D01*
X168545238Y-76109523D01*
X168450000Y-76204761D01*
X168307142Y-76252380D01*
X168069047Y-76252380D01*
X168973809Y-75252380D02*
X169592857Y-75252380D01*
X169259523Y-75633333D01*
X169402380Y-75633333D01*
X169497619Y-75680952D01*
X169545238Y-75728571D01*
X169592857Y-75823809D01*
X169592857Y-76061904D01*
X169545238Y-76157142D01*
X169497619Y-76204761D01*
X169402380Y-76252380D01*
X169116666Y-76252380D01*
X169021428Y-76204761D01*
X168973809Y-76157142D01*
X172385714Y-75502380D02*
X171814285Y-75502380D01*
X172100000Y-75502380D02*
X172100000Y-74502380D01*
X172004761Y-74645238D01*
X171909523Y-74740476D01*
X171814285Y-74788095D01*
D11*
%TO.C,SW2*%
X192447200Y-81561742D02*
X192534285Y-81590771D01*
X192679428Y-81590771D01*
X192737485Y-81561742D01*
X192766514Y-81532714D01*
X192795542Y-81474657D01*
X192795542Y-81416600D01*
X192766514Y-81358542D01*
X192737485Y-81329514D01*
X192679428Y-81300485D01*
X192563314Y-81271457D01*
X192505257Y-81242428D01*
X192476228Y-81213400D01*
X192447200Y-81155342D01*
X192447200Y-81097285D01*
X192476228Y-81039228D01*
X192505257Y-81010200D01*
X192563314Y-80981171D01*
X192708457Y-80981171D01*
X192795542Y-81010200D01*
X192998742Y-80981171D02*
X193143885Y-81590771D01*
X193260000Y-81155342D01*
X193376114Y-81590771D01*
X193521257Y-80981171D01*
X193724457Y-81039228D02*
X193753485Y-81010200D01*
X193811542Y-80981171D01*
X193956685Y-80981171D01*
X194014742Y-81010200D01*
X194043771Y-81039228D01*
X194072800Y-81097285D01*
X194072800Y-81155342D01*
X194043771Y-81242428D01*
X193695428Y-81590771D01*
X194072800Y-81590771D01*
X183679600Y-88575771D02*
X183476400Y-88285485D01*
X183331257Y-88575771D02*
X183331257Y-87966171D01*
X183563485Y-87966171D01*
X183621542Y-87995200D01*
X183650571Y-88024228D01*
X183679600Y-88082285D01*
X183679600Y-88169371D01*
X183650571Y-88227428D01*
X183621542Y-88256457D01*
X183563485Y-88285485D01*
X183331257Y-88285485D01*
X184027942Y-88575771D02*
X183969885Y-88546742D01*
X183940857Y-88517714D01*
X183911828Y-88459657D01*
X183911828Y-88285485D01*
X183940857Y-88227428D01*
X183969885Y-88198400D01*
X184027942Y-88169371D01*
X184115028Y-88169371D01*
X184173085Y-88198400D01*
X184202114Y-88227428D01*
X184231142Y-88285485D01*
X184231142Y-88459657D01*
X184202114Y-88517714D01*
X184173085Y-88546742D01*
X184115028Y-88575771D01*
X184027942Y-88575771D01*
X184405314Y-88169371D02*
X184637542Y-88169371D01*
X184492400Y-87966171D02*
X184492400Y-88488685D01*
X184521428Y-88546742D01*
X184579485Y-88575771D01*
X184637542Y-88575771D01*
X185102000Y-88575771D02*
X185102000Y-88256457D01*
X185072971Y-88198400D01*
X185014914Y-88169371D01*
X184898800Y-88169371D01*
X184840742Y-88198400D01*
X185102000Y-88546742D02*
X185043942Y-88575771D01*
X184898800Y-88575771D01*
X184840742Y-88546742D01*
X184811714Y-88488685D01*
X184811714Y-88430628D01*
X184840742Y-88372571D01*
X184898800Y-88343542D01*
X185043942Y-88343542D01*
X185102000Y-88314514D01*
X185392285Y-88575771D02*
X185392285Y-88169371D01*
X185392285Y-88285485D02*
X185421314Y-88227428D01*
X185450342Y-88198400D01*
X185508400Y-88169371D01*
X185566457Y-88169371D01*
X185711600Y-88169371D02*
X185856742Y-88575771D01*
X186001885Y-88169371D02*
X185856742Y-88575771D01*
X185798685Y-88720914D01*
X185769657Y-88749942D01*
X185711600Y-88778971D01*
X186234114Y-88256457D02*
X186437314Y-88256457D01*
X186524400Y-88575771D02*
X186234114Y-88575771D01*
X186234114Y-87966171D01*
X186524400Y-87966171D01*
X186785657Y-88169371D02*
X186785657Y-88575771D01*
X186785657Y-88227428D02*
X186814685Y-88198400D01*
X186872742Y-88169371D01*
X186959828Y-88169371D01*
X187017885Y-88198400D01*
X187046914Y-88256457D01*
X187046914Y-88575771D01*
X187598457Y-88546742D02*
X187540400Y-88575771D01*
X187424285Y-88575771D01*
X187366228Y-88546742D01*
X187337200Y-88517714D01*
X187308171Y-88459657D01*
X187308171Y-88285485D01*
X187337200Y-88227428D01*
X187366228Y-88198400D01*
X187424285Y-88169371D01*
X187540400Y-88169371D01*
X187598457Y-88198400D01*
X187946800Y-88575771D02*
X187888742Y-88546742D01*
X187859714Y-88517714D01*
X187830685Y-88459657D01*
X187830685Y-88285485D01*
X187859714Y-88227428D01*
X187888742Y-88198400D01*
X187946800Y-88169371D01*
X188033885Y-88169371D01*
X188091942Y-88198400D01*
X188120971Y-88227428D01*
X188150000Y-88285485D01*
X188150000Y-88459657D01*
X188120971Y-88517714D01*
X188091942Y-88546742D01*
X188033885Y-88575771D01*
X187946800Y-88575771D01*
X188672514Y-88575771D02*
X188672514Y-87966171D01*
X188672514Y-88546742D02*
X188614457Y-88575771D01*
X188498342Y-88575771D01*
X188440285Y-88546742D01*
X188411257Y-88517714D01*
X188382228Y-88459657D01*
X188382228Y-88285485D01*
X188411257Y-88227428D01*
X188440285Y-88198400D01*
X188498342Y-88169371D01*
X188614457Y-88169371D01*
X188672514Y-88198400D01*
X189195028Y-88546742D02*
X189136971Y-88575771D01*
X189020857Y-88575771D01*
X188962800Y-88546742D01*
X188933771Y-88488685D01*
X188933771Y-88256457D01*
X188962800Y-88198400D01*
X189020857Y-88169371D01*
X189136971Y-88169371D01*
X189195028Y-88198400D01*
X189224057Y-88256457D01*
X189224057Y-88314514D01*
X188933771Y-88372571D01*
X189485314Y-88575771D02*
X189485314Y-88169371D01*
X189485314Y-88285485D02*
X189514342Y-88227428D01*
X189543371Y-88198400D01*
X189601428Y-88169371D01*
X189659485Y-88169371D01*
X189717542Y-88633828D02*
X190182000Y-88633828D01*
X190298114Y-88546742D02*
X190385200Y-88575771D01*
X190530342Y-88575771D01*
X190588400Y-88546742D01*
X190617428Y-88517714D01*
X190646457Y-88459657D01*
X190646457Y-88401600D01*
X190617428Y-88343542D01*
X190588400Y-88314514D01*
X190530342Y-88285485D01*
X190414228Y-88256457D01*
X190356171Y-88227428D01*
X190327142Y-88198400D01*
X190298114Y-88140342D01*
X190298114Y-88082285D01*
X190327142Y-88024228D01*
X190356171Y-87995200D01*
X190414228Y-87966171D01*
X190559371Y-87966171D01*
X190646457Y-87995200D01*
X190849657Y-88169371D02*
X190965771Y-88575771D01*
X191081885Y-88285485D01*
X191198000Y-88575771D01*
X191314114Y-88169371D01*
X191546342Y-88575771D02*
X191546342Y-88169371D01*
X191546342Y-87966171D02*
X191517314Y-87995200D01*
X191546342Y-88024228D01*
X191575371Y-87995200D01*
X191546342Y-87966171D01*
X191546342Y-88024228D01*
X191749542Y-88169371D02*
X191981771Y-88169371D01*
X191836628Y-87966171D02*
X191836628Y-88488685D01*
X191865657Y-88546742D01*
X191923714Y-88575771D01*
X191981771Y-88575771D01*
X192446228Y-88546742D02*
X192388171Y-88575771D01*
X192272057Y-88575771D01*
X192214000Y-88546742D01*
X192184971Y-88517714D01*
X192155942Y-88459657D01*
X192155942Y-88285485D01*
X192184971Y-88227428D01*
X192214000Y-88198400D01*
X192272057Y-88169371D01*
X192388171Y-88169371D01*
X192446228Y-88198400D01*
X192707485Y-88575771D02*
X192707485Y-87966171D01*
X192968742Y-88575771D02*
X192968742Y-88256457D01*
X192939714Y-88198400D01*
X192881657Y-88169371D01*
X192794571Y-88169371D01*
X192736514Y-88198400D01*
X192707485Y-88227428D01*
D10*
%TO.C,C13*%
X178757142Y-132942857D02*
X178804761Y-132990476D01*
X178852380Y-133133333D01*
X178852380Y-133228571D01*
X178804761Y-133371428D01*
X178709523Y-133466666D01*
X178614285Y-133514285D01*
X178423809Y-133561904D01*
X178280952Y-133561904D01*
X178090476Y-133514285D01*
X177995238Y-133466666D01*
X177900000Y-133371428D01*
X177852380Y-133228571D01*
X177852380Y-133133333D01*
X177900000Y-132990476D01*
X177947619Y-132942857D01*
X178852380Y-131990476D02*
X178852380Y-132561904D01*
X178852380Y-132276190D02*
X177852380Y-132276190D01*
X177995238Y-132371428D01*
X178090476Y-132466666D01*
X178138095Y-132561904D01*
X177852380Y-131657142D02*
X177852380Y-131038095D01*
X178233333Y-131371428D01*
X178233333Y-131228571D01*
X178280952Y-131133333D01*
X178328571Y-131085714D01*
X178423809Y-131038095D01*
X178661904Y-131038095D01*
X178757142Y-131085714D01*
X178804761Y-131133333D01*
X178852380Y-131228571D01*
X178852380Y-131514285D01*
X178804761Y-131609523D01*
X178757142Y-131657142D01*
%TO.C,SW4*%
X155566666Y-61104761D02*
X155709523Y-61152380D01*
X155947619Y-61152380D01*
X156042857Y-61104761D01*
X156090476Y-61057142D01*
X156138095Y-60961904D01*
X156138095Y-60866666D01*
X156090476Y-60771428D01*
X156042857Y-60723809D01*
X155947619Y-60676190D01*
X155757142Y-60628571D01*
X155661904Y-60580952D01*
X155614285Y-60533333D01*
X155566666Y-60438095D01*
X155566666Y-60342857D01*
X155614285Y-60247619D01*
X155661904Y-60200000D01*
X155757142Y-60152380D01*
X155995238Y-60152380D01*
X156138095Y-60200000D01*
X156471428Y-60152380D02*
X156709523Y-61152380D01*
X156900000Y-60438095D01*
X157090476Y-61152380D01*
X157328571Y-60152380D01*
X158138095Y-60485714D02*
X158138095Y-61152380D01*
X157900000Y-60104761D02*
X157661904Y-60819047D01*
X158280952Y-60819047D01*
%TO.C,SW11*%
X175090476Y-100204761D02*
X175233333Y-100252380D01*
X175471428Y-100252380D01*
X175566666Y-100204761D01*
X175614285Y-100157142D01*
X175661904Y-100061904D01*
X175661904Y-99966666D01*
X175614285Y-99871428D01*
X175566666Y-99823809D01*
X175471428Y-99776190D01*
X175280952Y-99728571D01*
X175185714Y-99680952D01*
X175138095Y-99633333D01*
X175090476Y-99538095D01*
X175090476Y-99442857D01*
X175138095Y-99347619D01*
X175185714Y-99300000D01*
X175280952Y-99252380D01*
X175519047Y-99252380D01*
X175661904Y-99300000D01*
X175995238Y-99252380D02*
X176233333Y-100252380D01*
X176423809Y-99538095D01*
X176614285Y-100252380D01*
X176852380Y-99252380D01*
X177757142Y-100252380D02*
X177185714Y-100252380D01*
X177471428Y-100252380D02*
X177471428Y-99252380D01*
X177376190Y-99395238D01*
X177280952Y-99490476D01*
X177185714Y-99538095D01*
X178709523Y-100252380D02*
X178138095Y-100252380D01*
X178423809Y-100252380D02*
X178423809Y-99252380D01*
X178328571Y-99395238D01*
X178233333Y-99490476D01*
X178138095Y-99538095D01*
%TO.C,Brd1*%
X96883333Y-57878571D02*
X97026190Y-57926190D01*
X97073809Y-57973809D01*
X97121428Y-58069047D01*
X97121428Y-58211904D01*
X97073809Y-58307142D01*
X97026190Y-58354761D01*
X96930952Y-58402380D01*
X96550000Y-58402380D01*
X96550000Y-57402380D01*
X96883333Y-57402380D01*
X96978571Y-57450000D01*
X97026190Y-57497619D01*
X97073809Y-57592857D01*
X97073809Y-57688095D01*
X97026190Y-57783333D01*
X96978571Y-57830952D01*
X96883333Y-57878571D01*
X96550000Y-57878571D01*
X97550000Y-58402380D02*
X97550000Y-57735714D01*
X97550000Y-57926190D02*
X97597619Y-57830952D01*
X97645238Y-57783333D01*
X97740476Y-57735714D01*
X97835714Y-57735714D01*
X98597619Y-58402380D02*
X98597619Y-57402380D01*
X98597619Y-58354761D02*
X98502380Y-58402380D01*
X98311904Y-58402380D01*
X98216666Y-58354761D01*
X98169047Y-58307142D01*
X98121428Y-58211904D01*
X98121428Y-57926190D01*
X98169047Y-57830952D01*
X98216666Y-57783333D01*
X98311904Y-57735714D01*
X98502380Y-57735714D01*
X98597619Y-57783333D01*
X99597619Y-58402380D02*
X99026190Y-58402380D01*
X99311904Y-58402380D02*
X99311904Y-57402380D01*
X99216666Y-57545238D01*
X99121428Y-57640476D01*
X99026190Y-57688095D01*
%TO.C,U1*%
X106688095Y-154192380D02*
X106688095Y-155001904D01*
X106735714Y-155097142D01*
X106783333Y-155144761D01*
X106878571Y-155192380D01*
X107069047Y-155192380D01*
X107164285Y-155144761D01*
X107211904Y-155097142D01*
X107259523Y-155001904D01*
X107259523Y-154192380D01*
X108259523Y-155192380D02*
X107688095Y-155192380D01*
X107973809Y-155192380D02*
X107973809Y-154192380D01*
X107878571Y-154335238D01*
X107783333Y-154430476D01*
X107688095Y-154478095D01*
%TO.C,C5*%
X139757142Y-93466666D02*
X139804761Y-93514285D01*
X139852380Y-93657142D01*
X139852380Y-93752380D01*
X139804761Y-93895238D01*
X139709523Y-93990476D01*
X139614285Y-94038095D01*
X139423809Y-94085714D01*
X139280952Y-94085714D01*
X139090476Y-94038095D01*
X138995238Y-93990476D01*
X138900000Y-93895238D01*
X138852380Y-93752380D01*
X138852380Y-93657142D01*
X138900000Y-93514285D01*
X138947619Y-93466666D01*
X138852380Y-92561904D02*
X138852380Y-93038095D01*
X139328571Y-93085714D01*
X139280952Y-93038095D01*
X139233333Y-92942857D01*
X139233333Y-92704761D01*
X139280952Y-92609523D01*
X139328571Y-92561904D01*
X139423809Y-92514285D01*
X139661904Y-92514285D01*
X139757142Y-92561904D01*
X139804761Y-92609523D01*
X139852380Y-92704761D01*
X139852380Y-92942857D01*
X139804761Y-93038095D01*
X139757142Y-93085714D01*
%TO.C,C16*%
X177307142Y-148642857D02*
X177354761Y-148690476D01*
X177402380Y-148833333D01*
X177402380Y-148928571D01*
X177354761Y-149071428D01*
X177259523Y-149166666D01*
X177164285Y-149214285D01*
X176973809Y-149261904D01*
X176830952Y-149261904D01*
X176640476Y-149214285D01*
X176545238Y-149166666D01*
X176450000Y-149071428D01*
X176402380Y-148928571D01*
X176402380Y-148833333D01*
X176450000Y-148690476D01*
X176497619Y-148642857D01*
X177402380Y-147690476D02*
X177402380Y-148261904D01*
X177402380Y-147976190D02*
X176402380Y-147976190D01*
X176545238Y-148071428D01*
X176640476Y-148166666D01*
X176688095Y-148261904D01*
X176402380Y-146833333D02*
X176402380Y-147023809D01*
X176450000Y-147119047D01*
X176497619Y-147166666D01*
X176640476Y-147261904D01*
X176830952Y-147309523D01*
X177211904Y-147309523D01*
X177307142Y-147261904D01*
X177354761Y-147214285D01*
X177402380Y-147119047D01*
X177402380Y-146928571D01*
X177354761Y-146833333D01*
X177307142Y-146785714D01*
X177211904Y-146738095D01*
X176973809Y-146738095D01*
X176878571Y-146785714D01*
X176830952Y-146833333D01*
X176783333Y-146928571D01*
X176783333Y-147119047D01*
X176830952Y-147214285D01*
X176878571Y-147261904D01*
X176973809Y-147309523D01*
%TO.C,C8*%
X136627142Y-113016666D02*
X136674761Y-113064285D01*
X136722380Y-113207142D01*
X136722380Y-113302380D01*
X136674761Y-113445238D01*
X136579523Y-113540476D01*
X136484285Y-113588095D01*
X136293809Y-113635714D01*
X136150952Y-113635714D01*
X135960476Y-113588095D01*
X135865238Y-113540476D01*
X135770000Y-113445238D01*
X135722380Y-113302380D01*
X135722380Y-113207142D01*
X135770000Y-113064285D01*
X135817619Y-113016666D01*
X136150952Y-112445238D02*
X136103333Y-112540476D01*
X136055714Y-112588095D01*
X135960476Y-112635714D01*
X135912857Y-112635714D01*
X135817619Y-112588095D01*
X135770000Y-112540476D01*
X135722380Y-112445238D01*
X135722380Y-112254761D01*
X135770000Y-112159523D01*
X135817619Y-112111904D01*
X135912857Y-112064285D01*
X135960476Y-112064285D01*
X136055714Y-112111904D01*
X136103333Y-112159523D01*
X136150952Y-112254761D01*
X136150952Y-112445238D01*
X136198571Y-112540476D01*
X136246190Y-112588095D01*
X136341428Y-112635714D01*
X136531904Y-112635714D01*
X136627142Y-112588095D01*
X136674761Y-112540476D01*
X136722380Y-112445238D01*
X136722380Y-112254761D01*
X136674761Y-112159523D01*
X136627142Y-112111904D01*
X136531904Y-112064285D01*
X136341428Y-112064285D01*
X136246190Y-112111904D01*
X136198571Y-112159523D01*
X136150952Y-112254761D01*
%TO.C,SW12*%
X136140476Y-119604761D02*
X136283333Y-119652380D01*
X136521428Y-119652380D01*
X136616666Y-119604761D01*
X136664285Y-119557142D01*
X136711904Y-119461904D01*
X136711904Y-119366666D01*
X136664285Y-119271428D01*
X136616666Y-119223809D01*
X136521428Y-119176190D01*
X136330952Y-119128571D01*
X136235714Y-119080952D01*
X136188095Y-119033333D01*
X136140476Y-118938095D01*
X136140476Y-118842857D01*
X136188095Y-118747619D01*
X136235714Y-118700000D01*
X136330952Y-118652380D01*
X136569047Y-118652380D01*
X136711904Y-118700000D01*
X137045238Y-118652380D02*
X137283333Y-119652380D01*
X137473809Y-118938095D01*
X137664285Y-119652380D01*
X137902380Y-118652380D01*
X138807142Y-119652380D02*
X138235714Y-119652380D01*
X138521428Y-119652380D02*
X138521428Y-118652380D01*
X138426190Y-118795238D01*
X138330952Y-118890476D01*
X138235714Y-118938095D01*
X139188095Y-118747619D02*
X139235714Y-118700000D01*
X139330952Y-118652380D01*
X139569047Y-118652380D01*
X139664285Y-118700000D01*
X139711904Y-118747619D01*
X139759523Y-118842857D01*
X139759523Y-118938095D01*
X139711904Y-119080952D01*
X139140476Y-119652380D01*
X139759523Y-119652380D01*
%TO.C,SW3*%
X136066666Y-61154761D02*
X136209523Y-61202380D01*
X136447619Y-61202380D01*
X136542857Y-61154761D01*
X136590476Y-61107142D01*
X136638095Y-61011904D01*
X136638095Y-60916666D01*
X136590476Y-60821428D01*
X136542857Y-60773809D01*
X136447619Y-60726190D01*
X136257142Y-60678571D01*
X136161904Y-60630952D01*
X136114285Y-60583333D01*
X136066666Y-60488095D01*
X136066666Y-60392857D01*
X136114285Y-60297619D01*
X136161904Y-60250000D01*
X136257142Y-60202380D01*
X136495238Y-60202380D01*
X136638095Y-60250000D01*
X136971428Y-60202380D02*
X137209523Y-61202380D01*
X137400000Y-60488095D01*
X137590476Y-61202380D01*
X137828571Y-60202380D01*
X138114285Y-60202380D02*
X138733333Y-60202380D01*
X138400000Y-60583333D01*
X138542857Y-60583333D01*
X138638095Y-60630952D01*
X138685714Y-60678571D01*
X138733333Y-60773809D01*
X138733333Y-61011904D01*
X138685714Y-61107142D01*
X138638095Y-61154761D01*
X138542857Y-61202380D01*
X138257142Y-61202380D01*
X138161904Y-61154761D01*
X138114285Y-61107142D01*
%TO.C,LED11*%
X146854761Y-134752380D02*
X146378571Y-134752380D01*
X146378571Y-133752380D01*
X147188095Y-134228571D02*
X147521428Y-134228571D01*
X147664285Y-134752380D02*
X147188095Y-134752380D01*
X147188095Y-133752380D01*
X147664285Y-133752380D01*
X148092857Y-134752380D02*
X148092857Y-133752380D01*
X148330952Y-133752380D01*
X148473809Y-133800000D01*
X148569047Y-133895238D01*
X148616666Y-133990476D01*
X148664285Y-134180952D01*
X148664285Y-134323809D01*
X148616666Y-134514285D01*
X148569047Y-134609523D01*
X148473809Y-134704761D01*
X148330952Y-134752380D01*
X148092857Y-134752380D01*
X149616666Y-134752380D02*
X149045238Y-134752380D01*
X149330952Y-134752380D02*
X149330952Y-133752380D01*
X149235714Y-133895238D01*
X149140476Y-133990476D01*
X149045238Y-134038095D01*
X150569047Y-134752380D02*
X149997619Y-134752380D01*
X150283333Y-134752380D02*
X150283333Y-133752380D01*
X150188095Y-133895238D01*
X150092857Y-133990476D01*
X149997619Y-134038095D01*
X152885714Y-134002380D02*
X152314285Y-134002380D01*
X152600000Y-134002380D02*
X152600000Y-133002380D01*
X152504761Y-133145238D01*
X152409523Y-133240476D01*
X152314285Y-133288095D01*
%TO.C,C7*%
X178807142Y-93466666D02*
X178854761Y-93514285D01*
X178902380Y-93657142D01*
X178902380Y-93752380D01*
X178854761Y-93895238D01*
X178759523Y-93990476D01*
X178664285Y-94038095D01*
X178473809Y-94085714D01*
X178330952Y-94085714D01*
X178140476Y-94038095D01*
X178045238Y-93990476D01*
X177950000Y-93895238D01*
X177902380Y-93752380D01*
X177902380Y-93657142D01*
X177950000Y-93514285D01*
X177997619Y-93466666D01*
X177902380Y-93133333D02*
X177902380Y-92466666D01*
X178902380Y-92895238D01*
%TO.C,SW8*%
X175066666Y-80604761D02*
X175209523Y-80652380D01*
X175447619Y-80652380D01*
X175542857Y-80604761D01*
X175590476Y-80557142D01*
X175638095Y-80461904D01*
X175638095Y-80366666D01*
X175590476Y-80271428D01*
X175542857Y-80223809D01*
X175447619Y-80176190D01*
X175257142Y-80128571D01*
X175161904Y-80080952D01*
X175114285Y-80033333D01*
X175066666Y-79938095D01*
X175066666Y-79842857D01*
X175114285Y-79747619D01*
X175161904Y-79700000D01*
X175257142Y-79652380D01*
X175495238Y-79652380D01*
X175638095Y-79700000D01*
X175971428Y-79652380D02*
X176209523Y-80652380D01*
X176400000Y-79938095D01*
X176590476Y-80652380D01*
X176828571Y-79652380D01*
X177352380Y-80080952D02*
X177257142Y-80033333D01*
X177209523Y-79985714D01*
X177161904Y-79890476D01*
X177161904Y-79842857D01*
X177209523Y-79747619D01*
X177257142Y-79700000D01*
X177352380Y-79652380D01*
X177542857Y-79652380D01*
X177638095Y-79700000D01*
X177685714Y-79747619D01*
X177733333Y-79842857D01*
X177733333Y-79890476D01*
X177685714Y-79985714D01*
X177638095Y-80033333D01*
X177542857Y-80080952D01*
X177352380Y-80080952D01*
X177257142Y-80128571D01*
X177209523Y-80176190D01*
X177161904Y-80271428D01*
X177161904Y-80461904D01*
X177209523Y-80557142D01*
X177257142Y-80604761D01*
X177352380Y-80652380D01*
X177542857Y-80652380D01*
X177638095Y-80604761D01*
X177685714Y-80557142D01*
X177733333Y-80461904D01*
X177733333Y-80271428D01*
X177685714Y-80176190D01*
X177638095Y-80128571D01*
X177542857Y-80080952D01*
%TO.C,U2*%
X191237465Y-133001928D02*
X191237465Y-133812121D01*
X191285123Y-133907438D01*
X191332782Y-133955096D01*
X191428098Y-134002755D01*
X191618732Y-134002755D01*
X191714049Y-133955096D01*
X191761707Y-133907438D01*
X191809366Y-133812121D01*
X191809366Y-133001928D01*
X192238292Y-133097244D02*
X192285950Y-133049586D01*
X192381267Y-133001928D01*
X192619559Y-133001928D01*
X192714876Y-133049586D01*
X192762534Y-133097244D01*
X192810193Y-133192561D01*
X192810193Y-133287878D01*
X192762534Y-133430853D01*
X192190633Y-134002755D01*
X192810193Y-134002755D01*
%TO.C,SW13*%
X155590476Y-119604761D02*
X155733333Y-119652380D01*
X155971428Y-119652380D01*
X156066666Y-119604761D01*
X156114285Y-119557142D01*
X156161904Y-119461904D01*
X156161904Y-119366666D01*
X156114285Y-119271428D01*
X156066666Y-119223809D01*
X155971428Y-119176190D01*
X155780952Y-119128571D01*
X155685714Y-119080952D01*
X155638095Y-119033333D01*
X155590476Y-118938095D01*
X155590476Y-118842857D01*
X155638095Y-118747619D01*
X155685714Y-118700000D01*
X155780952Y-118652380D01*
X156019047Y-118652380D01*
X156161904Y-118700000D01*
X156495238Y-118652380D02*
X156733333Y-119652380D01*
X156923809Y-118938095D01*
X157114285Y-119652380D01*
X157352380Y-118652380D01*
X158257142Y-119652380D02*
X157685714Y-119652380D01*
X157971428Y-119652380D02*
X157971428Y-118652380D01*
X157876190Y-118795238D01*
X157780952Y-118890476D01*
X157685714Y-118938095D01*
X158590476Y-118652380D02*
X159209523Y-118652380D01*
X158876190Y-119033333D01*
X159019047Y-119033333D01*
X159114285Y-119080952D01*
X159161904Y-119128571D01*
X159209523Y-119223809D01*
X159209523Y-119461904D01*
X159161904Y-119557142D01*
X159114285Y-119604761D01*
X159019047Y-119652380D01*
X158733333Y-119652380D01*
X158638095Y-119604761D01*
X158590476Y-119557142D01*
%TO.C,U3*%
X188764130Y-123104523D02*
X188764130Y-124132619D01*
X188824607Y-124253571D01*
X188885083Y-124314047D01*
X189006035Y-124374523D01*
X189247940Y-124374523D01*
X189368892Y-124314047D01*
X189429369Y-124253571D01*
X189489845Y-124132619D01*
X189489845Y-123104523D01*
X189973654Y-123104523D02*
X190759845Y-123104523D01*
X190336511Y-123588333D01*
X190517940Y-123588333D01*
X190638892Y-123648809D01*
X190699369Y-123709285D01*
X190759845Y-123830238D01*
X190759845Y-124132619D01*
X190699369Y-124253571D01*
X190638892Y-124314047D01*
X190517940Y-124374523D01*
X190155083Y-124374523D01*
X190034130Y-124314047D01*
X189973654Y-124253571D01*
X185414285Y-114502380D02*
X185414285Y-113502380D01*
X185414285Y-113978571D02*
X185985714Y-113978571D01*
X185985714Y-114502380D02*
X185985714Y-113502380D01*
X199148416Y-119202380D02*
X199481750Y-120202380D01*
X199815083Y-119202380D01*
%TO.C,SW17*%
X175140476Y-139204761D02*
X175283333Y-139252380D01*
X175521428Y-139252380D01*
X175616666Y-139204761D01*
X175664285Y-139157142D01*
X175711904Y-139061904D01*
X175711904Y-138966666D01*
X175664285Y-138871428D01*
X175616666Y-138823809D01*
X175521428Y-138776190D01*
X175330952Y-138728571D01*
X175235714Y-138680952D01*
X175188095Y-138633333D01*
X175140476Y-138538095D01*
X175140476Y-138442857D01*
X175188095Y-138347619D01*
X175235714Y-138300000D01*
X175330952Y-138252380D01*
X175569047Y-138252380D01*
X175711904Y-138300000D01*
X176045238Y-138252380D02*
X176283333Y-139252380D01*
X176473809Y-138538095D01*
X176664285Y-139252380D01*
X176902380Y-138252380D01*
X177807142Y-139252380D02*
X177235714Y-139252380D01*
X177521428Y-139252380D02*
X177521428Y-138252380D01*
X177426190Y-138395238D01*
X177330952Y-138490476D01*
X177235714Y-138538095D01*
X178140476Y-138252380D02*
X178807142Y-138252380D01*
X178378571Y-139252380D01*
%TO.C,LED2*%
X147330952Y-76252380D02*
X146854761Y-76252380D01*
X146854761Y-75252380D01*
X147664285Y-75728571D02*
X147997619Y-75728571D01*
X148140476Y-76252380D02*
X147664285Y-76252380D01*
X147664285Y-75252380D01*
X148140476Y-75252380D01*
X148569047Y-76252380D02*
X148569047Y-75252380D01*
X148807142Y-75252380D01*
X148950000Y-75300000D01*
X149045238Y-75395238D01*
X149092857Y-75490476D01*
X149140476Y-75680952D01*
X149140476Y-75823809D01*
X149092857Y-76014285D01*
X149045238Y-76109523D01*
X148950000Y-76204761D01*
X148807142Y-76252380D01*
X148569047Y-76252380D01*
X149521428Y-75347619D02*
X149569047Y-75300000D01*
X149664285Y-75252380D01*
X149902380Y-75252380D01*
X149997619Y-75300000D01*
X150045238Y-75347619D01*
X150092857Y-75442857D01*
X150092857Y-75538095D01*
X150045238Y-75680952D01*
X149473809Y-76252380D01*
X150092857Y-76252380D01*
X152885714Y-75502380D02*
X152314285Y-75502380D01*
X152600000Y-75502380D02*
X152600000Y-74502380D01*
X152504761Y-74645238D01*
X152409523Y-74740476D01*
X152314285Y-74788095D01*
%TO.C,LED8*%
X147330952Y-115252380D02*
X146854761Y-115252380D01*
X146854761Y-114252380D01*
X147664285Y-114728571D02*
X147997619Y-114728571D01*
X148140476Y-115252380D02*
X147664285Y-115252380D01*
X147664285Y-114252380D01*
X148140476Y-114252380D01*
X148569047Y-115252380D02*
X148569047Y-114252380D01*
X148807142Y-114252380D01*
X148950000Y-114300000D01*
X149045238Y-114395238D01*
X149092857Y-114490476D01*
X149140476Y-114680952D01*
X149140476Y-114823809D01*
X149092857Y-115014285D01*
X149045238Y-115109523D01*
X148950000Y-115204761D01*
X148807142Y-115252380D01*
X148569047Y-115252380D01*
X149711904Y-114680952D02*
X149616666Y-114633333D01*
X149569047Y-114585714D01*
X149521428Y-114490476D01*
X149521428Y-114442857D01*
X149569047Y-114347619D01*
X149616666Y-114300000D01*
X149711904Y-114252380D01*
X149902380Y-114252380D01*
X149997619Y-114300000D01*
X150045238Y-114347619D01*
X150092857Y-114442857D01*
X150092857Y-114490476D01*
X150045238Y-114585714D01*
X149997619Y-114633333D01*
X149902380Y-114680952D01*
X149711904Y-114680952D01*
X149616666Y-114728571D01*
X149569047Y-114776190D01*
X149521428Y-114871428D01*
X149521428Y-115061904D01*
X149569047Y-115157142D01*
X149616666Y-115204761D01*
X149711904Y-115252380D01*
X149902380Y-115252380D01*
X149997619Y-115204761D01*
X150045238Y-115157142D01*
X150092857Y-115061904D01*
X150092857Y-114871428D01*
X150045238Y-114776190D01*
X149997619Y-114728571D01*
X149902380Y-114680952D01*
X152885714Y-113352380D02*
X152314285Y-113352380D01*
X152600000Y-113352380D02*
X152600000Y-112352380D01*
X152504761Y-112495238D01*
X152409523Y-112590476D01*
X152314285Y-112638095D01*
%TO.C,SW16*%
X155590476Y-139204761D02*
X155733333Y-139252380D01*
X155971428Y-139252380D01*
X156066666Y-139204761D01*
X156114285Y-139157142D01*
X156161904Y-139061904D01*
X156161904Y-138966666D01*
X156114285Y-138871428D01*
X156066666Y-138823809D01*
X155971428Y-138776190D01*
X155780952Y-138728571D01*
X155685714Y-138680952D01*
X155638095Y-138633333D01*
X155590476Y-138538095D01*
X155590476Y-138442857D01*
X155638095Y-138347619D01*
X155685714Y-138300000D01*
X155780952Y-138252380D01*
X156019047Y-138252380D01*
X156161904Y-138300000D01*
X156495238Y-138252380D02*
X156733333Y-139252380D01*
X156923809Y-138538095D01*
X157114285Y-139252380D01*
X157352380Y-138252380D01*
X158257142Y-139252380D02*
X157685714Y-139252380D01*
X157971428Y-139252380D02*
X157971428Y-138252380D01*
X157876190Y-138395238D01*
X157780952Y-138490476D01*
X157685714Y-138538095D01*
X159114285Y-138252380D02*
X158923809Y-138252380D01*
X158828571Y-138300000D01*
X158780952Y-138347619D01*
X158685714Y-138490476D01*
X158638095Y-138680952D01*
X158638095Y-139061904D01*
X158685714Y-139157142D01*
X158733333Y-139204761D01*
X158828571Y-139252380D01*
X159019047Y-139252380D01*
X159114285Y-139204761D01*
X159161904Y-139157142D01*
X159209523Y-139061904D01*
X159209523Y-138823809D01*
X159161904Y-138728571D01*
X159114285Y-138680952D01*
X159019047Y-138633333D01*
X158828571Y-138633333D01*
X158733333Y-138680952D01*
X158685714Y-138728571D01*
X158638095Y-138823809D01*
%TO.C,LED5*%
X147330952Y-95752380D02*
X146854761Y-95752380D01*
X146854761Y-94752380D01*
X147664285Y-95228571D02*
X147997619Y-95228571D01*
X148140476Y-95752380D02*
X147664285Y-95752380D01*
X147664285Y-94752380D01*
X148140476Y-94752380D01*
X148569047Y-95752380D02*
X148569047Y-94752380D01*
X148807142Y-94752380D01*
X148950000Y-94800000D01*
X149045238Y-94895238D01*
X149092857Y-94990476D01*
X149140476Y-95180952D01*
X149140476Y-95323809D01*
X149092857Y-95514285D01*
X149045238Y-95609523D01*
X148950000Y-95704761D01*
X148807142Y-95752380D01*
X148569047Y-95752380D01*
X150045238Y-94752380D02*
X149569047Y-94752380D01*
X149521428Y-95228571D01*
X149569047Y-95180952D01*
X149664285Y-95133333D01*
X149902380Y-95133333D01*
X149997619Y-95180952D01*
X150045238Y-95228571D01*
X150092857Y-95323809D01*
X150092857Y-95561904D01*
X150045238Y-95657142D01*
X149997619Y-95704761D01*
X149902380Y-95752380D01*
X149664285Y-95752380D01*
X149569047Y-95704761D01*
X149521428Y-95657142D01*
X152835714Y-95002380D02*
X152264285Y-95002380D01*
X152550000Y-95002380D02*
X152550000Y-94002380D01*
X152454761Y-94145238D01*
X152359523Y-94240476D01*
X152264285Y-94288095D01*
%TO.C,LED9*%
X166830952Y-115252380D02*
X166354761Y-115252380D01*
X166354761Y-114252380D01*
X167164285Y-114728571D02*
X167497619Y-114728571D01*
X167640476Y-115252380D02*
X167164285Y-115252380D01*
X167164285Y-114252380D01*
X167640476Y-114252380D01*
X168069047Y-115252380D02*
X168069047Y-114252380D01*
X168307142Y-114252380D01*
X168450000Y-114300000D01*
X168545238Y-114395238D01*
X168592857Y-114490476D01*
X168640476Y-114680952D01*
X168640476Y-114823809D01*
X168592857Y-115014285D01*
X168545238Y-115109523D01*
X168450000Y-115204761D01*
X168307142Y-115252380D01*
X168069047Y-115252380D01*
X169116666Y-115252380D02*
X169307142Y-115252380D01*
X169402380Y-115204761D01*
X169450000Y-115157142D01*
X169545238Y-115014285D01*
X169592857Y-114823809D01*
X169592857Y-114442857D01*
X169545238Y-114347619D01*
X169497619Y-114300000D01*
X169402380Y-114252380D01*
X169211904Y-114252380D01*
X169116666Y-114300000D01*
X169069047Y-114347619D01*
X169021428Y-114442857D01*
X169021428Y-114680952D01*
X169069047Y-114776190D01*
X169116666Y-114823809D01*
X169211904Y-114871428D01*
X169402380Y-114871428D01*
X169497619Y-114823809D01*
X169545238Y-114776190D01*
X169592857Y-114680952D01*
X172385714Y-113352380D02*
X171814285Y-113352380D01*
X172100000Y-113352380D02*
X172100000Y-112352380D01*
X172004761Y-112495238D01*
X171909523Y-112590476D01*
X171814285Y-112638095D01*
%TO.C,LED1*%
X127830952Y-76252380D02*
X127354761Y-76252380D01*
X127354761Y-75252380D01*
X128164285Y-75728571D02*
X128497619Y-75728571D01*
X128640476Y-76252380D02*
X128164285Y-76252380D01*
X128164285Y-75252380D01*
X128640476Y-75252380D01*
X129069047Y-76252380D02*
X129069047Y-75252380D01*
X129307142Y-75252380D01*
X129450000Y-75300000D01*
X129545238Y-75395238D01*
X129592857Y-75490476D01*
X129640476Y-75680952D01*
X129640476Y-75823809D01*
X129592857Y-76014285D01*
X129545238Y-76109523D01*
X129450000Y-76204761D01*
X129307142Y-76252380D01*
X129069047Y-76252380D01*
X130592857Y-76252380D02*
X130021428Y-76252380D01*
X130307142Y-76252380D02*
X130307142Y-75252380D01*
X130211904Y-75395238D01*
X130116666Y-75490476D01*
X130021428Y-75538095D01*
X133385714Y-75502380D02*
X132814285Y-75502380D01*
X133100000Y-75502380D02*
X133100000Y-74502380D01*
X133004761Y-74645238D01*
X132909523Y-74740476D01*
X132814285Y-74788095D01*
%TO.C,SW10*%
X155590476Y-100204761D02*
X155733333Y-100252380D01*
X155971428Y-100252380D01*
X156066666Y-100204761D01*
X156114285Y-100157142D01*
X156161904Y-100061904D01*
X156161904Y-99966666D01*
X156114285Y-99871428D01*
X156066666Y-99823809D01*
X155971428Y-99776190D01*
X155780952Y-99728571D01*
X155685714Y-99680952D01*
X155638095Y-99633333D01*
X155590476Y-99538095D01*
X155590476Y-99442857D01*
X155638095Y-99347619D01*
X155685714Y-99300000D01*
X155780952Y-99252380D01*
X156019047Y-99252380D01*
X156161904Y-99300000D01*
X156495238Y-99252380D02*
X156733333Y-100252380D01*
X156923809Y-99538095D01*
X157114285Y-100252380D01*
X157352380Y-99252380D01*
X158257142Y-100252380D02*
X157685714Y-100252380D01*
X157971428Y-100252380D02*
X157971428Y-99252380D01*
X157876190Y-99395238D01*
X157780952Y-99490476D01*
X157685714Y-99538095D01*
X158876190Y-99252380D02*
X158971428Y-99252380D01*
X159066666Y-99300000D01*
X159114285Y-99347619D01*
X159161904Y-99442857D01*
X159209523Y-99633333D01*
X159209523Y-99871428D01*
X159161904Y-100061904D01*
X159114285Y-100157142D01*
X159066666Y-100204761D01*
X158971428Y-100252380D01*
X158876190Y-100252380D01*
X158780952Y-100204761D01*
X158733333Y-100157142D01*
X158685714Y-100061904D01*
X158638095Y-99871428D01*
X158638095Y-99633333D01*
X158685714Y-99442857D01*
X158733333Y-99347619D01*
X158780952Y-99300000D01*
X158876190Y-99252380D01*
%TO.C,C2*%
X140357142Y-73966666D02*
X140404761Y-74014285D01*
X140452380Y-74157142D01*
X140452380Y-74252380D01*
X140404761Y-74395238D01*
X140309523Y-74490476D01*
X140214285Y-74538095D01*
X140023809Y-74585714D01*
X139880952Y-74585714D01*
X139690476Y-74538095D01*
X139595238Y-74490476D01*
X139500000Y-74395238D01*
X139452380Y-74252380D01*
X139452380Y-74157142D01*
X139500000Y-74014285D01*
X139547619Y-73966666D01*
X139547619Y-73585714D02*
X139500000Y-73538095D01*
X139452380Y-73442857D01*
X139452380Y-73204761D01*
X139500000Y-73109523D01*
X139547619Y-73061904D01*
X139642857Y-73014285D01*
X139738095Y-73014285D01*
X139880952Y-73061904D01*
X140452380Y-73633333D01*
X140452380Y-73014285D01*
%TO.C,SW15*%
X136090476Y-139204761D02*
X136233333Y-139252380D01*
X136471428Y-139252380D01*
X136566666Y-139204761D01*
X136614285Y-139157142D01*
X136661904Y-139061904D01*
X136661904Y-138966666D01*
X136614285Y-138871428D01*
X136566666Y-138823809D01*
X136471428Y-138776190D01*
X136280952Y-138728571D01*
X136185714Y-138680952D01*
X136138095Y-138633333D01*
X136090476Y-138538095D01*
X136090476Y-138442857D01*
X136138095Y-138347619D01*
X136185714Y-138300000D01*
X136280952Y-138252380D01*
X136519047Y-138252380D01*
X136661904Y-138300000D01*
X136995238Y-138252380D02*
X137233333Y-139252380D01*
X137423809Y-138538095D01*
X137614285Y-139252380D01*
X137852380Y-138252380D01*
X138757142Y-139252380D02*
X138185714Y-139252380D01*
X138471428Y-139252380D02*
X138471428Y-138252380D01*
X138376190Y-138395238D01*
X138280952Y-138490476D01*
X138185714Y-138538095D01*
X139661904Y-138252380D02*
X139185714Y-138252380D01*
X139138095Y-138728571D01*
X139185714Y-138680952D01*
X139280952Y-138633333D01*
X139519047Y-138633333D01*
X139614285Y-138680952D01*
X139661904Y-138728571D01*
X139709523Y-138823809D01*
X139709523Y-139061904D01*
X139661904Y-139157142D01*
X139614285Y-139204761D01*
X139519047Y-139252380D01*
X139280952Y-139252380D01*
X139185714Y-139204761D01*
X139138095Y-139157142D01*
%TO.C,LED12*%
X166354761Y-134752380D02*
X165878571Y-134752380D01*
X165878571Y-133752380D01*
X166688095Y-134228571D02*
X167021428Y-134228571D01*
X167164285Y-134752380D02*
X166688095Y-134752380D01*
X166688095Y-133752380D01*
X167164285Y-133752380D01*
X167592857Y-134752380D02*
X167592857Y-133752380D01*
X167830952Y-133752380D01*
X167973809Y-133800000D01*
X168069047Y-133895238D01*
X168116666Y-133990476D01*
X168164285Y-134180952D01*
X168164285Y-134323809D01*
X168116666Y-134514285D01*
X168069047Y-134609523D01*
X167973809Y-134704761D01*
X167830952Y-134752380D01*
X167592857Y-134752380D01*
X169116666Y-134752380D02*
X168545238Y-134752380D01*
X168830952Y-134752380D02*
X168830952Y-133752380D01*
X168735714Y-133895238D01*
X168640476Y-133990476D01*
X168545238Y-134038095D01*
X169497619Y-133847619D02*
X169545238Y-133800000D01*
X169640476Y-133752380D01*
X169878571Y-133752380D01*
X169973809Y-133800000D01*
X170021428Y-133847619D01*
X170069047Y-133942857D01*
X170069047Y-134038095D01*
X170021428Y-134180952D01*
X169450000Y-134752380D01*
X170069047Y-134752380D01*
X172385714Y-134002380D02*
X171814285Y-134002380D01*
X172100000Y-134002380D02*
X172100000Y-133002380D01*
X172004761Y-133145238D01*
X171909523Y-133240476D01*
X171814285Y-133288095D01*
%TO.C,C10*%
X175627142Y-113492857D02*
X175674761Y-113540476D01*
X175722380Y-113683333D01*
X175722380Y-113778571D01*
X175674761Y-113921428D01*
X175579523Y-114016666D01*
X175484285Y-114064285D01*
X175293809Y-114111904D01*
X175150952Y-114111904D01*
X174960476Y-114064285D01*
X174865238Y-114016666D01*
X174770000Y-113921428D01*
X174722380Y-113778571D01*
X174722380Y-113683333D01*
X174770000Y-113540476D01*
X174817619Y-113492857D01*
X175722380Y-112540476D02*
X175722380Y-113111904D01*
X175722380Y-112826190D02*
X174722380Y-112826190D01*
X174865238Y-112921428D01*
X174960476Y-113016666D01*
X175008095Y-113111904D01*
X174722380Y-111921428D02*
X174722380Y-111826190D01*
X174770000Y-111730952D01*
X174817619Y-111683333D01*
X174912857Y-111635714D01*
X175103333Y-111588095D01*
X175341428Y-111588095D01*
X175531904Y-111635714D01*
X175627142Y-111683333D01*
X175674761Y-111730952D01*
X175722380Y-111826190D01*
X175722380Y-111921428D01*
X175674761Y-112016666D01*
X175627142Y-112064285D01*
X175531904Y-112111904D01*
X175341428Y-112159523D01*
X175103333Y-112159523D01*
X174912857Y-112111904D01*
X174817619Y-112064285D01*
X174770000Y-112016666D01*
X174722380Y-111921428D01*
%TO.C,LED10*%
X127304761Y-134752380D02*
X126828571Y-134752380D01*
X126828571Y-133752380D01*
X127638095Y-134228571D02*
X127971428Y-134228571D01*
X128114285Y-134752380D02*
X127638095Y-134752380D01*
X127638095Y-133752380D01*
X128114285Y-133752380D01*
X128542857Y-134752380D02*
X128542857Y-133752380D01*
X128780952Y-133752380D01*
X128923809Y-133800000D01*
X129019047Y-133895238D01*
X129066666Y-133990476D01*
X129114285Y-134180952D01*
X129114285Y-134323809D01*
X129066666Y-134514285D01*
X129019047Y-134609523D01*
X128923809Y-134704761D01*
X128780952Y-134752380D01*
X128542857Y-134752380D01*
X130066666Y-134752380D02*
X129495238Y-134752380D01*
X129780952Y-134752380D02*
X129780952Y-133752380D01*
X129685714Y-133895238D01*
X129590476Y-133990476D01*
X129495238Y-134038095D01*
X130685714Y-133752380D02*
X130780952Y-133752380D01*
X130876190Y-133800000D01*
X130923809Y-133847619D01*
X130971428Y-133942857D01*
X131019047Y-134133333D01*
X131019047Y-134371428D01*
X130971428Y-134561904D01*
X130923809Y-134657142D01*
X130876190Y-134704761D01*
X130780952Y-134752380D01*
X130685714Y-134752380D01*
X130590476Y-134704761D01*
X130542857Y-134657142D01*
X130495238Y-134561904D01*
X130447619Y-134371428D01*
X130447619Y-134133333D01*
X130495238Y-133942857D01*
X130542857Y-133847619D01*
X130590476Y-133800000D01*
X130685714Y-133752380D01*
X133335714Y-134002380D02*
X132764285Y-134002380D01*
X133050000Y-134002380D02*
X133050000Y-133002380D01*
X132954761Y-133145238D01*
X132859523Y-133240476D01*
X132764285Y-133288095D01*
%TO.C,C9*%
X156127142Y-113016666D02*
X156174761Y-113064285D01*
X156222380Y-113207142D01*
X156222380Y-113302380D01*
X156174761Y-113445238D01*
X156079523Y-113540476D01*
X155984285Y-113588095D01*
X155793809Y-113635714D01*
X155650952Y-113635714D01*
X155460476Y-113588095D01*
X155365238Y-113540476D01*
X155270000Y-113445238D01*
X155222380Y-113302380D01*
X155222380Y-113207142D01*
X155270000Y-113064285D01*
X155317619Y-113016666D01*
X156222380Y-112540476D02*
X156222380Y-112350000D01*
X156174761Y-112254761D01*
X156127142Y-112207142D01*
X155984285Y-112111904D01*
X155793809Y-112064285D01*
X155412857Y-112064285D01*
X155317619Y-112111904D01*
X155270000Y-112159523D01*
X155222380Y-112254761D01*
X155222380Y-112445238D01*
X155270000Y-112540476D01*
X155317619Y-112588095D01*
X155412857Y-112635714D01*
X155650952Y-112635714D01*
X155746190Y-112588095D01*
X155793809Y-112540476D01*
X155841428Y-112445238D01*
X155841428Y-112254761D01*
X155793809Y-112159523D01*
X155746190Y-112111904D01*
X155650952Y-112064285D01*
%TO.C,C3*%
X159307142Y-73966666D02*
X159354761Y-74014285D01*
X159402380Y-74157142D01*
X159402380Y-74252380D01*
X159354761Y-74395238D01*
X159259523Y-74490476D01*
X159164285Y-74538095D01*
X158973809Y-74585714D01*
X158830952Y-74585714D01*
X158640476Y-74538095D01*
X158545238Y-74490476D01*
X158450000Y-74395238D01*
X158402380Y-74252380D01*
X158402380Y-74157142D01*
X158450000Y-74014285D01*
X158497619Y-73966666D01*
X158402380Y-73633333D02*
X158402380Y-73014285D01*
X158783333Y-73347619D01*
X158783333Y-73204761D01*
X158830952Y-73109523D01*
X158878571Y-73061904D01*
X158973809Y-73014285D01*
X159211904Y-73014285D01*
X159307142Y-73061904D01*
X159354761Y-73109523D01*
X159402380Y-73204761D01*
X159402380Y-73490476D01*
X159354761Y-73585714D01*
X159307142Y-73633333D01*
%TO.C,LED6*%
X166830952Y-95752380D02*
X166354761Y-95752380D01*
X166354761Y-94752380D01*
X167164285Y-95228571D02*
X167497619Y-95228571D01*
X167640476Y-95752380D02*
X167164285Y-95752380D01*
X167164285Y-94752380D01*
X167640476Y-94752380D01*
X168069047Y-95752380D02*
X168069047Y-94752380D01*
X168307142Y-94752380D01*
X168450000Y-94800000D01*
X168545238Y-94895238D01*
X168592857Y-94990476D01*
X168640476Y-95180952D01*
X168640476Y-95323809D01*
X168592857Y-95514285D01*
X168545238Y-95609523D01*
X168450000Y-95704761D01*
X168307142Y-95752380D01*
X168069047Y-95752380D01*
X169497619Y-94752380D02*
X169307142Y-94752380D01*
X169211904Y-94800000D01*
X169164285Y-94847619D01*
X169069047Y-94990476D01*
X169021428Y-95180952D01*
X169021428Y-95561904D01*
X169069047Y-95657142D01*
X169116666Y-95704761D01*
X169211904Y-95752380D01*
X169402380Y-95752380D01*
X169497619Y-95704761D01*
X169545238Y-95657142D01*
X169592857Y-95561904D01*
X169592857Y-95323809D01*
X169545238Y-95228571D01*
X169497619Y-95180952D01*
X169402380Y-95133333D01*
X169211904Y-95133333D01*
X169116666Y-95180952D01*
X169069047Y-95228571D01*
X169021428Y-95323809D01*
X172385714Y-95002380D02*
X171814285Y-95002380D01*
X172100000Y-95002380D02*
X172100000Y-94002380D01*
X172004761Y-94145238D01*
X171909523Y-94240476D01*
X171814285Y-94288095D01*
%TO.C,C4*%
X178857142Y-73966666D02*
X178904761Y-74014285D01*
X178952380Y-74157142D01*
X178952380Y-74252380D01*
X178904761Y-74395238D01*
X178809523Y-74490476D01*
X178714285Y-74538095D01*
X178523809Y-74585714D01*
X178380952Y-74585714D01*
X178190476Y-74538095D01*
X178095238Y-74490476D01*
X178000000Y-74395238D01*
X177952380Y-74252380D01*
X177952380Y-74157142D01*
X178000000Y-74014285D01*
X178047619Y-73966666D01*
X178285714Y-73109523D02*
X178952380Y-73109523D01*
X177904761Y-73347619D02*
X178619047Y-73585714D01*
X178619047Y-72966666D01*
%TO.C,LED7*%
X127830952Y-115252380D02*
X127354761Y-115252380D01*
X127354761Y-114252380D01*
X128164285Y-114728571D02*
X128497619Y-114728571D01*
X128640476Y-115252380D02*
X128164285Y-115252380D01*
X128164285Y-114252380D01*
X128640476Y-114252380D01*
X129069047Y-115252380D02*
X129069047Y-114252380D01*
X129307142Y-114252380D01*
X129450000Y-114300000D01*
X129545238Y-114395238D01*
X129592857Y-114490476D01*
X129640476Y-114680952D01*
X129640476Y-114823809D01*
X129592857Y-115014285D01*
X129545238Y-115109523D01*
X129450000Y-115204761D01*
X129307142Y-115252380D01*
X129069047Y-115252380D01*
X129973809Y-114252380D02*
X130640476Y-114252380D01*
X130211904Y-115252380D01*
X133385714Y-113352380D02*
X132814285Y-113352380D01*
X133100000Y-113352380D02*
X133100000Y-112352380D01*
X133004761Y-112495238D01*
X132909523Y-112590476D01*
X132814285Y-112638095D01*
%TO.C,C15*%
X157807142Y-148642857D02*
X157854761Y-148690476D01*
X157902380Y-148833333D01*
X157902380Y-148928571D01*
X157854761Y-149071428D01*
X157759523Y-149166666D01*
X157664285Y-149214285D01*
X157473809Y-149261904D01*
X157330952Y-149261904D01*
X157140476Y-149214285D01*
X157045238Y-149166666D01*
X156950000Y-149071428D01*
X156902380Y-148928571D01*
X156902380Y-148833333D01*
X156950000Y-148690476D01*
X156997619Y-148642857D01*
X157902380Y-147690476D02*
X157902380Y-148261904D01*
X157902380Y-147976190D02*
X156902380Y-147976190D01*
X157045238Y-148071428D01*
X157140476Y-148166666D01*
X157188095Y-148261904D01*
X156902380Y-146785714D02*
X156902380Y-147261904D01*
X157378571Y-147309523D01*
X157330952Y-147261904D01*
X157283333Y-147166666D01*
X157283333Y-146928571D01*
X157330952Y-146833333D01*
X157378571Y-146785714D01*
X157473809Y-146738095D01*
X157711904Y-146738095D01*
X157807142Y-146785714D01*
X157854761Y-146833333D01*
X157902380Y-146928571D01*
X157902380Y-147166666D01*
X157854761Y-147261904D01*
X157807142Y-147309523D01*
%TO.C,SW14*%
X175090476Y-119604761D02*
X175233333Y-119652380D01*
X175471428Y-119652380D01*
X175566666Y-119604761D01*
X175614285Y-119557142D01*
X175661904Y-119461904D01*
X175661904Y-119366666D01*
X175614285Y-119271428D01*
X175566666Y-119223809D01*
X175471428Y-119176190D01*
X175280952Y-119128571D01*
X175185714Y-119080952D01*
X175138095Y-119033333D01*
X175090476Y-118938095D01*
X175090476Y-118842857D01*
X175138095Y-118747619D01*
X175185714Y-118700000D01*
X175280952Y-118652380D01*
X175519047Y-118652380D01*
X175661904Y-118700000D01*
X175995238Y-118652380D02*
X176233333Y-119652380D01*
X176423809Y-118938095D01*
X176614285Y-119652380D01*
X176852380Y-118652380D01*
X177757142Y-119652380D02*
X177185714Y-119652380D01*
X177471428Y-119652380D02*
X177471428Y-118652380D01*
X177376190Y-118795238D01*
X177280952Y-118890476D01*
X177185714Y-118938095D01*
X178614285Y-118985714D02*
X178614285Y-119652380D01*
X178376190Y-118604761D02*
X178138095Y-119319047D01*
X178757142Y-119319047D01*
%TO.C,C6*%
X159257142Y-93466666D02*
X159304761Y-93514285D01*
X159352380Y-93657142D01*
X159352380Y-93752380D01*
X159304761Y-93895238D01*
X159209523Y-93990476D01*
X159114285Y-94038095D01*
X158923809Y-94085714D01*
X158780952Y-94085714D01*
X158590476Y-94038095D01*
X158495238Y-93990476D01*
X158400000Y-93895238D01*
X158352380Y-93752380D01*
X158352380Y-93657142D01*
X158400000Y-93514285D01*
X158447619Y-93466666D01*
X158352380Y-92609523D02*
X158352380Y-92800000D01*
X158400000Y-92895238D01*
X158447619Y-92942857D01*
X158590476Y-93038095D01*
X158780952Y-93085714D01*
X159161904Y-93085714D01*
X159257142Y-93038095D01*
X159304761Y-92990476D01*
X159352380Y-92895238D01*
X159352380Y-92704761D01*
X159304761Y-92609523D01*
X159257142Y-92561904D01*
X159161904Y-92514285D01*
X158923809Y-92514285D01*
X158828571Y-92561904D01*
X158780952Y-92609523D01*
X158733333Y-92704761D01*
X158733333Y-92895238D01*
X158780952Y-92990476D01*
X158828571Y-93038095D01*
X158923809Y-93085714D01*
D11*
%TO.C,SW1*%
X98837200Y-84546742D02*
X98924285Y-84575771D01*
X99069428Y-84575771D01*
X99127485Y-84546742D01*
X99156514Y-84517714D01*
X99185542Y-84459657D01*
X99185542Y-84401600D01*
X99156514Y-84343542D01*
X99127485Y-84314514D01*
X99069428Y-84285485D01*
X98953314Y-84256457D01*
X98895257Y-84227428D01*
X98866228Y-84198400D01*
X98837200Y-84140342D01*
X98837200Y-84082285D01*
X98866228Y-84024228D01*
X98895257Y-83995200D01*
X98953314Y-83966171D01*
X99098457Y-83966171D01*
X99185542Y-83995200D01*
X99388742Y-83966171D02*
X99533885Y-84575771D01*
X99650000Y-84140342D01*
X99766114Y-84575771D01*
X99911257Y-83966171D01*
X100462800Y-84575771D02*
X100114457Y-84575771D01*
X100288628Y-84575771D02*
X100288628Y-83966171D01*
X100230571Y-84053257D01*
X100172514Y-84111314D01*
X100114457Y-84140342D01*
X99179600Y-91525771D02*
X98976400Y-91235485D01*
X98831257Y-91525771D02*
X98831257Y-90916171D01*
X99063485Y-90916171D01*
X99121542Y-90945200D01*
X99150571Y-90974228D01*
X99179600Y-91032285D01*
X99179600Y-91119371D01*
X99150571Y-91177428D01*
X99121542Y-91206457D01*
X99063485Y-91235485D01*
X98831257Y-91235485D01*
X99527942Y-91525771D02*
X99469885Y-91496742D01*
X99440857Y-91467714D01*
X99411828Y-91409657D01*
X99411828Y-91235485D01*
X99440857Y-91177428D01*
X99469885Y-91148400D01*
X99527942Y-91119371D01*
X99615028Y-91119371D01*
X99673085Y-91148400D01*
X99702114Y-91177428D01*
X99731142Y-91235485D01*
X99731142Y-91409657D01*
X99702114Y-91467714D01*
X99673085Y-91496742D01*
X99615028Y-91525771D01*
X99527942Y-91525771D01*
X99905314Y-91119371D02*
X100137542Y-91119371D01*
X99992400Y-90916171D02*
X99992400Y-91438685D01*
X100021428Y-91496742D01*
X100079485Y-91525771D01*
X100137542Y-91525771D01*
X100602000Y-91525771D02*
X100602000Y-91206457D01*
X100572971Y-91148400D01*
X100514914Y-91119371D01*
X100398800Y-91119371D01*
X100340742Y-91148400D01*
X100602000Y-91496742D02*
X100543942Y-91525771D01*
X100398800Y-91525771D01*
X100340742Y-91496742D01*
X100311714Y-91438685D01*
X100311714Y-91380628D01*
X100340742Y-91322571D01*
X100398800Y-91293542D01*
X100543942Y-91293542D01*
X100602000Y-91264514D01*
X100892285Y-91525771D02*
X100892285Y-91119371D01*
X100892285Y-91235485D02*
X100921314Y-91177428D01*
X100950342Y-91148400D01*
X101008400Y-91119371D01*
X101066457Y-91119371D01*
X101211600Y-91119371D02*
X101356742Y-91525771D01*
X101501885Y-91119371D02*
X101356742Y-91525771D01*
X101298685Y-91670914D01*
X101269657Y-91699942D01*
X101211600Y-91728971D01*
X101734114Y-91206457D02*
X101937314Y-91206457D01*
X102024400Y-91525771D02*
X101734114Y-91525771D01*
X101734114Y-90916171D01*
X102024400Y-90916171D01*
X102285657Y-91119371D02*
X102285657Y-91525771D01*
X102285657Y-91177428D02*
X102314685Y-91148400D01*
X102372742Y-91119371D01*
X102459828Y-91119371D01*
X102517885Y-91148400D01*
X102546914Y-91206457D01*
X102546914Y-91525771D01*
X103098457Y-91496742D02*
X103040400Y-91525771D01*
X102924285Y-91525771D01*
X102866228Y-91496742D01*
X102837200Y-91467714D01*
X102808171Y-91409657D01*
X102808171Y-91235485D01*
X102837200Y-91177428D01*
X102866228Y-91148400D01*
X102924285Y-91119371D01*
X103040400Y-91119371D01*
X103098457Y-91148400D01*
X103446800Y-91525771D02*
X103388742Y-91496742D01*
X103359714Y-91467714D01*
X103330685Y-91409657D01*
X103330685Y-91235485D01*
X103359714Y-91177428D01*
X103388742Y-91148400D01*
X103446800Y-91119371D01*
X103533885Y-91119371D01*
X103591942Y-91148400D01*
X103620971Y-91177428D01*
X103650000Y-91235485D01*
X103650000Y-91409657D01*
X103620971Y-91467714D01*
X103591942Y-91496742D01*
X103533885Y-91525771D01*
X103446800Y-91525771D01*
X104172514Y-91525771D02*
X104172514Y-90916171D01*
X104172514Y-91496742D02*
X104114457Y-91525771D01*
X103998342Y-91525771D01*
X103940285Y-91496742D01*
X103911257Y-91467714D01*
X103882228Y-91409657D01*
X103882228Y-91235485D01*
X103911257Y-91177428D01*
X103940285Y-91148400D01*
X103998342Y-91119371D01*
X104114457Y-91119371D01*
X104172514Y-91148400D01*
X104695028Y-91496742D02*
X104636971Y-91525771D01*
X104520857Y-91525771D01*
X104462800Y-91496742D01*
X104433771Y-91438685D01*
X104433771Y-91206457D01*
X104462800Y-91148400D01*
X104520857Y-91119371D01*
X104636971Y-91119371D01*
X104695028Y-91148400D01*
X104724057Y-91206457D01*
X104724057Y-91264514D01*
X104433771Y-91322571D01*
X104985314Y-91525771D02*
X104985314Y-91119371D01*
X104985314Y-91235485D02*
X105014342Y-91177428D01*
X105043371Y-91148400D01*
X105101428Y-91119371D01*
X105159485Y-91119371D01*
X105217542Y-91583828D02*
X105682000Y-91583828D01*
X105798114Y-91496742D02*
X105885200Y-91525771D01*
X106030342Y-91525771D01*
X106088400Y-91496742D01*
X106117428Y-91467714D01*
X106146457Y-91409657D01*
X106146457Y-91351600D01*
X106117428Y-91293542D01*
X106088400Y-91264514D01*
X106030342Y-91235485D01*
X105914228Y-91206457D01*
X105856171Y-91177428D01*
X105827142Y-91148400D01*
X105798114Y-91090342D01*
X105798114Y-91032285D01*
X105827142Y-90974228D01*
X105856171Y-90945200D01*
X105914228Y-90916171D01*
X106059371Y-90916171D01*
X106146457Y-90945200D01*
X106349657Y-91119371D02*
X106465771Y-91525771D01*
X106581885Y-91235485D01*
X106698000Y-91525771D01*
X106814114Y-91119371D01*
X107046342Y-91525771D02*
X107046342Y-91119371D01*
X107046342Y-90916171D02*
X107017314Y-90945200D01*
X107046342Y-90974228D01*
X107075371Y-90945200D01*
X107046342Y-90916171D01*
X107046342Y-90974228D01*
X107249542Y-91119371D02*
X107481771Y-91119371D01*
X107336628Y-90916171D02*
X107336628Y-91438685D01*
X107365657Y-91496742D01*
X107423714Y-91525771D01*
X107481771Y-91525771D01*
X107946228Y-91496742D02*
X107888171Y-91525771D01*
X107772057Y-91525771D01*
X107714000Y-91496742D01*
X107684971Y-91467714D01*
X107655942Y-91409657D01*
X107655942Y-91235485D01*
X107684971Y-91177428D01*
X107714000Y-91148400D01*
X107772057Y-91119371D01*
X107888171Y-91119371D01*
X107946228Y-91148400D01*
X108207485Y-91525771D02*
X108207485Y-90916171D01*
X108468742Y-91525771D02*
X108468742Y-91206457D01*
X108439714Y-91148400D01*
X108381657Y-91119371D01*
X108294571Y-91119371D01*
X108236514Y-91148400D01*
X108207485Y-91177428D01*
D10*
%TO.C,LED4*%
X127830952Y-95752380D02*
X127354761Y-95752380D01*
X127354761Y-94752380D01*
X128164285Y-95228571D02*
X128497619Y-95228571D01*
X128640476Y-95752380D02*
X128164285Y-95752380D01*
X128164285Y-94752380D01*
X128640476Y-94752380D01*
X129069047Y-95752380D02*
X129069047Y-94752380D01*
X129307142Y-94752380D01*
X129450000Y-94800000D01*
X129545238Y-94895238D01*
X129592857Y-94990476D01*
X129640476Y-95180952D01*
X129640476Y-95323809D01*
X129592857Y-95514285D01*
X129545238Y-95609523D01*
X129450000Y-95704761D01*
X129307142Y-95752380D01*
X129069047Y-95752380D01*
X130497619Y-95085714D02*
X130497619Y-95752380D01*
X130259523Y-94704761D02*
X130021428Y-95419047D01*
X130640476Y-95419047D01*
X133385714Y-95002380D02*
X132814285Y-95002380D01*
X133100000Y-95002380D02*
X133100000Y-94002380D01*
X133004761Y-94145238D01*
X132909523Y-94240476D01*
X132814285Y-94288095D01*
%TO.C,SW9*%
X136116666Y-100204761D02*
X136259523Y-100252380D01*
X136497619Y-100252380D01*
X136592857Y-100204761D01*
X136640476Y-100157142D01*
X136688095Y-100061904D01*
X136688095Y-99966666D01*
X136640476Y-99871428D01*
X136592857Y-99823809D01*
X136497619Y-99776190D01*
X136307142Y-99728571D01*
X136211904Y-99680952D01*
X136164285Y-99633333D01*
X136116666Y-99538095D01*
X136116666Y-99442857D01*
X136164285Y-99347619D01*
X136211904Y-99300000D01*
X136307142Y-99252380D01*
X136545238Y-99252380D01*
X136688095Y-99300000D01*
X137021428Y-99252380D02*
X137259523Y-100252380D01*
X137450000Y-99538095D01*
X137640476Y-100252380D01*
X137878571Y-99252380D01*
X138307142Y-100252380D02*
X138497619Y-100252380D01*
X138592857Y-100204761D01*
X138640476Y-100157142D01*
X138735714Y-100014285D01*
X138783333Y-99823809D01*
X138783333Y-99442857D01*
X138735714Y-99347619D01*
X138688095Y-99300000D01*
X138592857Y-99252380D01*
X138402380Y-99252380D01*
X138307142Y-99300000D01*
X138259523Y-99347619D01*
X138211904Y-99442857D01*
X138211904Y-99680952D01*
X138259523Y-99776190D01*
X138307142Y-99823809D01*
X138402380Y-99871428D01*
X138592857Y-99871428D01*
X138688095Y-99823809D01*
X138735714Y-99776190D01*
X138783333Y-99680952D01*
%TO.C,LED15*%
X160404761Y-149202380D02*
X159928571Y-149202380D01*
X159928571Y-148202380D01*
X160738095Y-148678571D02*
X161071428Y-148678571D01*
X161214285Y-149202380D02*
X160738095Y-149202380D01*
X160738095Y-148202380D01*
X161214285Y-148202380D01*
X161642857Y-149202380D02*
X161642857Y-148202380D01*
X161880952Y-148202380D01*
X162023809Y-148250000D01*
X162119047Y-148345238D01*
X162166666Y-148440476D01*
X162214285Y-148630952D01*
X162214285Y-148773809D01*
X162166666Y-148964285D01*
X162119047Y-149059523D01*
X162023809Y-149154761D01*
X161880952Y-149202380D01*
X161642857Y-149202380D01*
X163166666Y-149202380D02*
X162595238Y-149202380D01*
X162880952Y-149202380D02*
X162880952Y-148202380D01*
X162785714Y-148345238D01*
X162690476Y-148440476D01*
X162595238Y-148488095D01*
X164071428Y-148202380D02*
X163595238Y-148202380D01*
X163547619Y-148678571D01*
X163595238Y-148630952D01*
X163690476Y-148583333D01*
X163928571Y-148583333D01*
X164023809Y-148630952D01*
X164071428Y-148678571D01*
X164119047Y-148773809D01*
X164119047Y-149011904D01*
X164071428Y-149107142D01*
X164023809Y-149154761D01*
X163928571Y-149202380D01*
X163690476Y-149202380D01*
X163595238Y-149154761D01*
X163547619Y-149107142D01*
X172385714Y-152352380D02*
X171814285Y-152352380D01*
X172100000Y-152352380D02*
X172100000Y-151352380D01*
X172004761Y-151495238D01*
X171909523Y-151590476D01*
X171814285Y-151638095D01*
%TO.C,C1*%
X185987142Y-144916666D02*
X186034761Y-144964285D01*
X186082380Y-145107142D01*
X186082380Y-145202380D01*
X186034761Y-145345238D01*
X185939523Y-145440476D01*
X185844285Y-145488095D01*
X185653809Y-145535714D01*
X185510952Y-145535714D01*
X185320476Y-145488095D01*
X185225238Y-145440476D01*
X185130000Y-145345238D01*
X185082380Y-145202380D01*
X185082380Y-145107142D01*
X185130000Y-144964285D01*
X185177619Y-144916666D01*
X186082380Y-143964285D02*
X186082380Y-144535714D01*
X186082380Y-144250000D02*
X185082380Y-144250000D01*
X185225238Y-144345238D01*
X185320476Y-144440476D01*
X185368095Y-144535714D01*
%TO.C,J2*%
X183516666Y-60702380D02*
X183516666Y-61416666D01*
X183469047Y-61559523D01*
X183373809Y-61654761D01*
X183230952Y-61702380D01*
X183135714Y-61702380D01*
X183945238Y-60797619D02*
X183992857Y-60750000D01*
X184088095Y-60702380D01*
X184326190Y-60702380D01*
X184421428Y-60750000D01*
X184469047Y-60797619D01*
X184516666Y-60892857D01*
X184516666Y-60988095D01*
X184469047Y-61130952D01*
X183897619Y-61702380D01*
X184516666Y-61702380D01*
%TO.C,C17*%
X181487142Y-145442857D02*
X181534761Y-145490476D01*
X181582380Y-145633333D01*
X181582380Y-145728571D01*
X181534761Y-145871428D01*
X181439523Y-145966666D01*
X181344285Y-146014285D01*
X181153809Y-146061904D01*
X181010952Y-146061904D01*
X180820476Y-146014285D01*
X180725238Y-145966666D01*
X180630000Y-145871428D01*
X180582380Y-145728571D01*
X180582380Y-145633333D01*
X180630000Y-145490476D01*
X180677619Y-145442857D01*
X181582380Y-144490476D02*
X181582380Y-145061904D01*
X181582380Y-144776190D02*
X180582380Y-144776190D01*
X180725238Y-144871428D01*
X180820476Y-144966666D01*
X180868095Y-145061904D01*
X180582380Y-144157142D02*
X180582380Y-143490476D01*
X181582380Y-143919047D01*
D12*
%TO.C,C14*%
X138685000Y-151111252D02*
X138685000Y-150588748D01*
X137215000Y-151111252D02*
X137215000Y-150588748D01*
%TO.C,SW5*%
X160965000Y-58815000D02*
X174935000Y-58815000D01*
X160965000Y-73585000D02*
X174935000Y-73585000D01*
X174935000Y-58815000D02*
X174935000Y-73585000D01*
X160965000Y-73585000D02*
X160965000Y-58815000D01*
%TO.C,SW6*%
X121965000Y-93085000D02*
X121965000Y-78315000D01*
X121965000Y-78315000D02*
X135935000Y-78315000D01*
X135935000Y-78315000D02*
X135935000Y-93085000D01*
X121965000Y-93085000D02*
X135935000Y-93085000D01*
%TO.C,JP5*%
X181850000Y-58000000D02*
X181850000Y-58600000D01*
X179050000Y-58600000D02*
X179050000Y-58000000D01*
X181150000Y-59300000D02*
X179750000Y-59300000D01*
X179750000Y-57300000D02*
X181150000Y-57300000D01*
X181150000Y-59300000D02*
G75*
G03*
X181850000Y-58600000I0J700000D01*
G01*
X179750000Y-57300000D02*
G75*
G03*
X179050000Y-58000000I-1J-699999D01*
G01*
X181850000Y-58000000D02*
G75*
G03*
X181150000Y-57300000I-700000J0D01*
G01*
X179050000Y-58600000D02*
G75*
G03*
X179750000Y-59300000I699999J-1D01*
G01*
%TO.C,SW7*%
X141465000Y-78315000D02*
X155435000Y-78315000D01*
X155435000Y-78315000D02*
X155435000Y-93085000D01*
X141465000Y-93085000D02*
X141465000Y-78315000D01*
X141465000Y-93085000D02*
X155435000Y-93085000D01*
%TO.C,C12*%
X156715000Y-132561252D02*
X156715000Y-132038748D01*
X158185000Y-132561252D02*
X158185000Y-132038748D01*
%TO.C,LED14*%
X152100000Y-153050000D02*
X144800000Y-153050000D01*
X152100000Y-147550000D02*
X144800000Y-147550000D01*
X144800000Y-147550000D02*
X144800000Y-148700000D01*
%TO.C,LED13*%
X132600000Y-147550000D02*
X125300000Y-147550000D01*
X132600000Y-153050000D02*
X125300000Y-153050000D01*
X125300000Y-147550000D02*
X125300000Y-148700000D01*
%TO.C,C11*%
X137215000Y-132561252D02*
X137215000Y-132038748D01*
X138685000Y-132561252D02*
X138685000Y-132038748D01*
%TO.C,LED3*%
X164300000Y-69550000D02*
X164300000Y-70700000D01*
X171600000Y-75050000D02*
X164300000Y-75050000D01*
X171600000Y-69550000D02*
X164300000Y-69550000D01*
%TO.C,JP8*%
X193255571Y-72482540D02*
X193255571Y-73082540D01*
X189155571Y-73082540D02*
X189155571Y-72482540D01*
X192605571Y-73782540D02*
X189805571Y-73782540D01*
X189805571Y-71782540D02*
X192605571Y-71782540D01*
X193255571Y-72482540D02*
G75*
G03*
X192555571Y-71782540I-700000J0D01*
G01*
X189155571Y-73082540D02*
G75*
G03*
X189855571Y-73782540I699999J-1D01*
G01*
X192555571Y-73782540D02*
G75*
G03*
X193255571Y-73082540I0J700000D01*
G01*
X189855571Y-71782540D02*
G75*
G03*
X189155571Y-72482540I-1J-699999D01*
G01*
D13*
%TO.C,SW2*%
X195800000Y-94650000D02*
X191990000Y-94650000D01*
X183100000Y-94650000D02*
X183100000Y-92110000D01*
X191990000Y-81950000D02*
X195800000Y-81950000D01*
X195800000Y-81950000D02*
X195800000Y-94650000D01*
X183100000Y-87030000D02*
X183100000Y-89570000D01*
X183100000Y-81950000D02*
X186910000Y-81950000D01*
X186910000Y-94650000D02*
X183100000Y-94650000D01*
X183100000Y-81950000D02*
X183100000Y-84490000D01*
D12*
%TO.C,C13*%
X176215000Y-132561252D02*
X176215000Y-132038748D01*
X177685000Y-132561252D02*
X177685000Y-132038748D01*
%TO.C,SW4*%
X141465000Y-73585000D02*
X155435000Y-73585000D01*
X141465000Y-73585000D02*
X141465000Y-58815000D01*
X141465000Y-58815000D02*
X155435000Y-58815000D01*
X155435000Y-58815000D02*
X155435000Y-73585000D01*
%TO.C,SW11*%
X160965000Y-112665000D02*
X160965000Y-97895000D01*
X160965000Y-112665000D02*
X174935000Y-112665000D01*
X160965000Y-97895000D02*
X174935000Y-97895000D01*
X174935000Y-97895000D02*
X174935000Y-112665000D01*
%TO.C,Brd1*%
X118910000Y-83530000D02*
X91510000Y-83530000D01*
X91510000Y-56230000D02*
X118910000Y-56230000D01*
X91932000Y-76125000D02*
X91932000Y-59525000D01*
X100211000Y-56719000D02*
X100211000Y-59132000D01*
X91932000Y-59525000D02*
X115032000Y-59525000D01*
X91510000Y-83530000D02*
X91510000Y-56230000D01*
X109990000Y-59132000D02*
X100211000Y-59132000D01*
X118372000Y-59513000D02*
X118118000Y-59525000D01*
X100211000Y-56719000D02*
X109990000Y-56719000D01*
X109990000Y-56719000D02*
X109990000Y-59132000D01*
X115032000Y-76125000D02*
X118372000Y-76150000D01*
X118372000Y-76150000D02*
X118372000Y-59513000D01*
X118910000Y-56230000D02*
X118910000Y-83530000D01*
X115032000Y-59525000D02*
X118118000Y-59525000D01*
X115032000Y-76125000D02*
X91932000Y-76125000D01*
%TO.C,U1*%
X118825000Y-100225000D02*
X118825000Y-153375000D01*
X116400000Y-149660000D02*
X113740000Y-149660000D01*
X98560000Y-101400000D02*
X101100000Y-101400000D01*
X101100000Y-101400000D02*
X101100000Y-152200000D01*
X116400000Y-101340000D02*
X116400000Y-149660000D01*
X101100000Y-152200000D02*
X98560000Y-152200000D01*
X116400000Y-150930000D02*
X116400000Y-152260000D01*
X96075000Y-100225000D02*
X118825000Y-100225000D01*
X98560000Y-152200000D02*
X98560000Y-101400000D01*
X113740000Y-149660000D02*
X113740000Y-101340000D01*
X96075000Y-153375000D02*
X96075000Y-100225000D01*
X118825000Y-153375000D02*
X96075000Y-153375000D01*
X113740000Y-101340000D02*
X116400000Y-101340000D01*
X116400000Y-152260000D02*
X115070000Y-152260000D01*
%TO.C,C5*%
X137215000Y-93561252D02*
X137215000Y-93038748D01*
X138685000Y-93561252D02*
X138685000Y-93038748D01*
%TO.C,C16*%
X177685000Y-151111252D02*
X177685000Y-150588748D01*
X176215000Y-151111252D02*
X176215000Y-150588748D01*
%TO.C,C8*%
X137215000Y-113111252D02*
X137215000Y-112588748D01*
X138685000Y-113111252D02*
X138685000Y-112588748D01*
%TO.C,SW12*%
X121965000Y-117315000D02*
X135935000Y-117315000D01*
X135935000Y-117315000D02*
X135935000Y-132085000D01*
X121965000Y-132085000D02*
X135935000Y-132085000D01*
X121965000Y-132085000D02*
X121965000Y-117315000D01*
%TO.C,SW3*%
X135935000Y-58815000D02*
X135935000Y-73585000D01*
X121965000Y-73585000D02*
X135935000Y-73585000D01*
X121965000Y-73585000D02*
X121965000Y-58815000D01*
X121965000Y-58815000D02*
X135935000Y-58815000D01*
%TO.C,LED11*%
X152100000Y-133550000D02*
X144800000Y-133550000D01*
X152100000Y-128050000D02*
X144800000Y-128050000D01*
X144800000Y-128050000D02*
X144800000Y-129200000D01*
%TO.C,C7*%
X176215000Y-93561252D02*
X176215000Y-93038748D01*
X177685000Y-93561252D02*
X177685000Y-93038748D01*
%TO.C,SW8*%
X160965000Y-93085000D02*
X174935000Y-93085000D01*
X160965000Y-93085000D02*
X160965000Y-78315000D01*
X174935000Y-78315000D02*
X174935000Y-93085000D01*
X160965000Y-78315000D02*
X174935000Y-78315000D01*
D11*
%TO.C,U2*%
X189850000Y-149009000D02*
X196050000Y-149009000D01*
X189850000Y-134591000D02*
X196050000Y-134591000D01*
D14*
X187750000Y-135000000D02*
G75*
G03*
X187750000Y-135000000I-100000J0D01*
G01*
D12*
%TO.C,SW13*%
X155435000Y-117315000D02*
X155435000Y-132085000D01*
X141465000Y-117315000D02*
X155435000Y-117315000D01*
X141465000Y-132085000D02*
X141465000Y-117315000D01*
X141465000Y-132085000D02*
X155435000Y-132085000D01*
D11*
%TO.C,U3*%
X195731750Y-132800000D02*
X183731750Y-132800000D01*
X195731750Y-114800000D02*
X198731750Y-117800000D01*
X183731750Y-132800000D02*
X180731750Y-129800000D01*
X180731750Y-117800000D02*
X183731750Y-114800000D01*
X198731750Y-117800000D02*
X198731750Y-129800000D01*
X183731750Y-114800000D02*
X195731750Y-114800000D01*
X198731750Y-129800000D02*
X195731750Y-132800000D01*
X180731750Y-129800000D02*
X180731750Y-117800000D01*
X196731750Y-123800000D02*
G75*
G03*
X196731750Y-123800000I-7000000J0D01*
G01*
G36*
X190199442Y-118155790D02*
G01*
X190663941Y-118213690D01*
X191122071Y-118309749D01*
X191570703Y-118443312D01*
X192006774Y-118613468D01*
X192427304Y-118819053D01*
X192829421Y-119058662D01*
X193210377Y-119330660D01*
X193567571Y-119633188D01*
X193898562Y-119964179D01*
X194201090Y-120321373D01*
X194473088Y-120702329D01*
X194712697Y-121104446D01*
X194918282Y-121524976D01*
X195088438Y-121961047D01*
X195222001Y-122409679D01*
X195318331Y-122869097D01*
X195395359Y-123798685D01*
X195375960Y-124267692D01*
X195318060Y-124732191D01*
X195222001Y-125190321D01*
X195088438Y-125638953D01*
X194918282Y-126075024D01*
X194712697Y-126495554D01*
X194473088Y-126897671D01*
X194201090Y-127278627D01*
X193898562Y-127635821D01*
X193567571Y-127966812D01*
X193210377Y-128269340D01*
X192829421Y-128541338D01*
X192427304Y-128780947D01*
X192006774Y-128986532D01*
X191570703Y-129156688D01*
X191122071Y-129290251D01*
X190663941Y-129386310D01*
X190199442Y-129444210D01*
X189731750Y-129463554D01*
X189264058Y-129444210D01*
X188799559Y-129386310D01*
X188341429Y-129290251D01*
X187892797Y-129156688D01*
X187456726Y-128986532D01*
X187036196Y-128780947D01*
X186634079Y-128541338D01*
X186253123Y-128269340D01*
X185895929Y-127966812D01*
X185564938Y-127635821D01*
X185262410Y-127278627D01*
X184990412Y-126897671D01*
X184750803Y-126495554D01*
X184545218Y-126075024D01*
X184375062Y-125638953D01*
X184241499Y-125190321D01*
X184145440Y-124732191D01*
X184087540Y-124267692D01*
X184068196Y-123800000D01*
X184087540Y-123332308D01*
X184145440Y-122867809D01*
X184241499Y-122409679D01*
X184375062Y-121961047D01*
X184545218Y-121524976D01*
X184750803Y-121104446D01*
X184990412Y-120702329D01*
X185262410Y-120321373D01*
X185564938Y-119964179D01*
X185895929Y-119633188D01*
X186253123Y-119330660D01*
X186634079Y-119058662D01*
X187036196Y-118819053D01*
X187456726Y-118613468D01*
X187892797Y-118443312D01*
X188341429Y-118309749D01*
X188799559Y-118213690D01*
X189264058Y-118155790D01*
X189731750Y-118136446D01*
X190199442Y-118155790D01*
G37*
D12*
%TO.C,SW17*%
X160965000Y-151665000D02*
X160965000Y-136895000D01*
X160965000Y-151665000D02*
X174935000Y-151665000D01*
X174935000Y-136895000D02*
X174935000Y-151665000D01*
X160965000Y-136895000D02*
X174935000Y-136895000D01*
%TO.C,LED2*%
X152100000Y-75050000D02*
X144800000Y-75050000D01*
X144800000Y-69550000D02*
X144800000Y-70700000D01*
X152100000Y-69550000D02*
X144800000Y-69550000D01*
%TO.C,LED8*%
X152100000Y-114050000D02*
X144800000Y-114050000D01*
X152100000Y-108550000D02*
X144800000Y-108550000D01*
X144800000Y-108550000D02*
X144800000Y-109700000D01*
%TO.C,SW16*%
X155435000Y-136895000D02*
X155435000Y-151665000D01*
X141465000Y-136895000D02*
X155435000Y-136895000D01*
X141465000Y-151665000D02*
X141465000Y-136895000D01*
X141465000Y-151665000D02*
X155435000Y-151665000D01*
%TO.C,LED5*%
X152100000Y-89050000D02*
X144800000Y-89050000D01*
X152100000Y-94550000D02*
X144800000Y-94550000D01*
X144800000Y-89050000D02*
X144800000Y-90200000D01*
%TO.C,JP4*%
X181150000Y-56300000D02*
X179750000Y-56300000D01*
X179750000Y-54300000D02*
X181150000Y-54300000D01*
X179050000Y-55600000D02*
X179050000Y-55000000D01*
X181850000Y-55000000D02*
X181850000Y-55600000D01*
X179750000Y-54300000D02*
G75*
G03*
X179050000Y-55000000I-1J-699999D01*
G01*
X181150000Y-56300000D02*
G75*
G03*
X181850000Y-55600000I0J700000D01*
G01*
X181850000Y-55000000D02*
G75*
G03*
X181150000Y-54300000I-700000J0D01*
G01*
X179050000Y-55600000D02*
G75*
G03*
X179750000Y-56300000I699999J-1D01*
G01*
%TO.C,LED9*%
X164300000Y-108550000D02*
X164300000Y-109700000D01*
X171600000Y-108550000D02*
X164300000Y-108550000D01*
X171600000Y-114050000D02*
X164300000Y-114050000D01*
%TO.C,LED1*%
X125300000Y-69550000D02*
X125300000Y-70700000D01*
X132600000Y-75050000D02*
X125300000Y-75050000D01*
X132600000Y-69550000D02*
X125300000Y-69550000D01*
%TO.C,SW10*%
X155435000Y-97895000D02*
X155435000Y-112665000D01*
X141465000Y-112665000D02*
X155435000Y-112665000D01*
X141465000Y-97895000D02*
X155435000Y-97895000D01*
X141465000Y-112665000D02*
X141465000Y-97895000D01*
%TO.C,C2*%
X139185000Y-74061252D02*
X139185000Y-73538748D01*
X137715000Y-74061252D02*
X137715000Y-73538748D01*
%TO.C,SW15*%
X135935000Y-136895000D02*
X135935000Y-151665000D01*
X121965000Y-136895000D02*
X135935000Y-136895000D01*
X121965000Y-151665000D02*
X135935000Y-151665000D01*
X121965000Y-151665000D02*
X121965000Y-136895000D01*
%TO.C,LED12*%
X171600000Y-128050000D02*
X164300000Y-128050000D01*
X164300000Y-128050000D02*
X164300000Y-129200000D01*
X171600000Y-133550000D02*
X164300000Y-133550000D01*
%TO.C,C10*%
X177685000Y-113111252D02*
X177685000Y-112588748D01*
X176215000Y-113111252D02*
X176215000Y-112588748D01*
%TO.C,LED10*%
X125250000Y-128050000D02*
X125250000Y-129200000D01*
X132550000Y-133550000D02*
X125250000Y-133550000D01*
X132550000Y-128050000D02*
X125250000Y-128050000D01*
%TO.C,C9*%
X158185000Y-113111252D02*
X158185000Y-112588748D01*
X156715000Y-113111252D02*
X156715000Y-112588748D01*
%TO.C,C3*%
X156715000Y-74061252D02*
X156715000Y-73538748D01*
X158185000Y-74061252D02*
X158185000Y-73538748D01*
%TO.C,LED6*%
X171600000Y-94550000D02*
X164300000Y-94550000D01*
X171600000Y-89050000D02*
X164300000Y-89050000D01*
X164300000Y-89050000D02*
X164300000Y-90200000D01*
%TO.C,C4*%
X177685000Y-74061252D02*
X177685000Y-73538748D01*
X176215000Y-74061252D02*
X176215000Y-73538748D01*
%TO.C,LED7*%
X132600000Y-114050000D02*
X125300000Y-114050000D01*
X132600000Y-108550000D02*
X125300000Y-108550000D01*
X125300000Y-108550000D02*
X125300000Y-109700000D01*
%TO.C,C15*%
X156715000Y-151111252D02*
X156715000Y-150588748D01*
X158185000Y-151111252D02*
X158185000Y-150588748D01*
%TO.C,SW14*%
X160965000Y-132085000D02*
X160965000Y-117315000D01*
X160965000Y-132085000D02*
X174935000Y-132085000D01*
X160965000Y-117315000D02*
X174935000Y-117315000D01*
X174935000Y-117315000D02*
X174935000Y-132085000D01*
%TO.C,C6*%
X156715000Y-93561252D02*
X156715000Y-93038748D01*
X158185000Y-93561252D02*
X158185000Y-93038748D01*
D13*
%TO.C,SW1*%
X111300000Y-84950000D02*
X111300000Y-97650000D01*
X111300000Y-97650000D02*
X107490000Y-97650000D01*
X98600000Y-97650000D02*
X98600000Y-95110000D01*
X98600000Y-84950000D02*
X98600000Y-87490000D01*
X98600000Y-84950000D02*
X102410000Y-84950000D01*
X98600000Y-90030000D02*
X98600000Y-92570000D01*
X102410000Y-97650000D02*
X98600000Y-97650000D01*
X107490000Y-84950000D02*
X111300000Y-84950000D01*
D12*
%TO.C,LED4*%
X132600000Y-94550000D02*
X125300000Y-94550000D01*
X125300000Y-89050000D02*
X125300000Y-90200000D01*
X132600000Y-89050000D02*
X125300000Y-89050000D01*
%TO.C,SW9*%
X121965000Y-112665000D02*
X135935000Y-112665000D01*
X121965000Y-97895000D02*
X135935000Y-97895000D01*
X135935000Y-97895000D02*
X135935000Y-112665000D01*
X121965000Y-112665000D02*
X121965000Y-97895000D01*
%TO.C,LED15*%
X171600000Y-153050000D02*
X164300000Y-153050000D01*
X171600000Y-147550000D02*
X164300000Y-147550000D01*
X164300000Y-147550000D02*
X164300000Y-148700000D01*
%TO.C,C1*%
X183215000Y-144488748D02*
X183215000Y-145011252D01*
X184685000Y-144488748D02*
X184685000Y-145011252D01*
%TO.C,J2*%
X184700000Y-65170000D02*
X184700000Y-57910000D01*
X194200000Y-65170000D02*
X192700000Y-65170000D01*
X194200000Y-65170000D02*
X194200000Y-57910000D01*
X186200000Y-65170000D02*
X184700000Y-65170000D01*
%TO.C,C17*%
X178715000Y-144538748D02*
X178715000Y-145061252D01*
X180185000Y-144538748D02*
X180185000Y-145061252D01*
%TD*%
%LPC*%
D15*
%TO.C,C14*%
X137950000Y-151800000D03*
X137950000Y-149900000D03*
%TD*%
D16*
%TO.C,SW5*%
X167950000Y-65800000D03*
D17*
X170490000Y-60720000D03*
X164140000Y-63260000D03*
%TD*%
D16*
%TO.C,SW6*%
X128950000Y-85300000D03*
D17*
X131490000Y-80220000D03*
X125140000Y-82760000D03*
%TD*%
D18*
%TO.C,JP5*%
X179800000Y-58300000D03*
D19*
X181100000Y-58300000D03*
%TD*%
D16*
%TO.C,SW7*%
X148450000Y-85300000D03*
D17*
X150990000Y-80220000D03*
X144640000Y-82760000D03*
%TD*%
D15*
%TO.C,C12*%
X157450000Y-133250000D03*
X157450000Y-131350000D03*
%TD*%
D20*
%TO.C,LED14*%
X150900000Y-151900000D03*
X150900000Y-148700000D03*
X146000000Y-148700000D03*
X146000000Y-151900000D03*
%TD*%
%TO.C,LED13*%
X131400000Y-151900000D03*
X131400000Y-148700000D03*
X126500000Y-148700000D03*
X126500000Y-151900000D03*
%TD*%
D15*
%TO.C,C11*%
X137950000Y-133250000D03*
X137950000Y-131350000D03*
%TD*%
D20*
%TO.C,LED3*%
X170400000Y-73900000D03*
X170400000Y-70700000D03*
X165500000Y-70700000D03*
X165500000Y-73900000D03*
%TD*%
D21*
%TO.C,JP8*%
X189905571Y-72782540D03*
D22*
X191205571Y-72782540D03*
D23*
X192505571Y-72782540D03*
%TD*%
D24*
%TO.C,SW2*%
X196943000Y-90840000D03*
X196943000Y-85760000D03*
X196943000Y-88300000D03*
D25*
X189450000Y-81696000D03*
X189450000Y-94904000D03*
D24*
X182465000Y-85760000D03*
X182465000Y-90840000D03*
%TD*%
D15*
%TO.C,C13*%
X176950000Y-133250000D03*
X176950000Y-131350000D03*
%TD*%
D16*
%TO.C,SW4*%
X148450000Y-65800000D03*
D17*
X150990000Y-60720000D03*
X144640000Y-63260000D03*
%TD*%
D16*
%TO.C,SW11*%
X167950000Y-104880000D03*
D17*
X170490000Y-99800000D03*
X164140000Y-102340000D03*
%TD*%
D26*
%TO.C,Brd1*%
X101290000Y-57930000D03*
X103830000Y-57930000D03*
X106370000Y-57930000D03*
X108910000Y-57930000D03*
%TD*%
D27*
%TO.C,H3*%
X187050000Y-107150000D03*
%TD*%
D28*
%TO.C,U1*%
X115070000Y-150930000D03*
D29*
X115070000Y-148390000D03*
X115070000Y-145850000D03*
X115070000Y-143310000D03*
X115070000Y-140770000D03*
X115070000Y-138230000D03*
X115070000Y-135690000D03*
X115070000Y-133150000D03*
X115070000Y-130610000D03*
X115070000Y-128070000D03*
X115070000Y-125530000D03*
X115070000Y-122990000D03*
X115070000Y-120450000D03*
X115070000Y-117910000D03*
X115070000Y-115370000D03*
X115070000Y-112830000D03*
X115070000Y-110290000D03*
X115070000Y-107750000D03*
X115070000Y-105210000D03*
X115070000Y-102670000D03*
X99830000Y-102670000D03*
X99830000Y-105210000D03*
X99830000Y-107750000D03*
X99830000Y-110290000D03*
X99830000Y-112830000D03*
X99830000Y-115370000D03*
X99830000Y-117910000D03*
X99830000Y-120450000D03*
X99830000Y-122990000D03*
X99830000Y-125530000D03*
X99830000Y-128070000D03*
X99830000Y-130610000D03*
X99830000Y-133150000D03*
X99830000Y-135690000D03*
X99830000Y-138230000D03*
X99830000Y-140770000D03*
X99830000Y-143310000D03*
X99830000Y-145850000D03*
X99830000Y-148390000D03*
X99830000Y-150930000D03*
%TD*%
D15*
%TO.C,C5*%
X137950000Y-94250000D03*
X137950000Y-92350000D03*
%TD*%
%TO.C,C16*%
X176950000Y-151800000D03*
X176950000Y-149900000D03*
%TD*%
D27*
%TO.C,H1*%
X107350000Y-150350000D03*
%TD*%
D15*
%TO.C,C8*%
X137950000Y-113800000D03*
X137950000Y-111900000D03*
%TD*%
D16*
%TO.C,SW12*%
X128950000Y-124300000D03*
D17*
X131490000Y-119220000D03*
X125140000Y-121760000D03*
%TD*%
D16*
%TO.C,SW3*%
X128950000Y-65800000D03*
D17*
X131490000Y-60720000D03*
X125140000Y-63260000D03*
%TD*%
D27*
%TO.C,H1*%
X93000000Y-55450000D03*
%TD*%
D20*
%TO.C,LED11*%
X150900000Y-132400000D03*
X150900000Y-129200000D03*
X146000000Y-129200000D03*
X146000000Y-132400000D03*
%TD*%
D15*
%TO.C,C7*%
X176950000Y-94250000D03*
X176950000Y-92350000D03*
%TD*%
D16*
%TO.C,SW8*%
X167950000Y-85300000D03*
D17*
X170490000Y-80220000D03*
X164140000Y-82760000D03*
%TD*%
D30*
%TO.C,U2*%
X189235000Y-135050000D03*
X189235000Y-135550000D03*
X189235000Y-136050000D03*
X189235000Y-136550000D03*
X189235000Y-137050000D03*
X189235000Y-137550000D03*
X189235000Y-138050000D03*
X189235000Y-138550000D03*
X189235000Y-139050000D03*
X189235000Y-139550000D03*
X189235000Y-140050000D03*
X189235000Y-140550000D03*
X189235000Y-141050000D03*
X189235000Y-141550000D03*
X189235000Y-142050000D03*
X189235000Y-142550000D03*
X189235000Y-143050000D03*
X189235000Y-143550000D03*
X189235000Y-144050000D03*
X189235000Y-144550000D03*
X189235000Y-145050000D03*
X189235000Y-145550000D03*
X189235000Y-146050000D03*
X189235000Y-146550000D03*
X189235000Y-147050000D03*
X189235000Y-147550000D03*
X189235000Y-148050000D03*
X189235000Y-148550000D03*
D31*
X196665000Y-148550000D03*
X196665000Y-148050000D03*
X196665000Y-147550000D03*
X196665000Y-147050000D03*
X196665000Y-146550000D03*
X196665000Y-146050000D03*
X196665000Y-145550000D03*
X196665000Y-145050000D03*
X196665000Y-144550000D03*
X196665000Y-144050000D03*
X196665000Y-143550000D03*
X196665000Y-143050000D03*
X196665000Y-142550000D03*
X196665000Y-142050000D03*
X196665000Y-141550000D03*
X196665000Y-141050000D03*
X196665000Y-140550000D03*
X196665000Y-140050000D03*
X196665000Y-139550000D03*
X196665000Y-139050000D03*
X196665000Y-138550000D03*
X196665000Y-138050000D03*
X196665000Y-137550000D03*
X196665000Y-137050000D03*
X196665000Y-136550000D03*
X196665000Y-136050000D03*
X196665000Y-135550000D03*
X196665000Y-135050000D03*
%TD*%
D16*
%TO.C,SW13*%
X148450000Y-124300000D03*
D17*
X150990000Y-119220000D03*
X144640000Y-121760000D03*
%TD*%
D32*
%TO.C,U3*%
X183731750Y-117800000D03*
X195731750Y-129800000D03*
D33*
X189731750Y-114800000D03*
X191731750Y-114800000D03*
X187731750Y-114800000D03*
D34*
X198731750Y-123800000D03*
X198731750Y-121800000D03*
X198731750Y-125800000D03*
%TD*%
D16*
%TO.C,SW17*%
X167950000Y-143880000D03*
D17*
X170490000Y-138800000D03*
X164140000Y-141340000D03*
%TD*%
D20*
%TO.C,LED2*%
X150900000Y-73900000D03*
X150900000Y-70700000D03*
X146000000Y-70700000D03*
X146000000Y-73900000D03*
%TD*%
%TO.C,LED8*%
X150900000Y-112900000D03*
X150900000Y-109700000D03*
X146000000Y-109700000D03*
X146000000Y-112900000D03*
%TD*%
D16*
%TO.C,SW16*%
X148450000Y-143880000D03*
D17*
X150990000Y-138800000D03*
X144640000Y-141340000D03*
%TD*%
D20*
%TO.C,LED5*%
X150900000Y-93400000D03*
X150900000Y-90200000D03*
X146000000Y-90200000D03*
X146000000Y-93400000D03*
%TD*%
D18*
%TO.C,JP4*%
X179800000Y-55300000D03*
D19*
X181100000Y-55300000D03*
%TD*%
D20*
%TO.C,LED9*%
X170400000Y-112900000D03*
X170400000Y-109700000D03*
X165500000Y-109700000D03*
X165500000Y-112900000D03*
%TD*%
%TO.C,LED1*%
X131400000Y-73900000D03*
X131400000Y-70700000D03*
X126500000Y-70700000D03*
X126500000Y-73900000D03*
%TD*%
D16*
%TO.C,SW10*%
X148450000Y-104880000D03*
D17*
X150990000Y-99800000D03*
X144640000Y-102340000D03*
%TD*%
D15*
%TO.C,C2*%
X138450000Y-74750000D03*
X138450000Y-72850000D03*
%TD*%
D16*
%TO.C,SW15*%
X128950000Y-143880000D03*
D17*
X131490000Y-138800000D03*
X125140000Y-141340000D03*
%TD*%
D20*
%TO.C,LED12*%
X170400000Y-132400000D03*
X170400000Y-129200000D03*
X165500000Y-129200000D03*
X165500000Y-132400000D03*
%TD*%
D15*
%TO.C,C10*%
X176950000Y-113800000D03*
X176950000Y-111900000D03*
%TD*%
D20*
%TO.C,LED10*%
X131350000Y-132400000D03*
X131350000Y-129200000D03*
X126450000Y-129200000D03*
X126450000Y-132400000D03*
%TD*%
D15*
%TO.C,C9*%
X157450000Y-113800000D03*
X157450000Y-111900000D03*
%TD*%
%TO.C,C3*%
X157450000Y-74750000D03*
X157450000Y-72850000D03*
%TD*%
D27*
%TO.C,H2*%
X187650000Y-77100000D03*
%TD*%
D20*
%TO.C,LED6*%
X170400000Y-93400000D03*
X170400000Y-90200000D03*
X165500000Y-90200000D03*
X165500000Y-93400000D03*
%TD*%
D15*
%TO.C,C4*%
X176950000Y-74750000D03*
X176950000Y-72850000D03*
%TD*%
D20*
%TO.C,LED7*%
X131400000Y-112900000D03*
X131400000Y-109700000D03*
X126500000Y-109700000D03*
X126500000Y-112900000D03*
%TD*%
D15*
%TO.C,C15*%
X157450000Y-151800000D03*
X157450000Y-149900000D03*
%TD*%
D16*
%TO.C,SW14*%
X167950000Y-124300000D03*
D17*
X170490000Y-119220000D03*
X164140000Y-121760000D03*
%TD*%
D15*
%TO.C,C6*%
X157450000Y-94250000D03*
X157450000Y-92350000D03*
%TD*%
D24*
%TO.C,SW1*%
X112443000Y-93840000D03*
X112443000Y-88760000D03*
X112443000Y-91300000D03*
D25*
X104950000Y-84696000D03*
X104950000Y-97904000D03*
D24*
X97965000Y-88760000D03*
X97965000Y-93840000D03*
%TD*%
D20*
%TO.C,LED4*%
X131400000Y-93400000D03*
X131400000Y-90200000D03*
X126500000Y-90200000D03*
X126500000Y-93400000D03*
%TD*%
D16*
%TO.C,SW9*%
X128950000Y-104880000D03*
D17*
X131490000Y-99800000D03*
X125140000Y-102340000D03*
%TD*%
D20*
%TO.C,LED15*%
X170400000Y-151900000D03*
X170400000Y-148700000D03*
X165500000Y-148700000D03*
X165500000Y-151900000D03*
%TD*%
D35*
%TO.C,C1*%
X183950000Y-143800000D03*
X183950000Y-145700000D03*
%TD*%
D36*
%TO.C,J2*%
X193050000Y-64160000D03*
D37*
X185850000Y-64160000D03*
D38*
X192200000Y-64820000D03*
X191700000Y-64820000D03*
X191200000Y-64820000D03*
X190700000Y-64820000D03*
X190200000Y-64820000D03*
X189700000Y-64820000D03*
X189200000Y-64820000D03*
X188700000Y-64820000D03*
X188200000Y-64820000D03*
X187700000Y-64820000D03*
X187200000Y-64820000D03*
X186700000Y-64820000D03*
X186950000Y-63120000D03*
X187450000Y-63120000D03*
X187950000Y-63120000D03*
X188450000Y-63120000D03*
X188950000Y-63120000D03*
X189450000Y-63120000D03*
X189950000Y-63120000D03*
X190450000Y-63120000D03*
X190950000Y-63120000D03*
X191450000Y-63120000D03*
X191950000Y-63120000D03*
X192450000Y-63120000D03*
D39*
X193940000Y-56960000D03*
X185320000Y-62910000D03*
X193580000Y-62910000D03*
X184960000Y-56960000D03*
%TD*%
D35*
%TO.C,C17*%
X179450000Y-143850000D03*
X179450000Y-145750000D03*
%TD*%
M02*
