%TF.GenerationSoftware,KiCad,Pcbnew,(6.0.4)*%
%TF.CreationDate,2022-04-24T15:44:46-04:00*%
%TF.ProjectId,keeb,6b656562-2e6b-4696-9361-645f70636258,rev?*%
%TF.SameCoordinates,Original*%
%TF.FileFunction,Soldermask,Top*%
%TF.FilePolarity,Negative*%
%FSLAX46Y46*%
G04 Gerber Fmt 4.6, Leading zero omitted, Abs format (unit mm)*
G04 Created by KiCad (PCBNEW (6.0.4)) date 2022-04-24 15:44:46*
%MOMM*%
%LPD*%
G01*
G04 APERTURE LIST*
G04 Aperture macros list*
%AMRoundRect*
0 Rectangle with rounded corners*
0 $1 Rounding radius*
0 $2 $3 $4 $5 $6 $7 $8 $9 X,Y pos of 4 corners*
0 Add a 4 corners polygon primitive as box body*
4,1,4,$2,$3,$4,$5,$6,$7,$8,$9,$2,$3,0*
0 Add four circle primitives for the rounded corners*
1,1,$1+$1,$2,$3*
1,1,$1+$1,$4,$5*
1,1,$1+$1,$6,$7*
1,1,$1+$1,$8,$9*
0 Add four rect primitives between the rounded corners*
20,1,$1+$1,$2,$3,$4,$5,0*
20,1,$1+$1,$4,$5,$6,$7,0*
20,1,$1+$1,$6,$7,$8,$9,0*
20,1,$1+$1,$8,$9,$2,$3,0*%
%AMFreePoly0*
4,1,22,0.500000,-0.750000,0.000000,-0.750000,0.000000,-0.745033,-0.079941,-0.743568,-0.215256,-0.701293,-0.333266,-0.622738,-0.424486,-0.514219,-0.481581,-0.384460,-0.499164,-0.250000,-0.500000,-0.250000,-0.500000,0.250000,-0.499164,0.250000,-0.499963,0.256109,-0.478152,0.396186,-0.417904,0.524511,-0.324060,0.630769,-0.204165,0.706417,-0.067858,0.745374,0.000000,0.744959,0.000000,0.750000,
0.500000,0.750000,0.500000,-0.750000,0.500000,-0.750000,$1*%
%AMFreePoly1*
4,1,20,0.000000,0.744959,0.073905,0.744508,0.209726,0.703889,0.328688,0.626782,0.421226,0.519385,0.479903,0.390333,0.500000,0.250000,0.500000,-0.250000,0.499851,-0.262216,0.476331,-0.402017,0.414519,-0.529596,0.319384,-0.634700,0.198574,-0.708877,0.061801,-0.746166,0.000000,-0.745033,0.000000,-0.750000,-0.500000,-0.750000,-0.500000,0.750000,0.000000,0.750000,0.000000,0.744959,
0.000000,0.744959,$1*%
%AMFreePoly2*
4,1,22,0.550000,-0.750000,0.000000,-0.750000,0.000000,-0.745033,-0.079941,-0.743568,-0.215256,-0.701293,-0.333266,-0.622738,-0.424486,-0.514219,-0.481581,-0.384460,-0.499164,-0.250000,-0.500000,-0.250000,-0.500000,0.250000,-0.499164,0.250000,-0.499963,0.256109,-0.478152,0.396186,-0.417904,0.524511,-0.324060,0.630769,-0.204165,0.706417,-0.067858,0.745374,0.000000,0.744959,0.000000,0.750000,
0.550000,0.750000,0.550000,-0.750000,0.550000,-0.750000,$1*%
%AMFreePoly3*
4,1,20,0.000000,0.744959,0.073905,0.744508,0.209726,0.703889,0.328688,0.626782,0.421226,0.519385,0.479903,0.390333,0.500000,0.250000,0.500000,-0.250000,0.499851,-0.262216,0.476331,-0.402017,0.414519,-0.529596,0.319384,-0.634700,0.198574,-0.708877,0.061801,-0.746166,0.000000,-0.745033,0.000000,-0.750000,-0.550000,-0.750000,-0.550000,0.750000,0.000000,0.750000,0.000000,0.744959,
0.000000,0.744959,$1*%
G04 Aperture macros list end*
%ADD10RoundRect,0.250000X0.475000X-0.250000X0.475000X0.250000X-0.475000X0.250000X-0.475000X-0.250000X0*%
%ADD11C,4.000000*%
%ADD12C,2.500000*%
%ADD13FreePoly0,0.000000*%
%ADD14FreePoly1,0.000000*%
%ADD15R,1.500000X1.000000*%
%ADD16FreePoly2,0.000000*%
%ADD17R,1.000000X1.500000*%
%ADD18FreePoly3,0.000000*%
%ADD19C,1.727200*%
%ADD20C,3.505200*%
%ADD21O,1.600000X2.000000*%
%ADD22C,2.700000*%
%ADD23R,1.700000X1.700000*%
%ADD24C,1.700000*%
%ADD25RoundRect,0.020300X-0.774700X-0.124700X0.774700X-0.124700X0.774700X0.124700X-0.774700X0.124700X0*%
%ADD26RoundRect,0.020300X0.774700X0.124700X-0.774700X0.124700X-0.774700X-0.124700X0.774700X-0.124700X0*%
%ADD27C,1.600000*%
%ADD28O,1.601600X3.101600*%
%ADD29O,3.101600X1.601600*%
%ADD30RoundRect,0.250000X-0.475000X0.250000X-0.475000X-0.250000X0.475000X-0.250000X0.475000X0.250000X0*%
%ADD31C,0.650000*%
%ADD32O,0.950000X0.650000*%
%ADD33R,0.300000X0.700000*%
%ADD34O,0.800000X1.400000*%
G04 APERTURE END LIST*
D10*
%TO.C,C14*%
X137950000Y-151800000D03*
X137950000Y-149900000D03*
%TD*%
D11*
%TO.C,SW5*%
X167950000Y-65800000D03*
D12*
X170490000Y-60720000D03*
X164140000Y-63260000D03*
%TD*%
D11*
%TO.C,SW6*%
X128950000Y-85300000D03*
D12*
X131490000Y-80220000D03*
X125140000Y-82760000D03*
%TD*%
D13*
%TO.C,JP5*%
X179800000Y-58300000D03*
D14*
X181100000Y-58300000D03*
%TD*%
D11*
%TO.C,SW7*%
X148450000Y-85300000D03*
D12*
X150990000Y-80220000D03*
X144640000Y-82760000D03*
%TD*%
D10*
%TO.C,C12*%
X157450000Y-133250000D03*
X157450000Y-131350000D03*
%TD*%
D15*
%TO.C,LED14*%
X150900000Y-151900000D03*
X150900000Y-148700000D03*
X146000000Y-148700000D03*
X146000000Y-151900000D03*
%TD*%
%TO.C,LED13*%
X131400000Y-151900000D03*
X131400000Y-148700000D03*
X126500000Y-148700000D03*
X126500000Y-151900000D03*
%TD*%
D10*
%TO.C,C11*%
X137950000Y-133250000D03*
X137950000Y-131350000D03*
%TD*%
D15*
%TO.C,LED3*%
X170400000Y-73900000D03*
X170400000Y-70700000D03*
X165500000Y-70700000D03*
X165500000Y-73900000D03*
%TD*%
D16*
%TO.C,JP8*%
X189905571Y-72782540D03*
D17*
X191205571Y-72782540D03*
D18*
X192505571Y-72782540D03*
%TD*%
D19*
%TO.C,SW2*%
X196943000Y-90840000D03*
X196943000Y-85760000D03*
X196943000Y-88300000D03*
D20*
X189450000Y-81696000D03*
X189450000Y-94904000D03*
D19*
X182465000Y-85760000D03*
X182465000Y-90840000D03*
%TD*%
D10*
%TO.C,C13*%
X176950000Y-133250000D03*
X176950000Y-131350000D03*
%TD*%
D11*
%TO.C,SW4*%
X148450000Y-65800000D03*
D12*
X150990000Y-60720000D03*
X144640000Y-63260000D03*
%TD*%
D11*
%TO.C,SW11*%
X167950000Y-104880000D03*
D12*
X170490000Y-99800000D03*
X164140000Y-102340000D03*
%TD*%
D21*
%TO.C,Brd1*%
X101290000Y-57930000D03*
X103830000Y-57930000D03*
X106370000Y-57930000D03*
X108910000Y-57930000D03*
%TD*%
D22*
%TO.C,H3*%
X187050000Y-107150000D03*
%TD*%
D23*
%TO.C,U1*%
X115070000Y-150930000D03*
D24*
X115070000Y-148390000D03*
X115070000Y-145850000D03*
X115070000Y-143310000D03*
X115070000Y-140770000D03*
X115070000Y-138230000D03*
X115070000Y-135690000D03*
X115070000Y-133150000D03*
X115070000Y-130610000D03*
X115070000Y-128070000D03*
X115070000Y-125530000D03*
X115070000Y-122990000D03*
X115070000Y-120450000D03*
X115070000Y-117910000D03*
X115070000Y-115370000D03*
X115070000Y-112830000D03*
X115070000Y-110290000D03*
X115070000Y-107750000D03*
X115070000Y-105210000D03*
X115070000Y-102670000D03*
X99830000Y-102670000D03*
X99830000Y-105210000D03*
X99830000Y-107750000D03*
X99830000Y-110290000D03*
X99830000Y-112830000D03*
X99830000Y-115370000D03*
X99830000Y-117910000D03*
X99830000Y-120450000D03*
X99830000Y-122990000D03*
X99830000Y-125530000D03*
X99830000Y-128070000D03*
X99830000Y-130610000D03*
X99830000Y-133150000D03*
X99830000Y-135690000D03*
X99830000Y-138230000D03*
X99830000Y-140770000D03*
X99830000Y-143310000D03*
X99830000Y-145850000D03*
X99830000Y-148390000D03*
X99830000Y-150930000D03*
%TD*%
D10*
%TO.C,C5*%
X137950000Y-94250000D03*
X137950000Y-92350000D03*
%TD*%
%TO.C,C16*%
X176950000Y-151800000D03*
X176950000Y-149900000D03*
%TD*%
D22*
%TO.C,H1*%
X107350000Y-150350000D03*
%TD*%
D10*
%TO.C,C8*%
X137950000Y-113800000D03*
X137950000Y-111900000D03*
%TD*%
D11*
%TO.C,SW12*%
X128950000Y-124300000D03*
D12*
X131490000Y-119220000D03*
X125140000Y-121760000D03*
%TD*%
D11*
%TO.C,SW3*%
X128950000Y-65800000D03*
D12*
X131490000Y-60720000D03*
X125140000Y-63260000D03*
%TD*%
D22*
%TO.C,H1*%
X93000000Y-55450000D03*
%TD*%
D15*
%TO.C,LED11*%
X150900000Y-132400000D03*
X150900000Y-129200000D03*
X146000000Y-129200000D03*
X146000000Y-132400000D03*
%TD*%
D10*
%TO.C,C7*%
X176950000Y-94250000D03*
X176950000Y-92350000D03*
%TD*%
D11*
%TO.C,SW8*%
X167950000Y-85300000D03*
D12*
X170490000Y-80220000D03*
X164140000Y-82760000D03*
%TD*%
D25*
%TO.C,U2*%
X189235000Y-135050000D03*
X189235000Y-135550000D03*
X189235000Y-136050000D03*
X189235000Y-136550000D03*
X189235000Y-137050000D03*
X189235000Y-137550000D03*
X189235000Y-138050000D03*
X189235000Y-138550000D03*
X189235000Y-139050000D03*
X189235000Y-139550000D03*
X189235000Y-140050000D03*
X189235000Y-140550000D03*
X189235000Y-141050000D03*
X189235000Y-141550000D03*
X189235000Y-142050000D03*
X189235000Y-142550000D03*
X189235000Y-143050000D03*
X189235000Y-143550000D03*
X189235000Y-144050000D03*
X189235000Y-144550000D03*
X189235000Y-145050000D03*
X189235000Y-145550000D03*
X189235000Y-146050000D03*
X189235000Y-146550000D03*
X189235000Y-147050000D03*
X189235000Y-147550000D03*
X189235000Y-148050000D03*
X189235000Y-148550000D03*
D26*
X196665000Y-148550000D03*
X196665000Y-148050000D03*
X196665000Y-147550000D03*
X196665000Y-147050000D03*
X196665000Y-146550000D03*
X196665000Y-146050000D03*
X196665000Y-145550000D03*
X196665000Y-145050000D03*
X196665000Y-144550000D03*
X196665000Y-144050000D03*
X196665000Y-143550000D03*
X196665000Y-143050000D03*
X196665000Y-142550000D03*
X196665000Y-142050000D03*
X196665000Y-141550000D03*
X196665000Y-141050000D03*
X196665000Y-140550000D03*
X196665000Y-140050000D03*
X196665000Y-139550000D03*
X196665000Y-139050000D03*
X196665000Y-138550000D03*
X196665000Y-138050000D03*
X196665000Y-137550000D03*
X196665000Y-137050000D03*
X196665000Y-136550000D03*
X196665000Y-136050000D03*
X196665000Y-135550000D03*
X196665000Y-135050000D03*
%TD*%
D11*
%TO.C,SW13*%
X148450000Y-124300000D03*
D12*
X150990000Y-119220000D03*
X144640000Y-121760000D03*
%TD*%
D27*
%TO.C,U3*%
X183731750Y-117800000D03*
X195731750Y-129800000D03*
D28*
X189731750Y-114800000D03*
X191731750Y-114800000D03*
X187731750Y-114800000D03*
D29*
X198731750Y-123800000D03*
X198731750Y-121800000D03*
X198731750Y-125800000D03*
%TD*%
D11*
%TO.C,SW17*%
X167950000Y-143880000D03*
D12*
X170490000Y-138800000D03*
X164140000Y-141340000D03*
%TD*%
D15*
%TO.C,LED2*%
X150900000Y-73900000D03*
X150900000Y-70700000D03*
X146000000Y-70700000D03*
X146000000Y-73900000D03*
%TD*%
%TO.C,LED8*%
X150900000Y-112900000D03*
X150900000Y-109700000D03*
X146000000Y-109700000D03*
X146000000Y-112900000D03*
%TD*%
D11*
%TO.C,SW16*%
X148450000Y-143880000D03*
D12*
X150990000Y-138800000D03*
X144640000Y-141340000D03*
%TD*%
D15*
%TO.C,LED5*%
X150900000Y-93400000D03*
X150900000Y-90200000D03*
X146000000Y-90200000D03*
X146000000Y-93400000D03*
%TD*%
D13*
%TO.C,JP4*%
X179800000Y-55300000D03*
D14*
X181100000Y-55300000D03*
%TD*%
D15*
%TO.C,LED9*%
X170400000Y-112900000D03*
X170400000Y-109700000D03*
X165500000Y-109700000D03*
X165500000Y-112900000D03*
%TD*%
%TO.C,LED1*%
X131400000Y-73900000D03*
X131400000Y-70700000D03*
X126500000Y-70700000D03*
X126500000Y-73900000D03*
%TD*%
D11*
%TO.C,SW10*%
X148450000Y-104880000D03*
D12*
X150990000Y-99800000D03*
X144640000Y-102340000D03*
%TD*%
D10*
%TO.C,C2*%
X138450000Y-74750000D03*
X138450000Y-72850000D03*
%TD*%
D11*
%TO.C,SW15*%
X128950000Y-143880000D03*
D12*
X131490000Y-138800000D03*
X125140000Y-141340000D03*
%TD*%
D15*
%TO.C,LED12*%
X170400000Y-132400000D03*
X170400000Y-129200000D03*
X165500000Y-129200000D03*
X165500000Y-132400000D03*
%TD*%
D10*
%TO.C,C10*%
X176950000Y-113800000D03*
X176950000Y-111900000D03*
%TD*%
D15*
%TO.C,LED10*%
X131350000Y-132400000D03*
X131350000Y-129200000D03*
X126450000Y-129200000D03*
X126450000Y-132400000D03*
%TD*%
D10*
%TO.C,C9*%
X157450000Y-113800000D03*
X157450000Y-111900000D03*
%TD*%
%TO.C,C3*%
X157450000Y-74750000D03*
X157450000Y-72850000D03*
%TD*%
D22*
%TO.C,H2*%
X187650000Y-77100000D03*
%TD*%
D15*
%TO.C,LED6*%
X170400000Y-93400000D03*
X170400000Y-90200000D03*
X165500000Y-90200000D03*
X165500000Y-93400000D03*
%TD*%
D10*
%TO.C,C4*%
X176950000Y-74750000D03*
X176950000Y-72850000D03*
%TD*%
D15*
%TO.C,LED7*%
X131400000Y-112900000D03*
X131400000Y-109700000D03*
X126500000Y-109700000D03*
X126500000Y-112900000D03*
%TD*%
D10*
%TO.C,C15*%
X157450000Y-151800000D03*
X157450000Y-149900000D03*
%TD*%
D11*
%TO.C,SW14*%
X167950000Y-124300000D03*
D12*
X170490000Y-119220000D03*
X164140000Y-121760000D03*
%TD*%
D10*
%TO.C,C6*%
X157450000Y-94250000D03*
X157450000Y-92350000D03*
%TD*%
D19*
%TO.C,SW1*%
X112443000Y-93840000D03*
X112443000Y-88760000D03*
X112443000Y-91300000D03*
D20*
X104950000Y-84696000D03*
X104950000Y-97904000D03*
D19*
X97965000Y-88760000D03*
X97965000Y-93840000D03*
%TD*%
D15*
%TO.C,LED4*%
X131400000Y-93400000D03*
X131400000Y-90200000D03*
X126500000Y-90200000D03*
X126500000Y-93400000D03*
%TD*%
D11*
%TO.C,SW9*%
X128950000Y-104880000D03*
D12*
X131490000Y-99800000D03*
X125140000Y-102340000D03*
%TD*%
D15*
%TO.C,LED15*%
X170400000Y-151900000D03*
X170400000Y-148700000D03*
X165500000Y-148700000D03*
X165500000Y-151900000D03*
%TD*%
D30*
%TO.C,C1*%
X183950000Y-143800000D03*
X183950000Y-145700000D03*
%TD*%
D31*
%TO.C,J2*%
X193050000Y-64160000D03*
D32*
X185850000Y-64160000D03*
D33*
X192200000Y-64820000D03*
X191700000Y-64820000D03*
X191200000Y-64820000D03*
X190700000Y-64820000D03*
X190200000Y-64820000D03*
X189700000Y-64820000D03*
X189200000Y-64820000D03*
X188700000Y-64820000D03*
X188200000Y-64820000D03*
X187700000Y-64820000D03*
X187200000Y-64820000D03*
X186700000Y-64820000D03*
X186950000Y-63120000D03*
X187450000Y-63120000D03*
X187950000Y-63120000D03*
X188450000Y-63120000D03*
X188950000Y-63120000D03*
X189450000Y-63120000D03*
X189950000Y-63120000D03*
X190450000Y-63120000D03*
X190950000Y-63120000D03*
X191450000Y-63120000D03*
X191950000Y-63120000D03*
X192450000Y-63120000D03*
D34*
X193940000Y-56960000D03*
X185320000Y-62910000D03*
X193580000Y-62910000D03*
X184960000Y-56960000D03*
%TD*%
D30*
%TO.C,C17*%
X179450000Y-143850000D03*
X179450000Y-145750000D03*
%TD*%
M02*
