M48
; DRILL file {KiCad (6.0.4)} date Sun Apr 24 15:44:56 2022
; FORMAT={-:-/ absolute / metric / decimal}
; #@! TF.CreationDate,2022-04-24T15:44:56-04:00
; #@! TF.GenerationSoftware,Kicad,Pcbnew,(6.0.4)
; #@! TF.FileFunction,Plated,1,4,PTH
FMAT,2
METRIC
; #@! TA.AperFunction,Plated,PTH,ViaDrill
T1C0.400
; #@! TA.AperFunction,Plated,PTH,ComponentDrill
T2C0.500
; #@! TA.AperFunction,Plated,PTH,ComponentDrill
T3C0.900
; #@! TA.AperFunction,Plated,PTH,ComponentDrill
T4C1.000
; #@! TA.AperFunction,Plated,PTH,ComponentDrill
T5C1.016
; #@! TA.AperFunction,Plated,PTH,ComponentDrill
T6C2.000
; #@! TA.AperFunction,Plated,PTH,ComponentDrill
T7C2.200
; #@! TA.AperFunction,Plated,PTH,ComponentDrill
T8C2.286
%
G90
G05
T1
X96.35Y-145.85
X96.35Y-148.35
X96.35Y-150.9
X96.45Y-88.75
X101.3Y-60.0
X102.55Y-84.7
X102.55Y-97.9
X103.85Y-60.0
X113.95Y-91.3
X118.55Y-102.65
X118.55Y-105.2
X118.55Y-107.75
X122.5Y-118.15
X123.25Y-98.2
X123.85Y-118.15
X124.65Y-98.35
X126.0Y-99.1
X129.5Y-60.7
X129.5Y-80.2
X129.5Y-99.8
X129.5Y-119.2
X133.45Y-138.8
X137.95Y-91.2
X137.95Y-95.4
X137.95Y-110.75
X137.95Y-114.95
X137.95Y-130.2
X137.95Y-134.4
X138.45Y-71.7
X138.45Y-75.9
X139.35Y-152.15
X139.363Y-150.737
X149.0Y-60.7
X149.0Y-80.2
X149.0Y-99.8
X149.0Y-119.2
X149.05Y-138.8
X157.45Y-71.7
X157.45Y-75.9
X157.45Y-91.2
X157.45Y-95.4
X157.45Y-110.75
X157.45Y-114.95
X157.45Y-130.2
X157.45Y-134.4
X158.85Y-152.15
X158.863Y-150.737
X168.5Y-60.7
X168.5Y-80.2
X168.5Y-99.8
X168.55Y-119.25
X168.55Y-138.8
X172.15Y-144.45
X173.95Y-142.85
X175.95Y-63.25
X175.95Y-65.05
X175.95Y-66.8
X176.2Y-82.75
X176.2Y-84.55
X176.2Y-86.35
X176.2Y-102.3
X176.2Y-104.05
X176.2Y-105.8
X176.2Y-121.7
X176.2Y-123.55
X176.2Y-125.35
X176.2Y-141.35
X176.95Y-71.7
X176.95Y-75.9
X176.95Y-91.2
X176.95Y-95.4
X176.95Y-110.75
X176.95Y-114.95
X176.95Y-130.2
X176.95Y-134.4
X178.3Y-55.3
X178.32Y-57.93
X178.35Y-152.163
X178.35Y-149.9
X179.45Y-142.35
X179.45Y-147.174
X182.6Y-55.35
X183.0Y-59.1
X183.95Y-85.75
X184.2Y-153.2
X184.3Y-62.9
X185.15Y-142.4
X185.3Y-137.55
X185.4Y-136.05
X185.9Y-141.45
X186.0Y-56.95
X186.85Y-140.55
X186.95Y-150.9
X187.05Y-137.65
X187.15Y-81.7
X187.15Y-94.9
X187.6Y-142.826
X187.7Y-116.95
X187.95Y-58.25
X188.2Y-67.6
X188.3Y-130.7
X188.35Y-131.95
X188.7Y-61.45
X189.25Y-69.3
X189.45Y-55.274
X189.45Y-153.2
X189.95Y-71.25
X190.25Y-66.9
X190.45Y-60.15
X191.499Y-61.85
X191.7Y-116.95
X191.737Y-136.015
X191.9Y-145.05
X191.93Y-66.05
X191.95Y-150.95
X192.65Y-138.45
X192.75Y-119.35
X192.9Y-56.95
X193.4Y-143.35
X193.4Y-144.5
X193.45Y-141.3
X193.6Y-134.8
X194.45Y-153.2
X194.475Y-142.15
X194.6Y-62.9
X195.5Y-88.3
X196.6Y-121.8
X196.6Y-125.8
X196.95Y-150.95
X197.65Y-63.4
X199.7Y-153.2
T3
X187.732Y-114.8
X189.732Y-114.8
X191.732Y-114.8
X198.732Y-121.8
X198.732Y-123.8
X198.732Y-125.8
T4
X99.83Y-102.67
X99.83Y-105.21
X99.83Y-107.75
X99.83Y-110.29
X99.83Y-112.83
X99.83Y-115.37
X99.83Y-117.91
X99.83Y-120.45
X99.83Y-122.99
X99.83Y-125.53
X99.83Y-128.07
X99.83Y-130.61
X99.83Y-133.15
X99.83Y-135.69
X99.83Y-138.23
X99.83Y-140.77
X99.83Y-143.31
X99.83Y-145.85
X99.83Y-148.39
X99.83Y-150.93
X101.29Y-57.93
X103.83Y-57.93
X106.37Y-57.93
X108.91Y-57.93
X115.07Y-102.67
X115.07Y-105.21
X115.07Y-107.75
X115.07Y-110.29
X115.07Y-112.83
X115.07Y-115.37
X115.07Y-117.91
X115.07Y-120.45
X115.07Y-122.99
X115.07Y-125.53
X115.07Y-128.07
X115.07Y-130.61
X115.07Y-133.15
X115.07Y-135.69
X115.07Y-138.23
X115.07Y-140.77
X115.07Y-143.31
X115.07Y-145.85
X115.07Y-148.39
X115.07Y-150.93
T5
X97.965Y-88.76
X97.965Y-93.84
X112.443Y-88.76
X112.443Y-91.3
X112.443Y-93.84
X182.465Y-85.76
X182.465Y-90.84
X196.943Y-85.76
X196.943Y-88.3
X196.943Y-90.84
T6
X125.14Y-63.26
X125.14Y-82.76
X125.14Y-102.34
X125.14Y-121.76
X125.14Y-141.34
X131.49Y-60.72
X131.49Y-80.22
X131.49Y-99.8
X131.49Y-119.22
X131.49Y-138.8
X144.64Y-63.26
X144.64Y-82.76
X144.64Y-102.34
X144.64Y-121.76
X144.64Y-141.34
X150.99Y-60.72
X150.99Y-80.22
X150.99Y-99.8
X150.99Y-119.22
X150.99Y-138.8
X164.14Y-63.26
X164.14Y-82.76
X164.14Y-102.34
X164.14Y-121.76
X164.14Y-141.34
X170.49Y-60.72
X170.49Y-80.22
X170.49Y-99.8
X170.49Y-119.22
X170.49Y-138.8
T7
X93.0Y-55.45
X107.35Y-150.35
X187.05Y-107.15
X187.65Y-77.1
T8
X104.95Y-84.696
X104.95Y-97.904
X189.45Y-81.696
X189.45Y-94.904
T2
G00X184.96Y-57.26
M15
G01X184.96Y-56.66
M16
G05
G00X185.32Y-63.21
M15
G01X185.32Y-62.61
M16
G05
G00X193.58Y-63.21
M15
G01X193.58Y-62.61
M16
G05
G00X193.94Y-57.26
M15
G01X193.94Y-56.66
M16
G05
T0
M30
