%FSLAX45Y45*%
G04 Gerber Fmt 4.5, Leading zero omitted, Abs format (unit mm)*
G04 Created by KiCad (PCBNEW (6.0.4)) date 2022-04-24 15:44:57*
%MOMM*%
%LPD*%
G01*
G04 APERTURE LIST*
%TA.AperFunction,Profile*%
%ADD10C,0.100000*%
%TD*%
%ADD11C,0.200000*%
%ADD12C,0.040000*%
%ADD13C,0.050000*%
%ADD14C,0.090000*%
%ADD15C,0.100000*%
%ADD16C,0.101600*%
%ADD17C,0.220000*%
%ADD18C,0.228600*%
G04 APERTURE END LIST*
D10*
X20141000Y-5388000D02*
X9141000Y-5388000D01*
X9141000Y-5388000D02*
X9141000Y-15388000D01*
X20141000Y-15388000D02*
X20141000Y-5388000D01*
X9141000Y-15388000D02*
X20141000Y-15388000D01*
D11*
D12*
X9615000Y-14565000D02*
X9655000Y-14605000D01*
X9655000Y-14565000D02*
X9615000Y-14605000D01*
X9615000Y-14815000D02*
X9655000Y-14855000D01*
X9655000Y-14815000D02*
X9615000Y-14855000D01*
X9615000Y-15070000D02*
X9655000Y-15110000D01*
X9655000Y-15070000D02*
X9615000Y-15110000D01*
X9625000Y-8855000D02*
X9665000Y-8895000D01*
X9665000Y-8855000D02*
X9625000Y-8895000D01*
X10110000Y-5980000D02*
X10150000Y-6020000D01*
X10150000Y-5980000D02*
X10110000Y-6020000D01*
X10235000Y-8450000D02*
X10275000Y-8490000D01*
X10275000Y-8450000D02*
X10235000Y-8490000D01*
X10235000Y-9770000D02*
X10275000Y-9810000D01*
X10275000Y-9770000D02*
X10235000Y-9810000D01*
X10365000Y-5980000D02*
X10405000Y-6020000D01*
X10405000Y-5980000D02*
X10365000Y-6020000D01*
X11375000Y-9110000D02*
X11415000Y-9150000D01*
X11415000Y-9110000D02*
X11375000Y-9150000D01*
X11835000Y-10245000D02*
X11875000Y-10285000D01*
X11875000Y-10245000D02*
X11835000Y-10285000D01*
X11835000Y-10500000D02*
X11875000Y-10540000D01*
X11875000Y-10500000D02*
X11835000Y-10540000D01*
X11835000Y-10755000D02*
X11875000Y-10795000D01*
X11875000Y-10755000D02*
X11835000Y-10795000D01*
X12230000Y-11795000D02*
X12270000Y-11835000D01*
X12270000Y-11795000D02*
X12230000Y-11835000D01*
X12305000Y-9800000D02*
X12345000Y-9840000D01*
X12345000Y-9800000D02*
X12305000Y-9840000D01*
X12365000Y-11795000D02*
X12405000Y-11835000D01*
X12405000Y-11795000D02*
X12365000Y-11835000D01*
X12445000Y-9815000D02*
X12485000Y-9855000D01*
X12485000Y-9815000D02*
X12445000Y-9855000D01*
X12580000Y-9890000D02*
X12620000Y-9930000D01*
X12620000Y-9890000D02*
X12580000Y-9930000D01*
X12930000Y-6050000D02*
X12970000Y-6090000D01*
X12970000Y-6050000D02*
X12930000Y-6090000D01*
X12930000Y-8000000D02*
X12970000Y-8040000D01*
X12970000Y-8000000D02*
X12930000Y-8040000D01*
X12930000Y-9960000D02*
X12970000Y-10000000D01*
X12970000Y-9960000D02*
X12930000Y-10000000D01*
X12930000Y-11900000D02*
X12970000Y-11940000D01*
X12970000Y-11900000D02*
X12930000Y-11940000D01*
X13325000Y-13860000D02*
X13365000Y-13900000D01*
X13365000Y-13860000D02*
X13325000Y-13900000D01*
X13775000Y-9100000D02*
X13815000Y-9140000D01*
X13815000Y-9100000D02*
X13775000Y-9140000D01*
X13775000Y-9520000D02*
X13815000Y-9560000D01*
X13815000Y-9520000D02*
X13775000Y-9560000D01*
X13775000Y-11055000D02*
X13815000Y-11095000D01*
X13815000Y-11055000D02*
X13775000Y-11095000D01*
X13775000Y-11475000D02*
X13815000Y-11515000D01*
X13815000Y-11475000D02*
X13775000Y-11515000D01*
X13775000Y-13000000D02*
X13815000Y-13040000D01*
X13815000Y-13000000D02*
X13775000Y-13040000D01*
X13775000Y-13420000D02*
X13815000Y-13460000D01*
X13815000Y-13420000D02*
X13775000Y-13460000D01*
X13825000Y-7150000D02*
X13865000Y-7190000D01*
X13865000Y-7150000D02*
X13825000Y-7190000D01*
X13825000Y-7570000D02*
X13865000Y-7610000D01*
X13865000Y-7570000D02*
X13825000Y-7610000D01*
X13915000Y-15195000D02*
X13955000Y-15235000D01*
X13955000Y-15195000D02*
X13915000Y-15235000D01*
X13916270Y-15053730D02*
X13956270Y-15093730D01*
X13956270Y-15053730D02*
X13916270Y-15093730D01*
X14880000Y-6050000D02*
X14920000Y-6090000D01*
X14920000Y-6050000D02*
X14880000Y-6090000D01*
X14880000Y-8000000D02*
X14920000Y-8040000D01*
X14920000Y-8000000D02*
X14880000Y-8040000D01*
X14880000Y-9960000D02*
X14920000Y-10000000D01*
X14920000Y-9960000D02*
X14880000Y-10000000D01*
X14880000Y-11900000D02*
X14920000Y-11940000D01*
X14920000Y-11900000D02*
X14880000Y-11940000D01*
X14885000Y-13860000D02*
X14925000Y-13900000D01*
X14925000Y-13860000D02*
X14885000Y-13900000D01*
X15725000Y-7150000D02*
X15765000Y-7190000D01*
X15765000Y-7150000D02*
X15725000Y-7190000D01*
X15725000Y-7570000D02*
X15765000Y-7610000D01*
X15765000Y-7570000D02*
X15725000Y-7610000D01*
X15725000Y-9100000D02*
X15765000Y-9140000D01*
X15765000Y-9100000D02*
X15725000Y-9140000D01*
X15725000Y-9520000D02*
X15765000Y-9560000D01*
X15765000Y-9520000D02*
X15725000Y-9560000D01*
X15725000Y-11055000D02*
X15765000Y-11095000D01*
X15765000Y-11055000D02*
X15725000Y-11095000D01*
X15725000Y-11475000D02*
X15765000Y-11515000D01*
X15765000Y-11475000D02*
X15725000Y-11515000D01*
X15725000Y-13000000D02*
X15765000Y-13040000D01*
X15765000Y-13000000D02*
X15725000Y-13040000D01*
X15725000Y-13420000D02*
X15765000Y-13460000D01*
X15765000Y-13420000D02*
X15725000Y-13460000D01*
X15865000Y-15195000D02*
X15905000Y-15235000D01*
X15905000Y-15195000D02*
X15865000Y-15235000D01*
X15866270Y-15053730D02*
X15906270Y-15093730D01*
X15906270Y-15053730D02*
X15866270Y-15093730D01*
X16830000Y-6050000D02*
X16870000Y-6090000D01*
X16870000Y-6050000D02*
X16830000Y-6090000D01*
X16830000Y-8000000D02*
X16870000Y-8040000D01*
X16870000Y-8000000D02*
X16830000Y-8040000D01*
X16830000Y-9960000D02*
X16870000Y-10000000D01*
X16870000Y-9960000D02*
X16830000Y-10000000D01*
X16835000Y-11905000D02*
X16875000Y-11945000D01*
X16875000Y-11905000D02*
X16835000Y-11945000D01*
X16835000Y-13860000D02*
X16875000Y-13900000D01*
X16875000Y-13860000D02*
X16835000Y-13900000D01*
X17195000Y-14425000D02*
X17235000Y-14465000D01*
X17235000Y-14425000D02*
X17195000Y-14465000D01*
X17375000Y-14265000D02*
X17415000Y-14305000D01*
X17415000Y-14265000D02*
X17375000Y-14305000D01*
X17575000Y-6305000D02*
X17615000Y-6345000D01*
X17615000Y-6305000D02*
X17575000Y-6345000D01*
X17575000Y-6485000D02*
X17615000Y-6525000D01*
X17615000Y-6485000D02*
X17575000Y-6525000D01*
X17575000Y-6660000D02*
X17615000Y-6700000D01*
X17615000Y-6660000D02*
X17575000Y-6700000D01*
X17600000Y-8255000D02*
X17640000Y-8295000D01*
X17640000Y-8255000D02*
X17600000Y-8295000D01*
X17600000Y-8435000D02*
X17640000Y-8475000D01*
X17640000Y-8435000D02*
X17600000Y-8475000D01*
X17600000Y-8615000D02*
X17640000Y-8655000D01*
X17640000Y-8615000D02*
X17600000Y-8655000D01*
X17600000Y-10210000D02*
X17640000Y-10250000D01*
X17640000Y-10210000D02*
X17600000Y-10250000D01*
X17600000Y-10385000D02*
X17640000Y-10425000D01*
X17640000Y-10385000D02*
X17600000Y-10425000D01*
X17600000Y-10560000D02*
X17640000Y-10600000D01*
X17640000Y-10560000D02*
X17600000Y-10600000D01*
X17600000Y-12150000D02*
X17640000Y-12190000D01*
X17640000Y-12150000D02*
X17600000Y-12190000D01*
X17600000Y-12335000D02*
X17640000Y-12375000D01*
X17640000Y-12335000D02*
X17600000Y-12375000D01*
X17600000Y-12515000D02*
X17640000Y-12555000D01*
X17640000Y-12515000D02*
X17600000Y-12555000D01*
X17600000Y-14115000D02*
X17640000Y-14155000D01*
X17640000Y-14115000D02*
X17600000Y-14155000D01*
X17675000Y-7150000D02*
X17715000Y-7190000D01*
X17715000Y-7150000D02*
X17675000Y-7190000D01*
X17675000Y-7570000D02*
X17715000Y-7610000D01*
X17715000Y-7570000D02*
X17675000Y-7610000D01*
X17675000Y-9100000D02*
X17715000Y-9140000D01*
X17715000Y-9100000D02*
X17675000Y-9140000D01*
X17675000Y-9520000D02*
X17715000Y-9560000D01*
X17715000Y-9520000D02*
X17675000Y-9560000D01*
X17675000Y-11055000D02*
X17715000Y-11095000D01*
X17715000Y-11055000D02*
X17675000Y-11095000D01*
X17675000Y-11475000D02*
X17715000Y-11515000D01*
X17715000Y-11475000D02*
X17675000Y-11515000D01*
X17675000Y-13000000D02*
X17715000Y-13040000D01*
X17715000Y-13000000D02*
X17675000Y-13040000D01*
X17675000Y-13420000D02*
X17715000Y-13460000D01*
X17715000Y-13420000D02*
X17675000Y-13460000D01*
X17810000Y-5510000D02*
X17850000Y-5550000D01*
X17850000Y-5510000D02*
X17810000Y-5550000D01*
X17812000Y-5773000D02*
X17852000Y-5813000D01*
X17852000Y-5773000D02*
X17812000Y-5813000D01*
X17815000Y-15196270D02*
X17855000Y-15236270D01*
X17855000Y-15196270D02*
X17815000Y-15236270D01*
X17815001Y-14969999D02*
X17855001Y-15009999D01*
X17855001Y-14969999D02*
X17815001Y-15009999D01*
X17925000Y-14215000D02*
X17965000Y-14255000D01*
X17965000Y-14215000D02*
X17925000Y-14255000D01*
X17925000Y-14697450D02*
X17965000Y-14737450D01*
X17965000Y-14697450D02*
X17925000Y-14737450D01*
X18240000Y-5515000D02*
X18280000Y-5555000D01*
X18280000Y-5515000D02*
X18240000Y-5555000D01*
X18280000Y-5890000D02*
X18320000Y-5930000D01*
X18320000Y-5890000D02*
X18280000Y-5930000D01*
X18375000Y-8555000D02*
X18415000Y-8595000D01*
X18415000Y-8555000D02*
X18375000Y-8595000D01*
X18400000Y-15300000D02*
X18440000Y-15340000D01*
X18440000Y-15300000D02*
X18400000Y-15340000D01*
X18410000Y-6270000D02*
X18450000Y-6310000D01*
X18450000Y-6270000D02*
X18410000Y-6310000D01*
X18495000Y-14220000D02*
X18535000Y-14260000D01*
X18535000Y-14220000D02*
X18495000Y-14260000D01*
X18510000Y-13735000D02*
X18550000Y-13775000D01*
X18550000Y-13735000D02*
X18510000Y-13775000D01*
X18520000Y-13585000D02*
X18560000Y-13625000D01*
X18560000Y-13585000D02*
X18520000Y-13625000D01*
X18570000Y-14125000D02*
X18610000Y-14165000D01*
X18610000Y-14125000D02*
X18570000Y-14165000D01*
X18580000Y-5675000D02*
X18620000Y-5715000D01*
X18620000Y-5675000D02*
X18580000Y-5715000D01*
X18665000Y-14035000D02*
X18705000Y-14075000D01*
X18705000Y-14035000D02*
X18665000Y-14075000D01*
X18675000Y-15070000D02*
X18715000Y-15110000D01*
X18715000Y-15070000D02*
X18675000Y-15110000D01*
X18685000Y-13745000D02*
X18725000Y-13785000D01*
X18725000Y-13745000D02*
X18685000Y-13785000D01*
X18695000Y-8150000D02*
X18735000Y-8190000D01*
X18735000Y-8150000D02*
X18695000Y-8190000D01*
X18695000Y-9470000D02*
X18735000Y-9510000D01*
X18735000Y-9470000D02*
X18695000Y-9510000D01*
X18740000Y-14262550D02*
X18780000Y-14302550D01*
X18780000Y-14262550D02*
X18740000Y-14302550D01*
X18750000Y-11675000D02*
X18790000Y-11715000D01*
X18790000Y-11675000D02*
X18750000Y-11715000D01*
X18775000Y-5805000D02*
X18815000Y-5845000D01*
X18815000Y-5805000D02*
X18775000Y-5845000D01*
X18800000Y-6740000D02*
X18840000Y-6780000D01*
X18840000Y-6740000D02*
X18800000Y-6780000D01*
X18810000Y-13050000D02*
X18850000Y-13090000D01*
X18850000Y-13050000D02*
X18810000Y-13090000D01*
X18815000Y-13175000D02*
X18855000Y-13215000D01*
X18855000Y-13175000D02*
X18815000Y-13215000D01*
X18850000Y-6125000D02*
X18890000Y-6165000D01*
X18890000Y-6125000D02*
X18850000Y-6165000D01*
X18905000Y-6910000D02*
X18945000Y-6950000D01*
X18945000Y-6910000D02*
X18905000Y-6950000D01*
X18925000Y-5507450D02*
X18965000Y-5547450D01*
X18965000Y-5507450D02*
X18925000Y-5547450D01*
X18925000Y-15300000D02*
X18965000Y-15340000D01*
X18965000Y-15300000D02*
X18925000Y-15340000D01*
X18975000Y-7105000D02*
X19015000Y-7145000D01*
X19015000Y-7105000D02*
X18975000Y-7145000D01*
X19005000Y-6670000D02*
X19045000Y-6710000D01*
X19045000Y-6670000D02*
X19005000Y-6710000D01*
X19025000Y-5995000D02*
X19065000Y-6035000D01*
X19065000Y-5995000D02*
X19025000Y-6035000D01*
X19129906Y-6165044D02*
X19169906Y-6205044D01*
X19169906Y-6165044D02*
X19129906Y-6205044D01*
X19150000Y-11675000D02*
X19190000Y-11715000D01*
X19190000Y-11675000D02*
X19150000Y-11715000D01*
X19153717Y-13581527D02*
X19193717Y-13621527D01*
X19193717Y-13581527D02*
X19153717Y-13621527D01*
X19170000Y-14485000D02*
X19210000Y-14525000D01*
X19210000Y-14485000D02*
X19170000Y-14525000D01*
X19173007Y-6585000D02*
X19213007Y-6625000D01*
X19213007Y-6585000D02*
X19173007Y-6625000D01*
X19175000Y-15075000D02*
X19215000Y-15115000D01*
X19215000Y-15075000D02*
X19175000Y-15115000D01*
X19245000Y-13825000D02*
X19285000Y-13865000D01*
X19285000Y-13825000D02*
X19245000Y-13865000D01*
X19255000Y-11915000D02*
X19295000Y-11955000D01*
X19295000Y-11915000D02*
X19255000Y-11955000D01*
X19270000Y-5675000D02*
X19310000Y-5715000D01*
X19310000Y-5675000D02*
X19270000Y-5715000D01*
X19320000Y-14315000D02*
X19360000Y-14355000D01*
X19360000Y-14315000D02*
X19320000Y-14355000D01*
X19320000Y-14430000D02*
X19360000Y-14470000D01*
X19360000Y-14430000D02*
X19320000Y-14470000D01*
X19325000Y-14110000D02*
X19365000Y-14150000D01*
X19365000Y-14110000D02*
X19325000Y-14150000D01*
X19340000Y-13460000D02*
X19380000Y-13500000D01*
X19380000Y-13460000D02*
X19340000Y-13500000D01*
X19425000Y-15300000D02*
X19465000Y-15340000D01*
X19465000Y-15300000D02*
X19425000Y-15340000D01*
X19427550Y-14195000D02*
X19467550Y-14235000D01*
X19467550Y-14195000D02*
X19427550Y-14235000D01*
X19440000Y-6270000D02*
X19480000Y-6310000D01*
X19480000Y-6270000D02*
X19440000Y-6310000D01*
X19530000Y-8810000D02*
X19570000Y-8850000D01*
X19570000Y-8810000D02*
X19530000Y-8850000D01*
X19640000Y-12160000D02*
X19680000Y-12200000D01*
X19680000Y-12160000D02*
X19640000Y-12200000D01*
X19640000Y-12560000D02*
X19680000Y-12600000D01*
X19680000Y-12560000D02*
X19640000Y-12600000D01*
X19675000Y-15075000D02*
X19715000Y-15115000D01*
X19715000Y-15075000D02*
X19675000Y-15115000D01*
X19745000Y-6320000D02*
X19785000Y-6360000D01*
X19785000Y-6320000D02*
X19745000Y-6360000D01*
X19950000Y-15300000D02*
X19990000Y-15340000D01*
X19990000Y-15300000D02*
X19950000Y-15340000D01*
D13*
X18521000Y-5696000D02*
G75*
G03*
X18521000Y-5696000I-25000J0D01*
G01*
D11*
X18511000Y-5726000D02*
X18511000Y-5666000D01*
X18481000Y-5726000D02*
X18481000Y-5666000D01*
X18511000Y-5666000D02*
G75*
G03*
X18481000Y-5666000I-15000J0D01*
G01*
X18481000Y-5726000D02*
G75*
G03*
X18511000Y-5726000I15000J0D01*
G01*
D13*
X18557000Y-6291000D02*
G75*
G03*
X18557000Y-6291000I-25000J0D01*
G01*
D11*
X18547000Y-6321000D02*
X18547000Y-6261000D01*
X18517000Y-6321000D02*
X18517000Y-6261000D01*
X18547000Y-6261000D02*
G75*
G03*
X18517000Y-6261000I-15000J0D01*
G01*
X18517000Y-6321000D02*
G75*
G03*
X18547000Y-6321000I15000J0D01*
G01*
D13*
X19383000Y-6291000D02*
G75*
G03*
X19383000Y-6291000I-25000J0D01*
G01*
D11*
X19373000Y-6321000D02*
X19373000Y-6261000D01*
X19343000Y-6321000D02*
X19343000Y-6261000D01*
X19373000Y-6261000D02*
G75*
G03*
X19343000Y-6261000I-15000J0D01*
G01*
X19343000Y-6321000D02*
G75*
G03*
X19373000Y-6321000I15000J0D01*
G01*
D13*
X19419000Y-5696000D02*
G75*
G03*
X19419000Y-5696000I-25000J0D01*
G01*
D11*
X19409000Y-5726000D02*
X19409000Y-5666000D01*
X19379000Y-5726000D02*
X19379000Y-5666000D01*
X19409000Y-5666000D02*
G75*
G03*
X19379000Y-5666000I-15000J0D01*
G01*
X19379000Y-5726000D02*
G75*
G03*
X19409000Y-5726000I15000J0D01*
G01*
D14*
X18773175Y-11435000D02*
X18773175Y-11525000D01*
X18728175Y-11480000D02*
X18818175Y-11480000D01*
X18973175Y-11435000D02*
X18973175Y-11525000D01*
X18928175Y-11480000D02*
X19018175Y-11480000D01*
X19173175Y-11435000D02*
X19173175Y-11525000D01*
X19128175Y-11480000D02*
X19218175Y-11480000D01*
X19873175Y-12135000D02*
X19873175Y-12225000D01*
X19828175Y-12180000D02*
X19918175Y-12180000D01*
X19873175Y-12335000D02*
X19873175Y-12425000D01*
X19828175Y-12380000D02*
X19918175Y-12380000D01*
X19873175Y-12535000D02*
X19873175Y-12625000D01*
X19828175Y-12580000D02*
X19918175Y-12580000D01*
D15*
X10018356Y-10302356D02*
X10018356Y-10231644D01*
X9947644Y-10231644D01*
X9947644Y-10302356D01*
X10018356Y-10302356D01*
X10018356Y-10556356D02*
X10018356Y-10485644D01*
X9947644Y-10485644D01*
X9947644Y-10556356D01*
X10018356Y-10556356D01*
X10018356Y-10810356D02*
X10018356Y-10739644D01*
X9947644Y-10739644D01*
X9947644Y-10810356D01*
X10018356Y-10810356D01*
X10018356Y-11064356D02*
X10018356Y-10993644D01*
X9947644Y-10993644D01*
X9947644Y-11064356D01*
X10018356Y-11064356D01*
X10018356Y-11318356D02*
X10018356Y-11247644D01*
X9947644Y-11247644D01*
X9947644Y-11318356D01*
X10018356Y-11318356D01*
X10018356Y-11572356D02*
X10018356Y-11501644D01*
X9947644Y-11501644D01*
X9947644Y-11572356D01*
X10018356Y-11572356D01*
X10018356Y-11826356D02*
X10018356Y-11755644D01*
X9947644Y-11755644D01*
X9947644Y-11826356D01*
X10018356Y-11826356D01*
X10018356Y-12080356D02*
X10018356Y-12009644D01*
X9947644Y-12009644D01*
X9947644Y-12080356D01*
X10018356Y-12080356D01*
X10018356Y-12334356D02*
X10018356Y-12263644D01*
X9947644Y-12263644D01*
X9947644Y-12334356D01*
X10018356Y-12334356D01*
X10018356Y-12588356D02*
X10018356Y-12517644D01*
X9947644Y-12517644D01*
X9947644Y-12588356D01*
X10018356Y-12588356D01*
X10018356Y-12842356D02*
X10018356Y-12771644D01*
X9947644Y-12771644D01*
X9947644Y-12842356D01*
X10018356Y-12842356D01*
X10018356Y-13096356D02*
X10018356Y-13025644D01*
X9947644Y-13025644D01*
X9947644Y-13096356D01*
X10018356Y-13096356D01*
X10018356Y-13350356D02*
X10018356Y-13279644D01*
X9947644Y-13279644D01*
X9947644Y-13350356D01*
X10018356Y-13350356D01*
X10018356Y-13604356D02*
X10018356Y-13533644D01*
X9947644Y-13533644D01*
X9947644Y-13604356D01*
X10018356Y-13604356D01*
X10018356Y-13858356D02*
X10018356Y-13787644D01*
X9947644Y-13787644D01*
X9947644Y-13858356D01*
X10018356Y-13858356D01*
X10018356Y-14112356D02*
X10018356Y-14041644D01*
X9947644Y-14041644D01*
X9947644Y-14112356D01*
X10018356Y-14112356D01*
X10018356Y-14366356D02*
X10018356Y-14295644D01*
X9947644Y-14295644D01*
X9947644Y-14366356D01*
X10018356Y-14366356D01*
X10018356Y-14620356D02*
X10018356Y-14549644D01*
X9947644Y-14549644D01*
X9947644Y-14620356D01*
X10018356Y-14620356D01*
X10018356Y-14874356D02*
X10018356Y-14803644D01*
X9947644Y-14803644D01*
X9947644Y-14874356D01*
X10018356Y-14874356D01*
X10018356Y-15128356D02*
X10018356Y-15057644D01*
X9947644Y-15057644D01*
X9947644Y-15128356D01*
X10018356Y-15128356D01*
X10164356Y-5828356D02*
X10164356Y-5757644D01*
X10093644Y-5757644D01*
X10093644Y-5828356D01*
X10164356Y-5828356D01*
X10418356Y-5828356D02*
X10418356Y-5757644D01*
X10347644Y-5757644D01*
X10347644Y-5828356D01*
X10418356Y-5828356D01*
X10672356Y-5828356D02*
X10672356Y-5757644D01*
X10601644Y-5757644D01*
X10601644Y-5828356D01*
X10672356Y-5828356D01*
X10926356Y-5828356D02*
X10926356Y-5757644D01*
X10855644Y-5757644D01*
X10855644Y-5828356D01*
X10926356Y-5828356D01*
X11542356Y-10302356D02*
X11542356Y-10231644D01*
X11471644Y-10231644D01*
X11471644Y-10302356D01*
X11542356Y-10302356D01*
X11542356Y-10556356D02*
X11542356Y-10485644D01*
X11471644Y-10485644D01*
X11471644Y-10556356D01*
X11542356Y-10556356D01*
X11542356Y-10810356D02*
X11542356Y-10739644D01*
X11471644Y-10739644D01*
X11471644Y-10810356D01*
X11542356Y-10810356D01*
X11542356Y-11064356D02*
X11542356Y-10993644D01*
X11471644Y-10993644D01*
X11471644Y-11064356D01*
X11542356Y-11064356D01*
X11542356Y-11318356D02*
X11542356Y-11247644D01*
X11471644Y-11247644D01*
X11471644Y-11318356D01*
X11542356Y-11318356D01*
X11542356Y-11572356D02*
X11542356Y-11501644D01*
X11471644Y-11501644D01*
X11471644Y-11572356D01*
X11542356Y-11572356D01*
X11542356Y-11826356D02*
X11542356Y-11755644D01*
X11471644Y-11755644D01*
X11471644Y-11826356D01*
X11542356Y-11826356D01*
X11542356Y-12080356D02*
X11542356Y-12009644D01*
X11471644Y-12009644D01*
X11471644Y-12080356D01*
X11542356Y-12080356D01*
X11542356Y-12334356D02*
X11542356Y-12263644D01*
X11471644Y-12263644D01*
X11471644Y-12334356D01*
X11542356Y-12334356D01*
X11542356Y-12588356D02*
X11542356Y-12517644D01*
X11471644Y-12517644D01*
X11471644Y-12588356D01*
X11542356Y-12588356D01*
X11542356Y-12842356D02*
X11542356Y-12771644D01*
X11471644Y-12771644D01*
X11471644Y-12842356D01*
X11542356Y-12842356D01*
X11542356Y-13096356D02*
X11542356Y-13025644D01*
X11471644Y-13025644D01*
X11471644Y-13096356D01*
X11542356Y-13096356D01*
X11542356Y-13350356D02*
X11542356Y-13279644D01*
X11471644Y-13279644D01*
X11471644Y-13350356D01*
X11542356Y-13350356D01*
X11542356Y-13604356D02*
X11542356Y-13533644D01*
X11471644Y-13533644D01*
X11471644Y-13604356D01*
X11542356Y-13604356D01*
X11542356Y-13858356D02*
X11542356Y-13787644D01*
X11471644Y-13787644D01*
X11471644Y-13858356D01*
X11542356Y-13858356D01*
X11542356Y-14112356D02*
X11542356Y-14041644D01*
X11471644Y-14041644D01*
X11471644Y-14112356D01*
X11542356Y-14112356D01*
X11542356Y-14366356D02*
X11542356Y-14295644D01*
X11471644Y-14295644D01*
X11471644Y-14366356D01*
X11542356Y-14366356D01*
X11542356Y-14620356D02*
X11542356Y-14549644D01*
X11471644Y-14549644D01*
X11471644Y-14620356D01*
X11542356Y-14620356D01*
X11542356Y-14874356D02*
X11542356Y-14803644D01*
X11471644Y-14803644D01*
X11471644Y-14874356D01*
X11542356Y-14874356D01*
X11542356Y-15128356D02*
X11542356Y-15057644D01*
X11471644Y-15057644D01*
X11471644Y-15128356D01*
X11542356Y-15128356D01*
D16*
X9796500Y-8926800D02*
X9847300Y-8876000D01*
X9796500Y-8825200D01*
X9745700Y-8876000D01*
X9796500Y-8926800D01*
X9796500Y-9434800D02*
X9847300Y-9384000D01*
X9796500Y-9333200D01*
X9745700Y-9384000D01*
X9796500Y-9434800D01*
X11244300Y-8926800D02*
X11295100Y-8876000D01*
X11244300Y-8825200D01*
X11193500Y-8876000D01*
X11244300Y-8926800D01*
X11244300Y-9180800D02*
X11295100Y-9130000D01*
X11244300Y-9079200D01*
X11193500Y-9130000D01*
X11244300Y-9180800D01*
X11244300Y-9434800D02*
X11295100Y-9384000D01*
X11244300Y-9333200D01*
X11193500Y-9384000D01*
X11244300Y-9434800D01*
X18246500Y-8626800D02*
X18297300Y-8576000D01*
X18246500Y-8525200D01*
X18195700Y-8576000D01*
X18246500Y-8626800D01*
X18246500Y-9134800D02*
X18297300Y-9084000D01*
X18246500Y-9033200D01*
X18195700Y-9084000D01*
X18246500Y-9134800D01*
X19694300Y-8626800D02*
X19745100Y-8576000D01*
X19694300Y-8525200D01*
X19643500Y-8576000D01*
X19694300Y-8626800D01*
X19694300Y-8880800D02*
X19745100Y-8830000D01*
X19694300Y-8779200D01*
X19643500Y-8830000D01*
X19694300Y-8880800D01*
X19694300Y-9134800D02*
X19745100Y-9084000D01*
X19694300Y-9033200D01*
X19643500Y-9084000D01*
X19694300Y-9134800D01*
D11*
X12414000Y-6226000D02*
X12614000Y-6426000D01*
X12614000Y-6226000D02*
X12414000Y-6426000D01*
X12614000Y-6326000D02*
G75*
G03*
X12614000Y-6326000I-100000J0D01*
G01*
X12414000Y-8176000D02*
X12614000Y-8376000D01*
X12614000Y-8176000D02*
X12414000Y-8376000D01*
X12614000Y-8276000D02*
G75*
G03*
X12614000Y-8276000I-100000J0D01*
G01*
X12414000Y-10134000D02*
X12614000Y-10334000D01*
X12614000Y-10134000D02*
X12414000Y-10334000D01*
X12614000Y-10234000D02*
G75*
G03*
X12614000Y-10234000I-100000J0D01*
G01*
X12414000Y-12076000D02*
X12614000Y-12276000D01*
X12614000Y-12076000D02*
X12414000Y-12276000D01*
X12614000Y-12176000D02*
G75*
G03*
X12614000Y-12176000I-100000J0D01*
G01*
X12414000Y-14034000D02*
X12614000Y-14234000D01*
X12614000Y-14034000D02*
X12414000Y-14234000D01*
X12614000Y-14134000D02*
G75*
G03*
X12614000Y-14134000I-100000J0D01*
G01*
X13049000Y-5972000D02*
X13249000Y-6172000D01*
X13249000Y-5972000D02*
X13049000Y-6172000D01*
X13249000Y-6072000D02*
G75*
G03*
X13249000Y-6072000I-100000J0D01*
G01*
X13049000Y-7922000D02*
X13249000Y-8122000D01*
X13249000Y-7922000D02*
X13049000Y-8122000D01*
X13249000Y-8022000D02*
G75*
G03*
X13249000Y-8022000I-100000J0D01*
G01*
X13049000Y-9880000D02*
X13249000Y-10080000D01*
X13249000Y-9880000D02*
X13049000Y-10080000D01*
X13249000Y-9980000D02*
G75*
G03*
X13249000Y-9980000I-100000J0D01*
G01*
X13049000Y-11822000D02*
X13249000Y-12022000D01*
X13249000Y-11822000D02*
X13049000Y-12022000D01*
X13249000Y-11922000D02*
G75*
G03*
X13249000Y-11922000I-100000J0D01*
G01*
X13049000Y-13780000D02*
X13249000Y-13980000D01*
X13249000Y-13780000D02*
X13049000Y-13980000D01*
X13249000Y-13880000D02*
G75*
G03*
X13249000Y-13880000I-100000J0D01*
G01*
X14364000Y-6226000D02*
X14564000Y-6426000D01*
X14564000Y-6226000D02*
X14364000Y-6426000D01*
X14564000Y-6326000D02*
G75*
G03*
X14564000Y-6326000I-100000J0D01*
G01*
X14364000Y-8176000D02*
X14564000Y-8376000D01*
X14564000Y-8176000D02*
X14364000Y-8376000D01*
X14564000Y-8276000D02*
G75*
G03*
X14564000Y-8276000I-100000J0D01*
G01*
X14364000Y-10134000D02*
X14564000Y-10334000D01*
X14564000Y-10134000D02*
X14364000Y-10334000D01*
X14564000Y-10234000D02*
G75*
G03*
X14564000Y-10234000I-100000J0D01*
G01*
X14364000Y-12076000D02*
X14564000Y-12276000D01*
X14564000Y-12076000D02*
X14364000Y-12276000D01*
X14564000Y-12176000D02*
G75*
G03*
X14564000Y-12176000I-100000J0D01*
G01*
X14364000Y-14034000D02*
X14564000Y-14234000D01*
X14564000Y-14034000D02*
X14364000Y-14234000D01*
X14564000Y-14134000D02*
G75*
G03*
X14564000Y-14134000I-100000J0D01*
G01*
X14999000Y-5972000D02*
X15199000Y-6172000D01*
X15199000Y-5972000D02*
X14999000Y-6172000D01*
X15199000Y-6072000D02*
G75*
G03*
X15199000Y-6072000I-100000J0D01*
G01*
X14999000Y-7922000D02*
X15199000Y-8122000D01*
X15199000Y-7922000D02*
X14999000Y-8122000D01*
X15199000Y-8022000D02*
G75*
G03*
X15199000Y-8022000I-100000J0D01*
G01*
X14999000Y-9880000D02*
X15199000Y-10080000D01*
X15199000Y-9880000D02*
X14999000Y-10080000D01*
X15199000Y-9980000D02*
G75*
G03*
X15199000Y-9980000I-100000J0D01*
G01*
X14999000Y-11822000D02*
X15199000Y-12022000D01*
X15199000Y-11822000D02*
X14999000Y-12022000D01*
X15199000Y-11922000D02*
G75*
G03*
X15199000Y-11922000I-100000J0D01*
G01*
X14999000Y-13780000D02*
X15199000Y-13980000D01*
X15199000Y-13780000D02*
X14999000Y-13980000D01*
X15199000Y-13880000D02*
G75*
G03*
X15199000Y-13880000I-100000J0D01*
G01*
X16314000Y-6226000D02*
X16514000Y-6426000D01*
X16514000Y-6226000D02*
X16314000Y-6426000D01*
X16514000Y-6326000D02*
G75*
G03*
X16514000Y-6326000I-100000J0D01*
G01*
X16314000Y-8176000D02*
X16514000Y-8376000D01*
X16514000Y-8176000D02*
X16314000Y-8376000D01*
X16514000Y-8276000D02*
G75*
G03*
X16514000Y-8276000I-100000J0D01*
G01*
X16314000Y-10134000D02*
X16514000Y-10334000D01*
X16514000Y-10134000D02*
X16314000Y-10334000D01*
X16514000Y-10234000D02*
G75*
G03*
X16514000Y-10234000I-100000J0D01*
G01*
X16314000Y-12076000D02*
X16514000Y-12276000D01*
X16514000Y-12076000D02*
X16314000Y-12276000D01*
X16514000Y-12176000D02*
G75*
G03*
X16514000Y-12176000I-100000J0D01*
G01*
X16314000Y-14034000D02*
X16514000Y-14234000D01*
X16514000Y-14034000D02*
X16314000Y-14234000D01*
X16514000Y-14134000D02*
G75*
G03*
X16514000Y-14134000I-100000J0D01*
G01*
X16949000Y-5972000D02*
X17149000Y-6172000D01*
X17149000Y-5972000D02*
X16949000Y-6172000D01*
X17149000Y-6072000D02*
G75*
G03*
X17149000Y-6072000I-100000J0D01*
G01*
X16949000Y-7922000D02*
X17149000Y-8122000D01*
X17149000Y-7922000D02*
X16949000Y-8122000D01*
X17149000Y-8022000D02*
G75*
G03*
X17149000Y-8022000I-100000J0D01*
G01*
X16949000Y-9880000D02*
X17149000Y-10080000D01*
X17149000Y-9880000D02*
X16949000Y-10080000D01*
X17149000Y-9980000D02*
G75*
G03*
X17149000Y-9980000I-100000J0D01*
G01*
X16949000Y-11822000D02*
X17149000Y-12022000D01*
X17149000Y-11822000D02*
X16949000Y-12022000D01*
X17149000Y-11922000D02*
G75*
G03*
X17149000Y-11922000I-100000J0D01*
G01*
X16949000Y-13780000D02*
X17149000Y-13980000D01*
X17149000Y-13780000D02*
X16949000Y-13980000D01*
X17149000Y-13880000D02*
G75*
G03*
X17149000Y-13880000I-100000J0D01*
G01*
D17*
X9190000Y-5435000D02*
X9410000Y-5655000D01*
X9410000Y-5435000D02*
X9190000Y-5655000D01*
X9300000Y-5435000D02*
X9300000Y-5655000D01*
X9190000Y-5545000D02*
X9410000Y-5545000D01*
X10625000Y-14925000D02*
X10845000Y-15145000D01*
X10845000Y-14925000D02*
X10625000Y-15145000D01*
X10735000Y-14925000D02*
X10735000Y-15145000D01*
X10625000Y-15035000D02*
X10845000Y-15035000D01*
X18595000Y-10605000D02*
X18815000Y-10825000D01*
X18815000Y-10605000D02*
X18595000Y-10825000D01*
X18705000Y-10605000D02*
X18705000Y-10825000D01*
X18595000Y-10715000D02*
X18815000Y-10715000D01*
X18655000Y-7600000D02*
X18875000Y-7820000D01*
X18875000Y-7600000D02*
X18655000Y-7820000D01*
X18765000Y-7600000D02*
X18765000Y-7820000D01*
X18655000Y-7710000D02*
X18875000Y-7710000D01*
D18*
X10380700Y-8355300D02*
X10609300Y-8583900D01*
X10609300Y-8355300D02*
X10380700Y-8583900D01*
X10575823Y-8550423D02*
X10575823Y-8388777D01*
X10414177Y-8388777D01*
X10414177Y-8550423D01*
X10575823Y-8550423D01*
X10380700Y-9676100D02*
X10609300Y-9904700D01*
X10609300Y-9676100D02*
X10380700Y-9904700D01*
X10575823Y-9871223D02*
X10575823Y-9709577D01*
X10414177Y-9709577D01*
X10414177Y-9871223D01*
X10575823Y-9871223D01*
X18830700Y-8055300D02*
X19059300Y-8283900D01*
X19059300Y-8055300D02*
X18830700Y-8283900D01*
X19025823Y-8250423D02*
X19025823Y-8088777D01*
X18864177Y-8088777D01*
X18864177Y-8250423D01*
X19025823Y-8250423D01*
X18830700Y-9376100D02*
X19059300Y-9604700D01*
X19059300Y-9376100D02*
X18830700Y-9604700D01*
X19025823Y-9571223D02*
X19025823Y-9409577D01*
X18864177Y-9409577D01*
X18864177Y-9571223D01*
X19025823Y-9571223D01*
D11*
X9393619Y-15703476D02*
X9393619Y-15503476D01*
X9441238Y-15503476D01*
X9469810Y-15513000D01*
X9488857Y-15532048D01*
X9498381Y-15551095D01*
X9507905Y-15589190D01*
X9507905Y-15617762D01*
X9498381Y-15655857D01*
X9488857Y-15674905D01*
X9469810Y-15693952D01*
X9441238Y-15703476D01*
X9393619Y-15703476D01*
X9593619Y-15703476D02*
X9593619Y-15570143D01*
X9593619Y-15608238D02*
X9603143Y-15589190D01*
X9612667Y-15579667D01*
X9631714Y-15570143D01*
X9650762Y-15570143D01*
X9717429Y-15703476D02*
X9717429Y-15570143D01*
X9717429Y-15503476D02*
X9707905Y-15513000D01*
X9717429Y-15522524D01*
X9726952Y-15513000D01*
X9717429Y-15503476D01*
X9717429Y-15522524D01*
X9841238Y-15703476D02*
X9822190Y-15693952D01*
X9812667Y-15674905D01*
X9812667Y-15503476D01*
X9946000Y-15703476D02*
X9926952Y-15693952D01*
X9917429Y-15674905D01*
X9917429Y-15503476D01*
X10174571Y-15703476D02*
X10174571Y-15503476D01*
X10241238Y-15646333D01*
X10307905Y-15503476D01*
X10307905Y-15703476D01*
X10488857Y-15703476D02*
X10488857Y-15598714D01*
X10479333Y-15579667D01*
X10460286Y-15570143D01*
X10422190Y-15570143D01*
X10403143Y-15579667D01*
X10488857Y-15693952D02*
X10469810Y-15703476D01*
X10422190Y-15703476D01*
X10403143Y-15693952D01*
X10393619Y-15674905D01*
X10393619Y-15655857D01*
X10403143Y-15636809D01*
X10422190Y-15627286D01*
X10469810Y-15627286D01*
X10488857Y-15617762D01*
X10584095Y-15570143D02*
X10584095Y-15770143D01*
X10584095Y-15579667D02*
X10603143Y-15570143D01*
X10641238Y-15570143D01*
X10660286Y-15579667D01*
X10669810Y-15589190D01*
X10679333Y-15608238D01*
X10679333Y-15665381D01*
X10669810Y-15684428D01*
X10660286Y-15693952D01*
X10641238Y-15703476D01*
X10603143Y-15703476D01*
X10584095Y-15693952D01*
X10765048Y-15684428D02*
X10774571Y-15693952D01*
X10765048Y-15703476D01*
X10755524Y-15693952D01*
X10765048Y-15684428D01*
X10765048Y-15703476D01*
X10765048Y-15579667D02*
X10774571Y-15589190D01*
X10765048Y-15598714D01*
X10755524Y-15589190D01*
X10765048Y-15579667D01*
X10765048Y-15598714D01*
D12*
X9096000Y-16013000D02*
X9136000Y-16053000D01*
X9136000Y-16013000D02*
X9096000Y-16053000D01*
D11*
X9431714Y-15923476D02*
X9450762Y-15923476D01*
X9469810Y-15933000D01*
X9479333Y-15942524D01*
X9488857Y-15961571D01*
X9498381Y-15999667D01*
X9498381Y-16047286D01*
X9488857Y-16085381D01*
X9479333Y-16104428D01*
X9469810Y-16113952D01*
X9450762Y-16123476D01*
X9431714Y-16123476D01*
X9412667Y-16113952D01*
X9403143Y-16104428D01*
X9393619Y-16085381D01*
X9384095Y-16047286D01*
X9384095Y-15999667D01*
X9393619Y-15961571D01*
X9403143Y-15942524D01*
X9412667Y-15933000D01*
X9431714Y-15923476D01*
X9584095Y-16104428D02*
X9593619Y-16113952D01*
X9584095Y-16123476D01*
X9574571Y-16113952D01*
X9584095Y-16104428D01*
X9584095Y-16123476D01*
X9765048Y-15990143D02*
X9765048Y-16123476D01*
X9717429Y-15913952D02*
X9669810Y-16056809D01*
X9793619Y-16056809D01*
X9907905Y-15923476D02*
X9926952Y-15923476D01*
X9946000Y-15933000D01*
X9955524Y-15942524D01*
X9965048Y-15961571D01*
X9974571Y-15999667D01*
X9974571Y-16047286D01*
X9965048Y-16085381D01*
X9955524Y-16104428D01*
X9946000Y-16113952D01*
X9926952Y-16123476D01*
X9907905Y-16123476D01*
X9888857Y-16113952D01*
X9879333Y-16104428D01*
X9869810Y-16085381D01*
X9860286Y-16047286D01*
X9860286Y-15999667D01*
X9869810Y-15961571D01*
X9879333Y-15942524D01*
X9888857Y-15933000D01*
X9907905Y-15923476D01*
X10098381Y-15923476D02*
X10117429Y-15923476D01*
X10136476Y-15933000D01*
X10146000Y-15942524D01*
X10155524Y-15961571D01*
X10165048Y-15999667D01*
X10165048Y-16047286D01*
X10155524Y-16085381D01*
X10146000Y-16104428D01*
X10136476Y-16113952D01*
X10117429Y-16123476D01*
X10098381Y-16123476D01*
X10079333Y-16113952D01*
X10069810Y-16104428D01*
X10060286Y-16085381D01*
X10050762Y-16047286D01*
X10050762Y-15999667D01*
X10060286Y-15961571D01*
X10069810Y-15942524D01*
X10079333Y-15933000D01*
X10098381Y-15923476D01*
X10250762Y-16123476D02*
X10250762Y-15990143D01*
X10250762Y-16009190D02*
X10260286Y-15999667D01*
X10279333Y-15990143D01*
X10307905Y-15990143D01*
X10326952Y-15999667D01*
X10336476Y-16018714D01*
X10336476Y-16123476D01*
X10336476Y-16018714D02*
X10346000Y-15999667D01*
X10365048Y-15990143D01*
X10393619Y-15990143D01*
X10412667Y-15999667D01*
X10422190Y-16018714D01*
X10422190Y-16123476D01*
X10517429Y-16123476D02*
X10517429Y-15990143D01*
X10517429Y-16009190D02*
X10526952Y-15999667D01*
X10546000Y-15990143D01*
X10574571Y-15990143D01*
X10593619Y-15999667D01*
X10603143Y-16018714D01*
X10603143Y-16123476D01*
X10603143Y-16018714D02*
X10612667Y-15999667D01*
X10631714Y-15990143D01*
X10660286Y-15990143D01*
X10679333Y-15999667D01*
X10688857Y-16018714D01*
X10688857Y-16123476D01*
X11079333Y-15913952D02*
X10907905Y-16171095D01*
X11336476Y-15923476D02*
X11355524Y-15923476D01*
X11374571Y-15933000D01*
X11384095Y-15942524D01*
X11393619Y-15961571D01*
X11403143Y-15999667D01*
X11403143Y-16047286D01*
X11393619Y-16085381D01*
X11384095Y-16104428D01*
X11374571Y-16113952D01*
X11355524Y-16123476D01*
X11336476Y-16123476D01*
X11317428Y-16113952D01*
X11307905Y-16104428D01*
X11298381Y-16085381D01*
X11288857Y-16047286D01*
X11288857Y-15999667D01*
X11298381Y-15961571D01*
X11307905Y-15942524D01*
X11317428Y-15933000D01*
X11336476Y-15923476D01*
X11488857Y-16104428D02*
X11498381Y-16113952D01*
X11488857Y-16123476D01*
X11479333Y-16113952D01*
X11488857Y-16104428D01*
X11488857Y-16123476D01*
X11622190Y-15923476D02*
X11641238Y-15923476D01*
X11660286Y-15933000D01*
X11669809Y-15942524D01*
X11679333Y-15961571D01*
X11688857Y-15999667D01*
X11688857Y-16047286D01*
X11679333Y-16085381D01*
X11669809Y-16104428D01*
X11660286Y-16113952D01*
X11641238Y-16123476D01*
X11622190Y-16123476D01*
X11603143Y-16113952D01*
X11593619Y-16104428D01*
X11584095Y-16085381D01*
X11574571Y-16047286D01*
X11574571Y-15999667D01*
X11584095Y-15961571D01*
X11593619Y-15942524D01*
X11603143Y-15933000D01*
X11622190Y-15923476D01*
X11879333Y-16123476D02*
X11765048Y-16123476D01*
X11822190Y-16123476D02*
X11822190Y-15923476D01*
X11803143Y-15952048D01*
X11784095Y-15971095D01*
X11765048Y-15980619D01*
X12060286Y-15923476D02*
X11965048Y-15923476D01*
X11955524Y-16018714D01*
X11965048Y-16009190D01*
X11984095Y-15999667D01*
X12031714Y-15999667D01*
X12050762Y-16009190D01*
X12060286Y-16018714D01*
X12069809Y-16037762D01*
X12069809Y-16085381D01*
X12060286Y-16104428D01*
X12050762Y-16113952D01*
X12031714Y-16123476D01*
X11984095Y-16123476D01*
X11965048Y-16113952D01*
X11955524Y-16104428D01*
X12136476Y-15923476D02*
X12269809Y-15923476D01*
X12184095Y-16123476D01*
X12336476Y-15923476D02*
X12336476Y-15961571D01*
X12412667Y-15923476D02*
X12412667Y-15961571D01*
X12707905Y-16199667D02*
X12698381Y-16190143D01*
X12679333Y-16161571D01*
X12669809Y-16142524D01*
X12660286Y-16113952D01*
X12650762Y-16066333D01*
X12650762Y-16028238D01*
X12660286Y-15980619D01*
X12669809Y-15952048D01*
X12679333Y-15933000D01*
X12698381Y-15904428D01*
X12707905Y-15894905D01*
X12888857Y-16123476D02*
X12774571Y-16123476D01*
X12831714Y-16123476D02*
X12831714Y-15923476D01*
X12812667Y-15952048D01*
X12793619Y-15971095D01*
X12774571Y-15980619D01*
X12955524Y-15923476D02*
X13079333Y-15923476D01*
X13012667Y-15999667D01*
X13041238Y-15999667D01*
X13060286Y-16009190D01*
X13069809Y-16018714D01*
X13079333Y-16037762D01*
X13079333Y-16085381D01*
X13069809Y-16104428D01*
X13060286Y-16113952D01*
X13041238Y-16123476D01*
X12984095Y-16123476D01*
X12965048Y-16113952D01*
X12955524Y-16104428D01*
X13269809Y-16123476D02*
X13155524Y-16123476D01*
X13212667Y-16123476D02*
X13212667Y-15923476D01*
X13193619Y-15952048D01*
X13174571Y-15971095D01*
X13155524Y-15980619D01*
X13507905Y-16123476D02*
X13507905Y-15923476D01*
X13593619Y-16123476D02*
X13593619Y-16018714D01*
X13584095Y-15999667D01*
X13565048Y-15990143D01*
X13536476Y-15990143D01*
X13517428Y-15999667D01*
X13507905Y-16009190D01*
X13717428Y-16123476D02*
X13698381Y-16113952D01*
X13688857Y-16104428D01*
X13679333Y-16085381D01*
X13679333Y-16028238D01*
X13688857Y-16009190D01*
X13698381Y-15999667D01*
X13717428Y-15990143D01*
X13746000Y-15990143D01*
X13765048Y-15999667D01*
X13774571Y-16009190D01*
X13784095Y-16028238D01*
X13784095Y-16085381D01*
X13774571Y-16104428D01*
X13765048Y-16113952D01*
X13746000Y-16123476D01*
X13717428Y-16123476D01*
X13898381Y-16123476D02*
X13879333Y-16113952D01*
X13869809Y-16094905D01*
X13869809Y-15923476D01*
X14050762Y-16113952D02*
X14031714Y-16123476D01*
X13993619Y-16123476D01*
X13974571Y-16113952D01*
X13965048Y-16094905D01*
X13965048Y-16018714D01*
X13974571Y-15999667D01*
X13993619Y-15990143D01*
X14031714Y-15990143D01*
X14050762Y-15999667D01*
X14060286Y-16018714D01*
X14060286Y-16037762D01*
X13965048Y-16056809D01*
X14136476Y-16113952D02*
X14155524Y-16123476D01*
X14193619Y-16123476D01*
X14212667Y-16113952D01*
X14222190Y-16094905D01*
X14222190Y-16085381D01*
X14212667Y-16066333D01*
X14193619Y-16056809D01*
X14165048Y-16056809D01*
X14146000Y-16047286D01*
X14136476Y-16028238D01*
X14136476Y-16018714D01*
X14146000Y-15999667D01*
X14165048Y-15990143D01*
X14193619Y-15990143D01*
X14212667Y-15999667D01*
X14288857Y-16199667D02*
X14298381Y-16190143D01*
X14317428Y-16161571D01*
X14326952Y-16142524D01*
X14336476Y-16113952D01*
X14346000Y-16066333D01*
X14346000Y-16028238D01*
X14336476Y-15980619D01*
X14326952Y-15952048D01*
X14317428Y-15933000D01*
X14298381Y-15904428D01*
X14288857Y-15894905D01*
D13*
X9136000Y-16297000D02*
G75*
G03*
X9136000Y-16297000I-25000J0D01*
G01*
D11*
X9431714Y-16187476D02*
X9450762Y-16187476D01*
X9469810Y-16197000D01*
X9479333Y-16206524D01*
X9488857Y-16225571D01*
X9498381Y-16263667D01*
X9498381Y-16311286D01*
X9488857Y-16349381D01*
X9479333Y-16368428D01*
X9469810Y-16377952D01*
X9450762Y-16387476D01*
X9431714Y-16387476D01*
X9412667Y-16377952D01*
X9403143Y-16368428D01*
X9393619Y-16349381D01*
X9384095Y-16311286D01*
X9384095Y-16263667D01*
X9393619Y-16225571D01*
X9403143Y-16206524D01*
X9412667Y-16197000D01*
X9431714Y-16187476D01*
X9584095Y-16368428D02*
X9593619Y-16377952D01*
X9584095Y-16387476D01*
X9574571Y-16377952D01*
X9584095Y-16368428D01*
X9584095Y-16387476D01*
X9774571Y-16187476D02*
X9679333Y-16187476D01*
X9669810Y-16282714D01*
X9679333Y-16273190D01*
X9698381Y-16263667D01*
X9746000Y-16263667D01*
X9765048Y-16273190D01*
X9774571Y-16282714D01*
X9784095Y-16301762D01*
X9784095Y-16349381D01*
X9774571Y-16368428D01*
X9765048Y-16377952D01*
X9746000Y-16387476D01*
X9698381Y-16387476D01*
X9679333Y-16377952D01*
X9669810Y-16368428D01*
X9907905Y-16187476D02*
X9926952Y-16187476D01*
X9946000Y-16197000D01*
X9955524Y-16206524D01*
X9965048Y-16225571D01*
X9974571Y-16263667D01*
X9974571Y-16311286D01*
X9965048Y-16349381D01*
X9955524Y-16368428D01*
X9946000Y-16377952D01*
X9926952Y-16387476D01*
X9907905Y-16387476D01*
X9888857Y-16377952D01*
X9879333Y-16368428D01*
X9869810Y-16349381D01*
X9860286Y-16311286D01*
X9860286Y-16263667D01*
X9869810Y-16225571D01*
X9879333Y-16206524D01*
X9888857Y-16197000D01*
X9907905Y-16187476D01*
X10098381Y-16187476D02*
X10117429Y-16187476D01*
X10136476Y-16197000D01*
X10146000Y-16206524D01*
X10155524Y-16225571D01*
X10165048Y-16263667D01*
X10165048Y-16311286D01*
X10155524Y-16349381D01*
X10146000Y-16368428D01*
X10136476Y-16377952D01*
X10117429Y-16387476D01*
X10098381Y-16387476D01*
X10079333Y-16377952D01*
X10069810Y-16368428D01*
X10060286Y-16349381D01*
X10050762Y-16311286D01*
X10050762Y-16263667D01*
X10060286Y-16225571D01*
X10069810Y-16206524D01*
X10079333Y-16197000D01*
X10098381Y-16187476D01*
X10250762Y-16387476D02*
X10250762Y-16254143D01*
X10250762Y-16273190D02*
X10260286Y-16263667D01*
X10279333Y-16254143D01*
X10307905Y-16254143D01*
X10326952Y-16263667D01*
X10336476Y-16282714D01*
X10336476Y-16387476D01*
X10336476Y-16282714D02*
X10346000Y-16263667D01*
X10365048Y-16254143D01*
X10393619Y-16254143D01*
X10412667Y-16263667D01*
X10422190Y-16282714D01*
X10422190Y-16387476D01*
X10517429Y-16387476D02*
X10517429Y-16254143D01*
X10517429Y-16273190D02*
X10526952Y-16263667D01*
X10546000Y-16254143D01*
X10574571Y-16254143D01*
X10593619Y-16263667D01*
X10603143Y-16282714D01*
X10603143Y-16387476D01*
X10603143Y-16282714D02*
X10612667Y-16263667D01*
X10631714Y-16254143D01*
X10660286Y-16254143D01*
X10679333Y-16263667D01*
X10688857Y-16282714D01*
X10688857Y-16387476D01*
X11079333Y-16177952D02*
X10907905Y-16435095D01*
X11336476Y-16187476D02*
X11355524Y-16187476D01*
X11374571Y-16197000D01*
X11384095Y-16206524D01*
X11393619Y-16225571D01*
X11403143Y-16263667D01*
X11403143Y-16311286D01*
X11393619Y-16349381D01*
X11384095Y-16368428D01*
X11374571Y-16377952D01*
X11355524Y-16387476D01*
X11336476Y-16387476D01*
X11317428Y-16377952D01*
X11307905Y-16368428D01*
X11298381Y-16349381D01*
X11288857Y-16311286D01*
X11288857Y-16263667D01*
X11298381Y-16225571D01*
X11307905Y-16206524D01*
X11317428Y-16197000D01*
X11336476Y-16187476D01*
X11488857Y-16368428D02*
X11498381Y-16377952D01*
X11488857Y-16387476D01*
X11479333Y-16377952D01*
X11488857Y-16368428D01*
X11488857Y-16387476D01*
X11622190Y-16187476D02*
X11641238Y-16187476D01*
X11660286Y-16197000D01*
X11669809Y-16206524D01*
X11679333Y-16225571D01*
X11688857Y-16263667D01*
X11688857Y-16311286D01*
X11679333Y-16349381D01*
X11669809Y-16368428D01*
X11660286Y-16377952D01*
X11641238Y-16387476D01*
X11622190Y-16387476D01*
X11603143Y-16377952D01*
X11593619Y-16368428D01*
X11584095Y-16349381D01*
X11574571Y-16311286D01*
X11574571Y-16263667D01*
X11584095Y-16225571D01*
X11593619Y-16206524D01*
X11603143Y-16197000D01*
X11622190Y-16187476D01*
X11879333Y-16387476D02*
X11765048Y-16387476D01*
X11822190Y-16387476D02*
X11822190Y-16187476D01*
X11803143Y-16216048D01*
X11784095Y-16235095D01*
X11765048Y-16244619D01*
X11974571Y-16387476D02*
X12012667Y-16387476D01*
X12031714Y-16377952D01*
X12041238Y-16368428D01*
X12060286Y-16339857D01*
X12069809Y-16301762D01*
X12069809Y-16225571D01*
X12060286Y-16206524D01*
X12050762Y-16197000D01*
X12031714Y-16187476D01*
X11993619Y-16187476D01*
X11974571Y-16197000D01*
X11965048Y-16206524D01*
X11955524Y-16225571D01*
X11955524Y-16273190D01*
X11965048Y-16292238D01*
X11974571Y-16301762D01*
X11993619Y-16311286D01*
X12031714Y-16311286D01*
X12050762Y-16301762D01*
X12060286Y-16292238D01*
X12069809Y-16273190D01*
X12136476Y-16187476D02*
X12269809Y-16187476D01*
X12184095Y-16387476D01*
X12336476Y-16187476D02*
X12336476Y-16225571D01*
X12412667Y-16187476D02*
X12412667Y-16225571D01*
X12707905Y-16463667D02*
X12698381Y-16454143D01*
X12679333Y-16425571D01*
X12669809Y-16406524D01*
X12660286Y-16377952D01*
X12650762Y-16330333D01*
X12650762Y-16292238D01*
X12660286Y-16244619D01*
X12669809Y-16216048D01*
X12679333Y-16197000D01*
X12698381Y-16168428D01*
X12707905Y-16158905D01*
X12822190Y-16187476D02*
X12841238Y-16187476D01*
X12860286Y-16197000D01*
X12869809Y-16206524D01*
X12879333Y-16225571D01*
X12888857Y-16263667D01*
X12888857Y-16311286D01*
X12879333Y-16349381D01*
X12869809Y-16368428D01*
X12860286Y-16377952D01*
X12841238Y-16387476D01*
X12822190Y-16387476D01*
X12803143Y-16377952D01*
X12793619Y-16368428D01*
X12784095Y-16349381D01*
X12774571Y-16311286D01*
X12774571Y-16263667D01*
X12784095Y-16225571D01*
X12793619Y-16206524D01*
X12803143Y-16197000D01*
X12822190Y-16187476D01*
X13126952Y-16387476D02*
X13126952Y-16187476D01*
X13212667Y-16387476D02*
X13212667Y-16282714D01*
X13203143Y-16263667D01*
X13184095Y-16254143D01*
X13155524Y-16254143D01*
X13136476Y-16263667D01*
X13126952Y-16273190D01*
X13336476Y-16387476D02*
X13317428Y-16377952D01*
X13307905Y-16368428D01*
X13298381Y-16349381D01*
X13298381Y-16292238D01*
X13307905Y-16273190D01*
X13317428Y-16263667D01*
X13336476Y-16254143D01*
X13365048Y-16254143D01*
X13384095Y-16263667D01*
X13393619Y-16273190D01*
X13403143Y-16292238D01*
X13403143Y-16349381D01*
X13393619Y-16368428D01*
X13384095Y-16377952D01*
X13365048Y-16387476D01*
X13336476Y-16387476D01*
X13517428Y-16387476D02*
X13498381Y-16377952D01*
X13488857Y-16358905D01*
X13488857Y-16187476D01*
X13669809Y-16377952D02*
X13650762Y-16387476D01*
X13612667Y-16387476D01*
X13593619Y-16377952D01*
X13584095Y-16358905D01*
X13584095Y-16282714D01*
X13593619Y-16263667D01*
X13612667Y-16254143D01*
X13650762Y-16254143D01*
X13669809Y-16263667D01*
X13679333Y-16282714D01*
X13679333Y-16301762D01*
X13584095Y-16320809D01*
X13755524Y-16377952D02*
X13774571Y-16387476D01*
X13812667Y-16387476D01*
X13831714Y-16377952D01*
X13841238Y-16358905D01*
X13841238Y-16349381D01*
X13831714Y-16330333D01*
X13812667Y-16320809D01*
X13784095Y-16320809D01*
X13765048Y-16311286D01*
X13755524Y-16292238D01*
X13755524Y-16282714D01*
X13765048Y-16263667D01*
X13784095Y-16254143D01*
X13812667Y-16254143D01*
X13831714Y-16263667D01*
X14079333Y-16311286D02*
X14231714Y-16311286D01*
X14155524Y-16387476D02*
X14155524Y-16235095D01*
X14565048Y-16254143D02*
X14565048Y-16387476D01*
X14517428Y-16177952D02*
X14469809Y-16320809D01*
X14593619Y-16320809D01*
X14812667Y-16377952D02*
X14831714Y-16387476D01*
X14869809Y-16387476D01*
X14888857Y-16377952D01*
X14898381Y-16358905D01*
X14898381Y-16349381D01*
X14888857Y-16330333D01*
X14869809Y-16320809D01*
X14841238Y-16320809D01*
X14822190Y-16311286D01*
X14812667Y-16292238D01*
X14812667Y-16282714D01*
X14822190Y-16263667D01*
X14841238Y-16254143D01*
X14869809Y-16254143D01*
X14888857Y-16263667D01*
X15012667Y-16387476D02*
X14993619Y-16377952D01*
X14984095Y-16358905D01*
X14984095Y-16187476D01*
X15117428Y-16387476D02*
X15098381Y-16377952D01*
X15088857Y-16368428D01*
X15079333Y-16349381D01*
X15079333Y-16292238D01*
X15088857Y-16273190D01*
X15098381Y-16263667D01*
X15117428Y-16254143D01*
X15146000Y-16254143D01*
X15165048Y-16263667D01*
X15174571Y-16273190D01*
X15184095Y-16292238D01*
X15184095Y-16349381D01*
X15174571Y-16368428D01*
X15165048Y-16377952D01*
X15146000Y-16387476D01*
X15117428Y-16387476D01*
X15241238Y-16254143D02*
X15317428Y-16254143D01*
X15269809Y-16187476D02*
X15269809Y-16358905D01*
X15279333Y-16377952D01*
X15298381Y-16387476D01*
X15317428Y-16387476D01*
X15374571Y-16377952D02*
X15393619Y-16387476D01*
X15431714Y-16387476D01*
X15450762Y-16377952D01*
X15460286Y-16358905D01*
X15460286Y-16349381D01*
X15450762Y-16330333D01*
X15431714Y-16320809D01*
X15403143Y-16320809D01*
X15384095Y-16311286D01*
X15374571Y-16292238D01*
X15374571Y-16282714D01*
X15384095Y-16263667D01*
X15403143Y-16254143D01*
X15431714Y-16254143D01*
X15450762Y-16263667D01*
X15526952Y-16463667D02*
X15536476Y-16454143D01*
X15555524Y-16425571D01*
X15565048Y-16406524D01*
X15574571Y-16377952D01*
X15584095Y-16330333D01*
X15584095Y-16292238D01*
X15574571Y-16244619D01*
X15565048Y-16216048D01*
X15555524Y-16197000D01*
X15536476Y-16168428D01*
X15526952Y-16158905D01*
D14*
X9091000Y-16516000D02*
X9091000Y-16606000D01*
X9046000Y-16561000D02*
X9136000Y-16561000D01*
D11*
X9431714Y-16451476D02*
X9450762Y-16451476D01*
X9469810Y-16461000D01*
X9479333Y-16470524D01*
X9488857Y-16489571D01*
X9498381Y-16527667D01*
X9498381Y-16575286D01*
X9488857Y-16613381D01*
X9479333Y-16632428D01*
X9469810Y-16641952D01*
X9450762Y-16651476D01*
X9431714Y-16651476D01*
X9412667Y-16641952D01*
X9403143Y-16632428D01*
X9393619Y-16613381D01*
X9384095Y-16575286D01*
X9384095Y-16527667D01*
X9393619Y-16489571D01*
X9403143Y-16470524D01*
X9412667Y-16461000D01*
X9431714Y-16451476D01*
X9584095Y-16632428D02*
X9593619Y-16641952D01*
X9584095Y-16651476D01*
X9574571Y-16641952D01*
X9584095Y-16632428D01*
X9584095Y-16651476D01*
X9688857Y-16651476D02*
X9726952Y-16651476D01*
X9746000Y-16641952D01*
X9755524Y-16632428D01*
X9774571Y-16603857D01*
X9784095Y-16565762D01*
X9784095Y-16489571D01*
X9774571Y-16470524D01*
X9765048Y-16461000D01*
X9746000Y-16451476D01*
X9707905Y-16451476D01*
X9688857Y-16461000D01*
X9679333Y-16470524D01*
X9669810Y-16489571D01*
X9669810Y-16537190D01*
X9679333Y-16556238D01*
X9688857Y-16565762D01*
X9707905Y-16575286D01*
X9746000Y-16575286D01*
X9765048Y-16565762D01*
X9774571Y-16556238D01*
X9784095Y-16537190D01*
X9907905Y-16451476D02*
X9926952Y-16451476D01*
X9946000Y-16461000D01*
X9955524Y-16470524D01*
X9965048Y-16489571D01*
X9974571Y-16527667D01*
X9974571Y-16575286D01*
X9965048Y-16613381D01*
X9955524Y-16632428D01*
X9946000Y-16641952D01*
X9926952Y-16651476D01*
X9907905Y-16651476D01*
X9888857Y-16641952D01*
X9879333Y-16632428D01*
X9869810Y-16613381D01*
X9860286Y-16575286D01*
X9860286Y-16527667D01*
X9869810Y-16489571D01*
X9879333Y-16470524D01*
X9888857Y-16461000D01*
X9907905Y-16451476D01*
X10098381Y-16451476D02*
X10117429Y-16451476D01*
X10136476Y-16461000D01*
X10146000Y-16470524D01*
X10155524Y-16489571D01*
X10165048Y-16527667D01*
X10165048Y-16575286D01*
X10155524Y-16613381D01*
X10146000Y-16632428D01*
X10136476Y-16641952D01*
X10117429Y-16651476D01*
X10098381Y-16651476D01*
X10079333Y-16641952D01*
X10069810Y-16632428D01*
X10060286Y-16613381D01*
X10050762Y-16575286D01*
X10050762Y-16527667D01*
X10060286Y-16489571D01*
X10069810Y-16470524D01*
X10079333Y-16461000D01*
X10098381Y-16451476D01*
X10250762Y-16651476D02*
X10250762Y-16518143D01*
X10250762Y-16537190D02*
X10260286Y-16527667D01*
X10279333Y-16518143D01*
X10307905Y-16518143D01*
X10326952Y-16527667D01*
X10336476Y-16546714D01*
X10336476Y-16651476D01*
X10336476Y-16546714D02*
X10346000Y-16527667D01*
X10365048Y-16518143D01*
X10393619Y-16518143D01*
X10412667Y-16527667D01*
X10422190Y-16546714D01*
X10422190Y-16651476D01*
X10517429Y-16651476D02*
X10517429Y-16518143D01*
X10517429Y-16537190D02*
X10526952Y-16527667D01*
X10546000Y-16518143D01*
X10574571Y-16518143D01*
X10593619Y-16527667D01*
X10603143Y-16546714D01*
X10603143Y-16651476D01*
X10603143Y-16546714D02*
X10612667Y-16527667D01*
X10631714Y-16518143D01*
X10660286Y-16518143D01*
X10679333Y-16527667D01*
X10688857Y-16546714D01*
X10688857Y-16651476D01*
X11079333Y-16441952D02*
X10907905Y-16699095D01*
X11336476Y-16451476D02*
X11355524Y-16451476D01*
X11374571Y-16461000D01*
X11384095Y-16470524D01*
X11393619Y-16489571D01*
X11403143Y-16527667D01*
X11403143Y-16575286D01*
X11393619Y-16613381D01*
X11384095Y-16632428D01*
X11374571Y-16641952D01*
X11355524Y-16651476D01*
X11336476Y-16651476D01*
X11317428Y-16641952D01*
X11307905Y-16632428D01*
X11298381Y-16613381D01*
X11288857Y-16575286D01*
X11288857Y-16527667D01*
X11298381Y-16489571D01*
X11307905Y-16470524D01*
X11317428Y-16461000D01*
X11336476Y-16451476D01*
X11488857Y-16632428D02*
X11498381Y-16641952D01*
X11488857Y-16651476D01*
X11479333Y-16641952D01*
X11488857Y-16632428D01*
X11488857Y-16651476D01*
X11622190Y-16451476D02*
X11641238Y-16451476D01*
X11660286Y-16461000D01*
X11669809Y-16470524D01*
X11679333Y-16489571D01*
X11688857Y-16527667D01*
X11688857Y-16575286D01*
X11679333Y-16613381D01*
X11669809Y-16632428D01*
X11660286Y-16641952D01*
X11641238Y-16651476D01*
X11622190Y-16651476D01*
X11603143Y-16641952D01*
X11593619Y-16632428D01*
X11584095Y-16613381D01*
X11574571Y-16575286D01*
X11574571Y-16527667D01*
X11584095Y-16489571D01*
X11593619Y-16470524D01*
X11603143Y-16461000D01*
X11622190Y-16451476D01*
X11755524Y-16451476D02*
X11879333Y-16451476D01*
X11812667Y-16527667D01*
X11841238Y-16527667D01*
X11860286Y-16537190D01*
X11869809Y-16546714D01*
X11879333Y-16565762D01*
X11879333Y-16613381D01*
X11869809Y-16632428D01*
X11860286Y-16641952D01*
X11841238Y-16651476D01*
X11784095Y-16651476D01*
X11765048Y-16641952D01*
X11755524Y-16632428D01*
X12060286Y-16451476D02*
X11965048Y-16451476D01*
X11955524Y-16546714D01*
X11965048Y-16537190D01*
X11984095Y-16527667D01*
X12031714Y-16527667D01*
X12050762Y-16537190D01*
X12060286Y-16546714D01*
X12069809Y-16565762D01*
X12069809Y-16613381D01*
X12060286Y-16632428D01*
X12050762Y-16641952D01*
X12031714Y-16651476D01*
X11984095Y-16651476D01*
X11965048Y-16641952D01*
X11955524Y-16632428D01*
X12241238Y-16518143D02*
X12241238Y-16651476D01*
X12193619Y-16441952D02*
X12146000Y-16584809D01*
X12269809Y-16584809D01*
X12336476Y-16451476D02*
X12336476Y-16489571D01*
X12412667Y-16451476D02*
X12412667Y-16489571D01*
X12707905Y-16727667D02*
X12698381Y-16718143D01*
X12679333Y-16689571D01*
X12669809Y-16670524D01*
X12660286Y-16641952D01*
X12650762Y-16594333D01*
X12650762Y-16556238D01*
X12660286Y-16508619D01*
X12669809Y-16480048D01*
X12679333Y-16461000D01*
X12698381Y-16432428D01*
X12707905Y-16422905D01*
X12869809Y-16451476D02*
X12831714Y-16451476D01*
X12812667Y-16461000D01*
X12803143Y-16470524D01*
X12784095Y-16499095D01*
X12774571Y-16537190D01*
X12774571Y-16613381D01*
X12784095Y-16632428D01*
X12793619Y-16641952D01*
X12812667Y-16651476D01*
X12850762Y-16651476D01*
X12869809Y-16641952D01*
X12879333Y-16632428D01*
X12888857Y-16613381D01*
X12888857Y-16565762D01*
X12879333Y-16546714D01*
X12869809Y-16537190D01*
X12850762Y-16527667D01*
X12812667Y-16527667D01*
X12793619Y-16537190D01*
X12784095Y-16546714D01*
X12774571Y-16565762D01*
X13126952Y-16651476D02*
X13126952Y-16451476D01*
X13212667Y-16651476D02*
X13212667Y-16546714D01*
X13203143Y-16527667D01*
X13184095Y-16518143D01*
X13155524Y-16518143D01*
X13136476Y-16527667D01*
X13126952Y-16537190D01*
X13336476Y-16651476D02*
X13317428Y-16641952D01*
X13307905Y-16632428D01*
X13298381Y-16613381D01*
X13298381Y-16556238D01*
X13307905Y-16537190D01*
X13317428Y-16527667D01*
X13336476Y-16518143D01*
X13365048Y-16518143D01*
X13384095Y-16527667D01*
X13393619Y-16537190D01*
X13403143Y-16556238D01*
X13403143Y-16613381D01*
X13393619Y-16632428D01*
X13384095Y-16641952D01*
X13365048Y-16651476D01*
X13336476Y-16651476D01*
X13517428Y-16651476D02*
X13498381Y-16641952D01*
X13488857Y-16622905D01*
X13488857Y-16451476D01*
X13669809Y-16641952D02*
X13650762Y-16651476D01*
X13612667Y-16651476D01*
X13593619Y-16641952D01*
X13584095Y-16622905D01*
X13584095Y-16546714D01*
X13593619Y-16527667D01*
X13612667Y-16518143D01*
X13650762Y-16518143D01*
X13669809Y-16527667D01*
X13679333Y-16546714D01*
X13679333Y-16565762D01*
X13584095Y-16584809D01*
X13755524Y-16641952D02*
X13774571Y-16651476D01*
X13812667Y-16651476D01*
X13831714Y-16641952D01*
X13841238Y-16622905D01*
X13841238Y-16613381D01*
X13831714Y-16594333D01*
X13812667Y-16584809D01*
X13784095Y-16584809D01*
X13765048Y-16575286D01*
X13755524Y-16556238D01*
X13755524Y-16546714D01*
X13765048Y-16527667D01*
X13784095Y-16518143D01*
X13812667Y-16518143D01*
X13831714Y-16527667D01*
X13907905Y-16727667D02*
X13917428Y-16718143D01*
X13936476Y-16689571D01*
X13946000Y-16670524D01*
X13955524Y-16641952D01*
X13965048Y-16594333D01*
X13965048Y-16556238D01*
X13955524Y-16508619D01*
X13946000Y-16480048D01*
X13936476Y-16461000D01*
X13917428Y-16432428D01*
X13907905Y-16422905D01*
D15*
X9121356Y-16860356D02*
X9121356Y-16789644D01*
X9050644Y-16789644D01*
X9050644Y-16860356D01*
X9121356Y-16860356D01*
D11*
X9498381Y-16915476D02*
X9384095Y-16915476D01*
X9441238Y-16915476D02*
X9441238Y-16715476D01*
X9422190Y-16744048D01*
X9403143Y-16763095D01*
X9384095Y-16772619D01*
X9584095Y-16896429D02*
X9593619Y-16905952D01*
X9584095Y-16915476D01*
X9574571Y-16905952D01*
X9584095Y-16896429D01*
X9584095Y-16915476D01*
X9717429Y-16715476D02*
X9736476Y-16715476D01*
X9755524Y-16725000D01*
X9765048Y-16734524D01*
X9774571Y-16753571D01*
X9784095Y-16791667D01*
X9784095Y-16839286D01*
X9774571Y-16877381D01*
X9765048Y-16896429D01*
X9755524Y-16905952D01*
X9736476Y-16915476D01*
X9717429Y-16915476D01*
X9698381Y-16905952D01*
X9688857Y-16896429D01*
X9679333Y-16877381D01*
X9669810Y-16839286D01*
X9669810Y-16791667D01*
X9679333Y-16753571D01*
X9688857Y-16734524D01*
X9698381Y-16725000D01*
X9717429Y-16715476D01*
X9907905Y-16715476D02*
X9926952Y-16715476D01*
X9946000Y-16725000D01*
X9955524Y-16734524D01*
X9965048Y-16753571D01*
X9974571Y-16791667D01*
X9974571Y-16839286D01*
X9965048Y-16877381D01*
X9955524Y-16896429D01*
X9946000Y-16905952D01*
X9926952Y-16915476D01*
X9907905Y-16915476D01*
X9888857Y-16905952D01*
X9879333Y-16896429D01*
X9869810Y-16877381D01*
X9860286Y-16839286D01*
X9860286Y-16791667D01*
X9869810Y-16753571D01*
X9879333Y-16734524D01*
X9888857Y-16725000D01*
X9907905Y-16715476D01*
X10098381Y-16715476D02*
X10117429Y-16715476D01*
X10136476Y-16725000D01*
X10146000Y-16734524D01*
X10155524Y-16753571D01*
X10165048Y-16791667D01*
X10165048Y-16839286D01*
X10155524Y-16877381D01*
X10146000Y-16896429D01*
X10136476Y-16905952D01*
X10117429Y-16915476D01*
X10098381Y-16915476D01*
X10079333Y-16905952D01*
X10069810Y-16896429D01*
X10060286Y-16877381D01*
X10050762Y-16839286D01*
X10050762Y-16791667D01*
X10060286Y-16753571D01*
X10069810Y-16734524D01*
X10079333Y-16725000D01*
X10098381Y-16715476D01*
X10250762Y-16915476D02*
X10250762Y-16782143D01*
X10250762Y-16801190D02*
X10260286Y-16791667D01*
X10279333Y-16782143D01*
X10307905Y-16782143D01*
X10326952Y-16791667D01*
X10336476Y-16810714D01*
X10336476Y-16915476D01*
X10336476Y-16810714D02*
X10346000Y-16791667D01*
X10365048Y-16782143D01*
X10393619Y-16782143D01*
X10412667Y-16791667D01*
X10422190Y-16810714D01*
X10422190Y-16915476D01*
X10517429Y-16915476D02*
X10517429Y-16782143D01*
X10517429Y-16801190D02*
X10526952Y-16791667D01*
X10546000Y-16782143D01*
X10574571Y-16782143D01*
X10593619Y-16791667D01*
X10603143Y-16810714D01*
X10603143Y-16915476D01*
X10603143Y-16810714D02*
X10612667Y-16791667D01*
X10631714Y-16782143D01*
X10660286Y-16782143D01*
X10679333Y-16791667D01*
X10688857Y-16810714D01*
X10688857Y-16915476D01*
X11079333Y-16705952D02*
X10907905Y-16963095D01*
X11336476Y-16715476D02*
X11355524Y-16715476D01*
X11374571Y-16725000D01*
X11384095Y-16734524D01*
X11393619Y-16753571D01*
X11403143Y-16791667D01*
X11403143Y-16839286D01*
X11393619Y-16877381D01*
X11384095Y-16896429D01*
X11374571Y-16905952D01*
X11355524Y-16915476D01*
X11336476Y-16915476D01*
X11317428Y-16905952D01*
X11307905Y-16896429D01*
X11298381Y-16877381D01*
X11288857Y-16839286D01*
X11288857Y-16791667D01*
X11298381Y-16753571D01*
X11307905Y-16734524D01*
X11317428Y-16725000D01*
X11336476Y-16715476D01*
X11488857Y-16896429D02*
X11498381Y-16905952D01*
X11488857Y-16915476D01*
X11479333Y-16905952D01*
X11488857Y-16896429D01*
X11488857Y-16915476D01*
X11622190Y-16715476D02*
X11641238Y-16715476D01*
X11660286Y-16725000D01*
X11669809Y-16734524D01*
X11679333Y-16753571D01*
X11688857Y-16791667D01*
X11688857Y-16839286D01*
X11679333Y-16877381D01*
X11669809Y-16896429D01*
X11660286Y-16905952D01*
X11641238Y-16915476D01*
X11622190Y-16915476D01*
X11603143Y-16905952D01*
X11593619Y-16896429D01*
X11584095Y-16877381D01*
X11574571Y-16839286D01*
X11574571Y-16791667D01*
X11584095Y-16753571D01*
X11593619Y-16734524D01*
X11603143Y-16725000D01*
X11622190Y-16715476D01*
X11755524Y-16715476D02*
X11879333Y-16715476D01*
X11812667Y-16791667D01*
X11841238Y-16791667D01*
X11860286Y-16801190D01*
X11869809Y-16810714D01*
X11879333Y-16829762D01*
X11879333Y-16877381D01*
X11869809Y-16896429D01*
X11860286Y-16905952D01*
X11841238Y-16915476D01*
X11784095Y-16915476D01*
X11765048Y-16905952D01*
X11755524Y-16896429D01*
X11974571Y-16915476D02*
X12012667Y-16915476D01*
X12031714Y-16905952D01*
X12041238Y-16896429D01*
X12060286Y-16867857D01*
X12069809Y-16829762D01*
X12069809Y-16753571D01*
X12060286Y-16734524D01*
X12050762Y-16725000D01*
X12031714Y-16715476D01*
X11993619Y-16715476D01*
X11974571Y-16725000D01*
X11965048Y-16734524D01*
X11955524Y-16753571D01*
X11955524Y-16801190D01*
X11965048Y-16820238D01*
X11974571Y-16829762D01*
X11993619Y-16839286D01*
X12031714Y-16839286D01*
X12050762Y-16829762D01*
X12060286Y-16820238D01*
X12069809Y-16801190D01*
X12241238Y-16782143D02*
X12241238Y-16915476D01*
X12193619Y-16705952D02*
X12146000Y-16848810D01*
X12269809Y-16848810D01*
X12336476Y-16715476D02*
X12336476Y-16753571D01*
X12412667Y-16715476D02*
X12412667Y-16753571D01*
X12707905Y-16991667D02*
X12698381Y-16982143D01*
X12679333Y-16953571D01*
X12669809Y-16934524D01*
X12660286Y-16905952D01*
X12650762Y-16858333D01*
X12650762Y-16820238D01*
X12660286Y-16772619D01*
X12669809Y-16744048D01*
X12679333Y-16725000D01*
X12698381Y-16696428D01*
X12707905Y-16686905D01*
X12869809Y-16782143D02*
X12869809Y-16915476D01*
X12822190Y-16705952D02*
X12774571Y-16848810D01*
X12898381Y-16848810D01*
X13060286Y-16782143D02*
X13060286Y-16915476D01*
X13012667Y-16705952D02*
X12965048Y-16848810D01*
X13088857Y-16848810D01*
X13317428Y-16915476D02*
X13317428Y-16715476D01*
X13403143Y-16915476D02*
X13403143Y-16810714D01*
X13393619Y-16791667D01*
X13374571Y-16782143D01*
X13346000Y-16782143D01*
X13326952Y-16791667D01*
X13317428Y-16801190D01*
X13526952Y-16915476D02*
X13507905Y-16905952D01*
X13498381Y-16896429D01*
X13488857Y-16877381D01*
X13488857Y-16820238D01*
X13498381Y-16801190D01*
X13507905Y-16791667D01*
X13526952Y-16782143D01*
X13555524Y-16782143D01*
X13574571Y-16791667D01*
X13584095Y-16801190D01*
X13593619Y-16820238D01*
X13593619Y-16877381D01*
X13584095Y-16896429D01*
X13574571Y-16905952D01*
X13555524Y-16915476D01*
X13526952Y-16915476D01*
X13707905Y-16915476D02*
X13688857Y-16905952D01*
X13679333Y-16886905D01*
X13679333Y-16715476D01*
X13860286Y-16905952D02*
X13841238Y-16915476D01*
X13803143Y-16915476D01*
X13784095Y-16905952D01*
X13774571Y-16886905D01*
X13774571Y-16810714D01*
X13784095Y-16791667D01*
X13803143Y-16782143D01*
X13841238Y-16782143D01*
X13860286Y-16791667D01*
X13869809Y-16810714D01*
X13869809Y-16829762D01*
X13774571Y-16848810D01*
X13946000Y-16905952D02*
X13965048Y-16915476D01*
X14003143Y-16915476D01*
X14022190Y-16905952D01*
X14031714Y-16886905D01*
X14031714Y-16877381D01*
X14022190Y-16858333D01*
X14003143Y-16848810D01*
X13974571Y-16848810D01*
X13955524Y-16839286D01*
X13946000Y-16820238D01*
X13946000Y-16810714D01*
X13955524Y-16791667D01*
X13974571Y-16782143D01*
X14003143Y-16782143D01*
X14022190Y-16791667D01*
X14098381Y-16991667D02*
X14107905Y-16982143D01*
X14126952Y-16953571D01*
X14136476Y-16934524D01*
X14146000Y-16905952D01*
X14155524Y-16858333D01*
X14155524Y-16820238D01*
X14146000Y-16772619D01*
X14136476Y-16744048D01*
X14126952Y-16725000D01*
X14107905Y-16696428D01*
X14098381Y-16686905D01*
D16*
X9085200Y-17139800D02*
X9136000Y-17089000D01*
X9085200Y-17038200D01*
X9034400Y-17089000D01*
X9085200Y-17139800D01*
D11*
X9498381Y-17179476D02*
X9384095Y-17179476D01*
X9441238Y-17179476D02*
X9441238Y-16979476D01*
X9422190Y-17008048D01*
X9403143Y-17027095D01*
X9384095Y-17036619D01*
X9584095Y-17160429D02*
X9593619Y-17169952D01*
X9584095Y-17179476D01*
X9574571Y-17169952D01*
X9584095Y-17160429D01*
X9584095Y-17179476D01*
X9717429Y-16979476D02*
X9736476Y-16979476D01*
X9755524Y-16989000D01*
X9765048Y-16998524D01*
X9774571Y-17017571D01*
X9784095Y-17055667D01*
X9784095Y-17103286D01*
X9774571Y-17141381D01*
X9765048Y-17160429D01*
X9755524Y-17169952D01*
X9736476Y-17179476D01*
X9717429Y-17179476D01*
X9698381Y-17169952D01*
X9688857Y-17160429D01*
X9679333Y-17141381D01*
X9669810Y-17103286D01*
X9669810Y-17055667D01*
X9679333Y-17017571D01*
X9688857Y-16998524D01*
X9698381Y-16989000D01*
X9717429Y-16979476D01*
X9974571Y-17179476D02*
X9860286Y-17179476D01*
X9917429Y-17179476D02*
X9917429Y-16979476D01*
X9898381Y-17008048D01*
X9879333Y-17027095D01*
X9860286Y-17036619D01*
X10146000Y-16979476D02*
X10107905Y-16979476D01*
X10088857Y-16989000D01*
X10079333Y-16998524D01*
X10060286Y-17027095D01*
X10050762Y-17065190D01*
X10050762Y-17141381D01*
X10060286Y-17160429D01*
X10069810Y-17169952D01*
X10088857Y-17179476D01*
X10126952Y-17179476D01*
X10146000Y-17169952D01*
X10155524Y-17160429D01*
X10165048Y-17141381D01*
X10165048Y-17093762D01*
X10155524Y-17074714D01*
X10146000Y-17065190D01*
X10126952Y-17055667D01*
X10088857Y-17055667D01*
X10069810Y-17065190D01*
X10060286Y-17074714D01*
X10050762Y-17093762D01*
X10250762Y-17179476D02*
X10250762Y-17046143D01*
X10250762Y-17065190D02*
X10260286Y-17055667D01*
X10279333Y-17046143D01*
X10307905Y-17046143D01*
X10326952Y-17055667D01*
X10336476Y-17074714D01*
X10336476Y-17179476D01*
X10336476Y-17074714D02*
X10346000Y-17055667D01*
X10365048Y-17046143D01*
X10393619Y-17046143D01*
X10412667Y-17055667D01*
X10422190Y-17074714D01*
X10422190Y-17179476D01*
X10517429Y-17179476D02*
X10517429Y-17046143D01*
X10517429Y-17065190D02*
X10526952Y-17055667D01*
X10546000Y-17046143D01*
X10574571Y-17046143D01*
X10593619Y-17055667D01*
X10603143Y-17074714D01*
X10603143Y-17179476D01*
X10603143Y-17074714D02*
X10612667Y-17055667D01*
X10631714Y-17046143D01*
X10660286Y-17046143D01*
X10679333Y-17055667D01*
X10688857Y-17074714D01*
X10688857Y-17179476D01*
X11079333Y-16969952D02*
X10907905Y-17227095D01*
X11336476Y-16979476D02*
X11355524Y-16979476D01*
X11374571Y-16989000D01*
X11384095Y-16998524D01*
X11393619Y-17017571D01*
X11403143Y-17055667D01*
X11403143Y-17103286D01*
X11393619Y-17141381D01*
X11384095Y-17160429D01*
X11374571Y-17169952D01*
X11355524Y-17179476D01*
X11336476Y-17179476D01*
X11317428Y-17169952D01*
X11307905Y-17160429D01*
X11298381Y-17141381D01*
X11288857Y-17103286D01*
X11288857Y-17055667D01*
X11298381Y-17017571D01*
X11307905Y-16998524D01*
X11317428Y-16989000D01*
X11336476Y-16979476D01*
X11488857Y-17160429D02*
X11498381Y-17169952D01*
X11488857Y-17179476D01*
X11479333Y-17169952D01*
X11488857Y-17160429D01*
X11488857Y-17179476D01*
X11622190Y-16979476D02*
X11641238Y-16979476D01*
X11660286Y-16989000D01*
X11669809Y-16998524D01*
X11679333Y-17017571D01*
X11688857Y-17055667D01*
X11688857Y-17103286D01*
X11679333Y-17141381D01*
X11669809Y-17160429D01*
X11660286Y-17169952D01*
X11641238Y-17179476D01*
X11622190Y-17179476D01*
X11603143Y-17169952D01*
X11593619Y-17160429D01*
X11584095Y-17141381D01*
X11574571Y-17103286D01*
X11574571Y-17055667D01*
X11584095Y-17017571D01*
X11593619Y-16998524D01*
X11603143Y-16989000D01*
X11622190Y-16979476D01*
X11860286Y-17046143D02*
X11860286Y-17179476D01*
X11812667Y-16969952D02*
X11765048Y-17112810D01*
X11888857Y-17112810D01*
X12003143Y-16979476D02*
X12022190Y-16979476D01*
X12041238Y-16989000D01*
X12050762Y-16998524D01*
X12060286Y-17017571D01*
X12069809Y-17055667D01*
X12069809Y-17103286D01*
X12060286Y-17141381D01*
X12050762Y-17160429D01*
X12041238Y-17169952D01*
X12022190Y-17179476D01*
X12003143Y-17179476D01*
X11984095Y-17169952D01*
X11974571Y-17160429D01*
X11965048Y-17141381D01*
X11955524Y-17103286D01*
X11955524Y-17055667D01*
X11965048Y-17017571D01*
X11974571Y-16998524D01*
X11984095Y-16989000D01*
X12003143Y-16979476D01*
X12193619Y-16979476D02*
X12212667Y-16979476D01*
X12231714Y-16989000D01*
X12241238Y-16998524D01*
X12250762Y-17017571D01*
X12260286Y-17055667D01*
X12260286Y-17103286D01*
X12250762Y-17141381D01*
X12241238Y-17160429D01*
X12231714Y-17169952D01*
X12212667Y-17179476D01*
X12193619Y-17179476D01*
X12174571Y-17169952D01*
X12165048Y-17160429D01*
X12155524Y-17141381D01*
X12146000Y-17103286D01*
X12146000Y-17055667D01*
X12155524Y-17017571D01*
X12165048Y-16998524D01*
X12174571Y-16989000D01*
X12193619Y-16979476D01*
X12336476Y-16979476D02*
X12336476Y-17017571D01*
X12412667Y-16979476D02*
X12412667Y-17017571D01*
X12707905Y-17255667D02*
X12698381Y-17246143D01*
X12679333Y-17217571D01*
X12669809Y-17198524D01*
X12660286Y-17169952D01*
X12650762Y-17122333D01*
X12650762Y-17084238D01*
X12660286Y-17036619D01*
X12669809Y-17008048D01*
X12679333Y-16989000D01*
X12698381Y-16960429D01*
X12707905Y-16950905D01*
X12888857Y-17179476D02*
X12774571Y-17179476D01*
X12831714Y-17179476D02*
X12831714Y-16979476D01*
X12812667Y-17008048D01*
X12793619Y-17027095D01*
X12774571Y-17036619D01*
X13012667Y-16979476D02*
X13031714Y-16979476D01*
X13050762Y-16989000D01*
X13060286Y-16998524D01*
X13069809Y-17017571D01*
X13079333Y-17055667D01*
X13079333Y-17103286D01*
X13069809Y-17141381D01*
X13060286Y-17160429D01*
X13050762Y-17169952D01*
X13031714Y-17179476D01*
X13012667Y-17179476D01*
X12993619Y-17169952D01*
X12984095Y-17160429D01*
X12974571Y-17141381D01*
X12965048Y-17103286D01*
X12965048Y-17055667D01*
X12974571Y-17017571D01*
X12984095Y-16998524D01*
X12993619Y-16989000D01*
X13012667Y-16979476D01*
X13317428Y-17179476D02*
X13317428Y-16979476D01*
X13403143Y-17179476D02*
X13403143Y-17074714D01*
X13393619Y-17055667D01*
X13374571Y-17046143D01*
X13346000Y-17046143D01*
X13326952Y-17055667D01*
X13317428Y-17065190D01*
X13526952Y-17179476D02*
X13507905Y-17169952D01*
X13498381Y-17160429D01*
X13488857Y-17141381D01*
X13488857Y-17084238D01*
X13498381Y-17065190D01*
X13507905Y-17055667D01*
X13526952Y-17046143D01*
X13555524Y-17046143D01*
X13574571Y-17055667D01*
X13584095Y-17065190D01*
X13593619Y-17084238D01*
X13593619Y-17141381D01*
X13584095Y-17160429D01*
X13574571Y-17169952D01*
X13555524Y-17179476D01*
X13526952Y-17179476D01*
X13707905Y-17179476D02*
X13688857Y-17169952D01*
X13679333Y-17150905D01*
X13679333Y-16979476D01*
X13860286Y-17169952D02*
X13841238Y-17179476D01*
X13803143Y-17179476D01*
X13784095Y-17169952D01*
X13774571Y-17150905D01*
X13774571Y-17074714D01*
X13784095Y-17055667D01*
X13803143Y-17046143D01*
X13841238Y-17046143D01*
X13860286Y-17055667D01*
X13869809Y-17074714D01*
X13869809Y-17093762D01*
X13774571Y-17112810D01*
X13946000Y-17169952D02*
X13965048Y-17179476D01*
X14003143Y-17179476D01*
X14022190Y-17169952D01*
X14031714Y-17150905D01*
X14031714Y-17141381D01*
X14022190Y-17122333D01*
X14003143Y-17112810D01*
X13974571Y-17112810D01*
X13955524Y-17103286D01*
X13946000Y-17084238D01*
X13946000Y-17074714D01*
X13955524Y-17055667D01*
X13974571Y-17046143D01*
X14003143Y-17046143D01*
X14022190Y-17055667D01*
X14098381Y-17255667D02*
X14107905Y-17246143D01*
X14126952Y-17217571D01*
X14136476Y-17198524D01*
X14146000Y-17169952D01*
X14155524Y-17122333D01*
X14155524Y-17084238D01*
X14146000Y-17036619D01*
X14136476Y-17008048D01*
X14126952Y-16989000D01*
X14107905Y-16960429D01*
X14098381Y-16950905D01*
X8936000Y-17253000D02*
X9136000Y-17453000D01*
X9136000Y-17253000D02*
X8936000Y-17453000D01*
X9136000Y-17353000D02*
G75*
G03*
X9136000Y-17353000I-100000J0D01*
G01*
X9384095Y-17262524D02*
X9393619Y-17253000D01*
X9412667Y-17243476D01*
X9460286Y-17243476D01*
X9479333Y-17253000D01*
X9488857Y-17262524D01*
X9498381Y-17281571D01*
X9498381Y-17300619D01*
X9488857Y-17329190D01*
X9374571Y-17443476D01*
X9498381Y-17443476D01*
X9584095Y-17424429D02*
X9593619Y-17433952D01*
X9584095Y-17443476D01*
X9574571Y-17433952D01*
X9584095Y-17424429D01*
X9584095Y-17443476D01*
X9717429Y-17243476D02*
X9736476Y-17243476D01*
X9755524Y-17253000D01*
X9765048Y-17262524D01*
X9774571Y-17281571D01*
X9784095Y-17319667D01*
X9784095Y-17367286D01*
X9774571Y-17405381D01*
X9765048Y-17424429D01*
X9755524Y-17433952D01*
X9736476Y-17443476D01*
X9717429Y-17443476D01*
X9698381Y-17433952D01*
X9688857Y-17424429D01*
X9679333Y-17405381D01*
X9669810Y-17367286D01*
X9669810Y-17319667D01*
X9679333Y-17281571D01*
X9688857Y-17262524D01*
X9698381Y-17253000D01*
X9717429Y-17243476D01*
X9907905Y-17243476D02*
X9926952Y-17243476D01*
X9946000Y-17253000D01*
X9955524Y-17262524D01*
X9965048Y-17281571D01*
X9974571Y-17319667D01*
X9974571Y-17367286D01*
X9965048Y-17405381D01*
X9955524Y-17424429D01*
X9946000Y-17433952D01*
X9926952Y-17443476D01*
X9907905Y-17443476D01*
X9888857Y-17433952D01*
X9879333Y-17424429D01*
X9869810Y-17405381D01*
X9860286Y-17367286D01*
X9860286Y-17319667D01*
X9869810Y-17281571D01*
X9879333Y-17262524D01*
X9888857Y-17253000D01*
X9907905Y-17243476D01*
X10098381Y-17243476D02*
X10117429Y-17243476D01*
X10136476Y-17253000D01*
X10146000Y-17262524D01*
X10155524Y-17281571D01*
X10165048Y-17319667D01*
X10165048Y-17367286D01*
X10155524Y-17405381D01*
X10146000Y-17424429D01*
X10136476Y-17433952D01*
X10117429Y-17443476D01*
X10098381Y-17443476D01*
X10079333Y-17433952D01*
X10069810Y-17424429D01*
X10060286Y-17405381D01*
X10050762Y-17367286D01*
X10050762Y-17319667D01*
X10060286Y-17281571D01*
X10069810Y-17262524D01*
X10079333Y-17253000D01*
X10098381Y-17243476D01*
X10250762Y-17443476D02*
X10250762Y-17310143D01*
X10250762Y-17329190D02*
X10260286Y-17319667D01*
X10279333Y-17310143D01*
X10307905Y-17310143D01*
X10326952Y-17319667D01*
X10336476Y-17338714D01*
X10336476Y-17443476D01*
X10336476Y-17338714D02*
X10346000Y-17319667D01*
X10365048Y-17310143D01*
X10393619Y-17310143D01*
X10412667Y-17319667D01*
X10422190Y-17338714D01*
X10422190Y-17443476D01*
X10517429Y-17443476D02*
X10517429Y-17310143D01*
X10517429Y-17329190D02*
X10526952Y-17319667D01*
X10546000Y-17310143D01*
X10574571Y-17310143D01*
X10593619Y-17319667D01*
X10603143Y-17338714D01*
X10603143Y-17443476D01*
X10603143Y-17338714D02*
X10612667Y-17319667D01*
X10631714Y-17310143D01*
X10660286Y-17310143D01*
X10679333Y-17319667D01*
X10688857Y-17338714D01*
X10688857Y-17443476D01*
X11079333Y-17233952D02*
X10907905Y-17491095D01*
X11336476Y-17243476D02*
X11355524Y-17243476D01*
X11374571Y-17253000D01*
X11384095Y-17262524D01*
X11393619Y-17281571D01*
X11403143Y-17319667D01*
X11403143Y-17367286D01*
X11393619Y-17405381D01*
X11384095Y-17424429D01*
X11374571Y-17433952D01*
X11355524Y-17443476D01*
X11336476Y-17443476D01*
X11317428Y-17433952D01*
X11307905Y-17424429D01*
X11298381Y-17405381D01*
X11288857Y-17367286D01*
X11288857Y-17319667D01*
X11298381Y-17281571D01*
X11307905Y-17262524D01*
X11317428Y-17253000D01*
X11336476Y-17243476D01*
X11488857Y-17424429D02*
X11498381Y-17433952D01*
X11488857Y-17443476D01*
X11479333Y-17433952D01*
X11488857Y-17424429D01*
X11488857Y-17443476D01*
X11622190Y-17243476D02*
X11641238Y-17243476D01*
X11660286Y-17253000D01*
X11669809Y-17262524D01*
X11679333Y-17281571D01*
X11688857Y-17319667D01*
X11688857Y-17367286D01*
X11679333Y-17405381D01*
X11669809Y-17424429D01*
X11660286Y-17433952D01*
X11641238Y-17443476D01*
X11622190Y-17443476D01*
X11603143Y-17433952D01*
X11593619Y-17424429D01*
X11584095Y-17405381D01*
X11574571Y-17367286D01*
X11574571Y-17319667D01*
X11584095Y-17281571D01*
X11593619Y-17262524D01*
X11603143Y-17253000D01*
X11622190Y-17243476D01*
X11755524Y-17243476D02*
X11888857Y-17243476D01*
X11803143Y-17443476D01*
X11993619Y-17329190D02*
X11974571Y-17319667D01*
X11965048Y-17310143D01*
X11955524Y-17291095D01*
X11955524Y-17281571D01*
X11965048Y-17262524D01*
X11974571Y-17253000D01*
X11993619Y-17243476D01*
X12031714Y-17243476D01*
X12050762Y-17253000D01*
X12060286Y-17262524D01*
X12069809Y-17281571D01*
X12069809Y-17291095D01*
X12060286Y-17310143D01*
X12050762Y-17319667D01*
X12031714Y-17329190D01*
X11993619Y-17329190D01*
X11974571Y-17338714D01*
X11965048Y-17348238D01*
X11955524Y-17367286D01*
X11955524Y-17405381D01*
X11965048Y-17424429D01*
X11974571Y-17433952D01*
X11993619Y-17443476D01*
X12031714Y-17443476D01*
X12050762Y-17433952D01*
X12060286Y-17424429D01*
X12069809Y-17405381D01*
X12069809Y-17367286D01*
X12060286Y-17348238D01*
X12050762Y-17338714D01*
X12031714Y-17329190D01*
X12136476Y-17243476D02*
X12269809Y-17243476D01*
X12184095Y-17443476D01*
X12336476Y-17243476D02*
X12336476Y-17281571D01*
X12412667Y-17243476D02*
X12412667Y-17281571D01*
X12707905Y-17519667D02*
X12698381Y-17510143D01*
X12679333Y-17481571D01*
X12669809Y-17462524D01*
X12660286Y-17433952D01*
X12650762Y-17386333D01*
X12650762Y-17348238D01*
X12660286Y-17300619D01*
X12669809Y-17272048D01*
X12679333Y-17253000D01*
X12698381Y-17224429D01*
X12707905Y-17214905D01*
X12765048Y-17243476D02*
X12888857Y-17243476D01*
X12822190Y-17319667D01*
X12850762Y-17319667D01*
X12869809Y-17329190D01*
X12879333Y-17338714D01*
X12888857Y-17357762D01*
X12888857Y-17405381D01*
X12879333Y-17424429D01*
X12869809Y-17433952D01*
X12850762Y-17443476D01*
X12793619Y-17443476D01*
X12774571Y-17433952D01*
X12765048Y-17424429D01*
X13012667Y-17243476D02*
X13031714Y-17243476D01*
X13050762Y-17253000D01*
X13060286Y-17262524D01*
X13069809Y-17281571D01*
X13079333Y-17319667D01*
X13079333Y-17367286D01*
X13069809Y-17405381D01*
X13060286Y-17424429D01*
X13050762Y-17433952D01*
X13031714Y-17443476D01*
X13012667Y-17443476D01*
X12993619Y-17433952D01*
X12984095Y-17424429D01*
X12974571Y-17405381D01*
X12965048Y-17367286D01*
X12965048Y-17319667D01*
X12974571Y-17281571D01*
X12984095Y-17262524D01*
X12993619Y-17253000D01*
X13012667Y-17243476D01*
X13317428Y-17443476D02*
X13317428Y-17243476D01*
X13403143Y-17443476D02*
X13403143Y-17338714D01*
X13393619Y-17319667D01*
X13374571Y-17310143D01*
X13346000Y-17310143D01*
X13326952Y-17319667D01*
X13317428Y-17329190D01*
X13526952Y-17443476D02*
X13507905Y-17433952D01*
X13498381Y-17424429D01*
X13488857Y-17405381D01*
X13488857Y-17348238D01*
X13498381Y-17329190D01*
X13507905Y-17319667D01*
X13526952Y-17310143D01*
X13555524Y-17310143D01*
X13574571Y-17319667D01*
X13584095Y-17329190D01*
X13593619Y-17348238D01*
X13593619Y-17405381D01*
X13584095Y-17424429D01*
X13574571Y-17433952D01*
X13555524Y-17443476D01*
X13526952Y-17443476D01*
X13707905Y-17443476D02*
X13688857Y-17433952D01*
X13679333Y-17414905D01*
X13679333Y-17243476D01*
X13860286Y-17433952D02*
X13841238Y-17443476D01*
X13803143Y-17443476D01*
X13784095Y-17433952D01*
X13774571Y-17414905D01*
X13774571Y-17338714D01*
X13784095Y-17319667D01*
X13803143Y-17310143D01*
X13841238Y-17310143D01*
X13860286Y-17319667D01*
X13869809Y-17338714D01*
X13869809Y-17357762D01*
X13774571Y-17376810D01*
X13946000Y-17433952D02*
X13965048Y-17443476D01*
X14003143Y-17443476D01*
X14022190Y-17433952D01*
X14031714Y-17414905D01*
X14031714Y-17405381D01*
X14022190Y-17386333D01*
X14003143Y-17376810D01*
X13974571Y-17376810D01*
X13955524Y-17367286D01*
X13946000Y-17348238D01*
X13946000Y-17338714D01*
X13955524Y-17319667D01*
X13974571Y-17310143D01*
X14003143Y-17310143D01*
X14022190Y-17319667D01*
X14098381Y-17519667D02*
X14107905Y-17510143D01*
X14126952Y-17481571D01*
X14136476Y-17462524D01*
X14146000Y-17433952D01*
X14155524Y-17386333D01*
X14155524Y-17348238D01*
X14146000Y-17300619D01*
X14136476Y-17272048D01*
X14126952Y-17253000D01*
X14107905Y-17224429D01*
X14098381Y-17214905D01*
X8936000Y-17573000D02*
X9136000Y-17773000D01*
X9136000Y-17573000D02*
X8936000Y-17773000D01*
X9036000Y-17573000D02*
X9036000Y-17773000D01*
X8936000Y-17673000D02*
X9136000Y-17673000D01*
X9384095Y-17582524D02*
X9393619Y-17573000D01*
X9412667Y-17563476D01*
X9460286Y-17563476D01*
X9479333Y-17573000D01*
X9488857Y-17582524D01*
X9498381Y-17601571D01*
X9498381Y-17620619D01*
X9488857Y-17649190D01*
X9374571Y-17763476D01*
X9498381Y-17763476D01*
X9584095Y-17744429D02*
X9593619Y-17753952D01*
X9584095Y-17763476D01*
X9574571Y-17753952D01*
X9584095Y-17744429D01*
X9584095Y-17763476D01*
X9669810Y-17582524D02*
X9679333Y-17573000D01*
X9698381Y-17563476D01*
X9746000Y-17563476D01*
X9765048Y-17573000D01*
X9774571Y-17582524D01*
X9784095Y-17601571D01*
X9784095Y-17620619D01*
X9774571Y-17649190D01*
X9660286Y-17763476D01*
X9784095Y-17763476D01*
X9907905Y-17563476D02*
X9926952Y-17563476D01*
X9946000Y-17573000D01*
X9955524Y-17582524D01*
X9965048Y-17601571D01*
X9974571Y-17639667D01*
X9974571Y-17687286D01*
X9965048Y-17725381D01*
X9955524Y-17744429D01*
X9946000Y-17753952D01*
X9926952Y-17763476D01*
X9907905Y-17763476D01*
X9888857Y-17753952D01*
X9879333Y-17744429D01*
X9869810Y-17725381D01*
X9860286Y-17687286D01*
X9860286Y-17639667D01*
X9869810Y-17601571D01*
X9879333Y-17582524D01*
X9888857Y-17573000D01*
X9907905Y-17563476D01*
X10098381Y-17563476D02*
X10117429Y-17563476D01*
X10136476Y-17573000D01*
X10146000Y-17582524D01*
X10155524Y-17601571D01*
X10165048Y-17639667D01*
X10165048Y-17687286D01*
X10155524Y-17725381D01*
X10146000Y-17744429D01*
X10136476Y-17753952D01*
X10117429Y-17763476D01*
X10098381Y-17763476D01*
X10079333Y-17753952D01*
X10069810Y-17744429D01*
X10060286Y-17725381D01*
X10050762Y-17687286D01*
X10050762Y-17639667D01*
X10060286Y-17601571D01*
X10069810Y-17582524D01*
X10079333Y-17573000D01*
X10098381Y-17563476D01*
X10250762Y-17763476D02*
X10250762Y-17630143D01*
X10250762Y-17649190D02*
X10260286Y-17639667D01*
X10279333Y-17630143D01*
X10307905Y-17630143D01*
X10326952Y-17639667D01*
X10336476Y-17658714D01*
X10336476Y-17763476D01*
X10336476Y-17658714D02*
X10346000Y-17639667D01*
X10365048Y-17630143D01*
X10393619Y-17630143D01*
X10412667Y-17639667D01*
X10422190Y-17658714D01*
X10422190Y-17763476D01*
X10517429Y-17763476D02*
X10517429Y-17630143D01*
X10517429Y-17649190D02*
X10526952Y-17639667D01*
X10546000Y-17630143D01*
X10574571Y-17630143D01*
X10593619Y-17639667D01*
X10603143Y-17658714D01*
X10603143Y-17763476D01*
X10603143Y-17658714D02*
X10612667Y-17639667D01*
X10631714Y-17630143D01*
X10660286Y-17630143D01*
X10679333Y-17639667D01*
X10688857Y-17658714D01*
X10688857Y-17763476D01*
X11079333Y-17553952D02*
X10907905Y-17811095D01*
X11336476Y-17563476D02*
X11355524Y-17563476D01*
X11374571Y-17573000D01*
X11384095Y-17582524D01*
X11393619Y-17601571D01*
X11403143Y-17639667D01*
X11403143Y-17687286D01*
X11393619Y-17725381D01*
X11384095Y-17744429D01*
X11374571Y-17753952D01*
X11355524Y-17763476D01*
X11336476Y-17763476D01*
X11317428Y-17753952D01*
X11307905Y-17744429D01*
X11298381Y-17725381D01*
X11288857Y-17687286D01*
X11288857Y-17639667D01*
X11298381Y-17601571D01*
X11307905Y-17582524D01*
X11317428Y-17573000D01*
X11336476Y-17563476D01*
X11488857Y-17744429D02*
X11498381Y-17753952D01*
X11488857Y-17763476D01*
X11479333Y-17753952D01*
X11488857Y-17744429D01*
X11488857Y-17763476D01*
X11622190Y-17563476D02*
X11641238Y-17563476D01*
X11660286Y-17573000D01*
X11669809Y-17582524D01*
X11679333Y-17601571D01*
X11688857Y-17639667D01*
X11688857Y-17687286D01*
X11679333Y-17725381D01*
X11669809Y-17744429D01*
X11660286Y-17753952D01*
X11641238Y-17763476D01*
X11622190Y-17763476D01*
X11603143Y-17753952D01*
X11593619Y-17744429D01*
X11584095Y-17725381D01*
X11574571Y-17687286D01*
X11574571Y-17639667D01*
X11584095Y-17601571D01*
X11593619Y-17582524D01*
X11603143Y-17573000D01*
X11622190Y-17563476D01*
X11803143Y-17649190D02*
X11784095Y-17639667D01*
X11774571Y-17630143D01*
X11765048Y-17611095D01*
X11765048Y-17601571D01*
X11774571Y-17582524D01*
X11784095Y-17573000D01*
X11803143Y-17563476D01*
X11841238Y-17563476D01*
X11860286Y-17573000D01*
X11869809Y-17582524D01*
X11879333Y-17601571D01*
X11879333Y-17611095D01*
X11869809Y-17630143D01*
X11860286Y-17639667D01*
X11841238Y-17649190D01*
X11803143Y-17649190D01*
X11784095Y-17658714D01*
X11774571Y-17668238D01*
X11765048Y-17687286D01*
X11765048Y-17725381D01*
X11774571Y-17744429D01*
X11784095Y-17753952D01*
X11803143Y-17763476D01*
X11841238Y-17763476D01*
X11860286Y-17753952D01*
X11869809Y-17744429D01*
X11879333Y-17725381D01*
X11879333Y-17687286D01*
X11869809Y-17668238D01*
X11860286Y-17658714D01*
X11841238Y-17649190D01*
X12050762Y-17563476D02*
X12012667Y-17563476D01*
X11993619Y-17573000D01*
X11984095Y-17582524D01*
X11965048Y-17611095D01*
X11955524Y-17649190D01*
X11955524Y-17725381D01*
X11965048Y-17744429D01*
X11974571Y-17753952D01*
X11993619Y-17763476D01*
X12031714Y-17763476D01*
X12050762Y-17753952D01*
X12060286Y-17744429D01*
X12069809Y-17725381D01*
X12069809Y-17677762D01*
X12060286Y-17658714D01*
X12050762Y-17649190D01*
X12031714Y-17639667D01*
X11993619Y-17639667D01*
X11974571Y-17649190D01*
X11965048Y-17658714D01*
X11955524Y-17677762D01*
X12241238Y-17563476D02*
X12203143Y-17563476D01*
X12184095Y-17573000D01*
X12174571Y-17582524D01*
X12155524Y-17611095D01*
X12146000Y-17649190D01*
X12146000Y-17725381D01*
X12155524Y-17744429D01*
X12165048Y-17753952D01*
X12184095Y-17763476D01*
X12222190Y-17763476D01*
X12241238Y-17753952D01*
X12250762Y-17744429D01*
X12260286Y-17725381D01*
X12260286Y-17677762D01*
X12250762Y-17658714D01*
X12241238Y-17649190D01*
X12222190Y-17639667D01*
X12184095Y-17639667D01*
X12165048Y-17649190D01*
X12155524Y-17658714D01*
X12146000Y-17677762D01*
X12336476Y-17563476D02*
X12336476Y-17601571D01*
X12412667Y-17563476D02*
X12412667Y-17601571D01*
X12707905Y-17839667D02*
X12698381Y-17830143D01*
X12679333Y-17801571D01*
X12669809Y-17782524D01*
X12660286Y-17753952D01*
X12650762Y-17706333D01*
X12650762Y-17668238D01*
X12660286Y-17620619D01*
X12669809Y-17592048D01*
X12679333Y-17573000D01*
X12698381Y-17544429D01*
X12707905Y-17534905D01*
X12869809Y-17630143D02*
X12869809Y-17763476D01*
X12822190Y-17553952D02*
X12774571Y-17696810D01*
X12898381Y-17696810D01*
X13126952Y-17763476D02*
X13126952Y-17563476D01*
X13212667Y-17763476D02*
X13212667Y-17658714D01*
X13203143Y-17639667D01*
X13184095Y-17630143D01*
X13155524Y-17630143D01*
X13136476Y-17639667D01*
X13126952Y-17649190D01*
X13336476Y-17763476D02*
X13317428Y-17753952D01*
X13307905Y-17744429D01*
X13298381Y-17725381D01*
X13298381Y-17668238D01*
X13307905Y-17649190D01*
X13317428Y-17639667D01*
X13336476Y-17630143D01*
X13365048Y-17630143D01*
X13384095Y-17639667D01*
X13393619Y-17649190D01*
X13403143Y-17668238D01*
X13403143Y-17725381D01*
X13393619Y-17744429D01*
X13384095Y-17753952D01*
X13365048Y-17763476D01*
X13336476Y-17763476D01*
X13517428Y-17763476D02*
X13498381Y-17753952D01*
X13488857Y-17734905D01*
X13488857Y-17563476D01*
X13669809Y-17753952D02*
X13650762Y-17763476D01*
X13612667Y-17763476D01*
X13593619Y-17753952D01*
X13584095Y-17734905D01*
X13584095Y-17658714D01*
X13593619Y-17639667D01*
X13612667Y-17630143D01*
X13650762Y-17630143D01*
X13669809Y-17639667D01*
X13679333Y-17658714D01*
X13679333Y-17677762D01*
X13584095Y-17696810D01*
X13755524Y-17753952D02*
X13774571Y-17763476D01*
X13812667Y-17763476D01*
X13831714Y-17753952D01*
X13841238Y-17734905D01*
X13841238Y-17725381D01*
X13831714Y-17706333D01*
X13812667Y-17696810D01*
X13784095Y-17696810D01*
X13765048Y-17687286D01*
X13755524Y-17668238D01*
X13755524Y-17658714D01*
X13765048Y-17639667D01*
X13784095Y-17630143D01*
X13812667Y-17630143D01*
X13831714Y-17639667D01*
X13907905Y-17839667D02*
X13917428Y-17830143D01*
X13936476Y-17801571D01*
X13946000Y-17782524D01*
X13955524Y-17753952D01*
X13965048Y-17706333D01*
X13965048Y-17668238D01*
X13955524Y-17620619D01*
X13946000Y-17592048D01*
X13936476Y-17573000D01*
X13917428Y-17544429D01*
X13907905Y-17534905D01*
X8936000Y-17893000D02*
X9136000Y-18093000D01*
X9136000Y-17893000D02*
X8936000Y-18093000D01*
X9106711Y-18063711D02*
X9106711Y-17922289D01*
X8965289Y-17922289D01*
X8965289Y-18063711D01*
X9106711Y-18063711D01*
X9384095Y-17902524D02*
X9393619Y-17893000D01*
X9412667Y-17883476D01*
X9460286Y-17883476D01*
X9479333Y-17893000D01*
X9488857Y-17902524D01*
X9498381Y-17921571D01*
X9498381Y-17940619D01*
X9488857Y-17969190D01*
X9374571Y-18083476D01*
X9498381Y-18083476D01*
X9584095Y-18064429D02*
X9593619Y-18073952D01*
X9584095Y-18083476D01*
X9574571Y-18073952D01*
X9584095Y-18064429D01*
X9584095Y-18083476D01*
X9669810Y-17902524D02*
X9679333Y-17893000D01*
X9698381Y-17883476D01*
X9746000Y-17883476D01*
X9765048Y-17893000D01*
X9774571Y-17902524D01*
X9784095Y-17921571D01*
X9784095Y-17940619D01*
X9774571Y-17969190D01*
X9660286Y-18083476D01*
X9784095Y-18083476D01*
X9898381Y-17969190D02*
X9879333Y-17959667D01*
X9869810Y-17950143D01*
X9860286Y-17931095D01*
X9860286Y-17921571D01*
X9869810Y-17902524D01*
X9879333Y-17893000D01*
X9898381Y-17883476D01*
X9936476Y-17883476D01*
X9955524Y-17893000D01*
X9965048Y-17902524D01*
X9974571Y-17921571D01*
X9974571Y-17931095D01*
X9965048Y-17950143D01*
X9955524Y-17959667D01*
X9936476Y-17969190D01*
X9898381Y-17969190D01*
X9879333Y-17978714D01*
X9869810Y-17988238D01*
X9860286Y-18007286D01*
X9860286Y-18045381D01*
X9869810Y-18064429D01*
X9879333Y-18073952D01*
X9898381Y-18083476D01*
X9936476Y-18083476D01*
X9955524Y-18073952D01*
X9965048Y-18064429D01*
X9974571Y-18045381D01*
X9974571Y-18007286D01*
X9965048Y-17988238D01*
X9955524Y-17978714D01*
X9936476Y-17969190D01*
X10146000Y-17883476D02*
X10107905Y-17883476D01*
X10088857Y-17893000D01*
X10079333Y-17902524D01*
X10060286Y-17931095D01*
X10050762Y-17969190D01*
X10050762Y-18045381D01*
X10060286Y-18064429D01*
X10069810Y-18073952D01*
X10088857Y-18083476D01*
X10126952Y-18083476D01*
X10146000Y-18073952D01*
X10155524Y-18064429D01*
X10165048Y-18045381D01*
X10165048Y-17997762D01*
X10155524Y-17978714D01*
X10146000Y-17969190D01*
X10126952Y-17959667D01*
X10088857Y-17959667D01*
X10069810Y-17969190D01*
X10060286Y-17978714D01*
X10050762Y-17997762D01*
X10250762Y-18083476D02*
X10250762Y-17950143D01*
X10250762Y-17969190D02*
X10260286Y-17959667D01*
X10279333Y-17950143D01*
X10307905Y-17950143D01*
X10326952Y-17959667D01*
X10336476Y-17978714D01*
X10336476Y-18083476D01*
X10336476Y-17978714D02*
X10346000Y-17959667D01*
X10365048Y-17950143D01*
X10393619Y-17950143D01*
X10412667Y-17959667D01*
X10422190Y-17978714D01*
X10422190Y-18083476D01*
X10517429Y-18083476D02*
X10517429Y-17950143D01*
X10517429Y-17969190D02*
X10526952Y-17959667D01*
X10546000Y-17950143D01*
X10574571Y-17950143D01*
X10593619Y-17959667D01*
X10603143Y-17978714D01*
X10603143Y-18083476D01*
X10603143Y-17978714D02*
X10612667Y-17959667D01*
X10631714Y-17950143D01*
X10660286Y-17950143D01*
X10679333Y-17959667D01*
X10688857Y-17978714D01*
X10688857Y-18083476D01*
X11079333Y-17873952D02*
X10907905Y-18131095D01*
X11336476Y-17883476D02*
X11355524Y-17883476D01*
X11374571Y-17893000D01*
X11384095Y-17902524D01*
X11393619Y-17921571D01*
X11403143Y-17959667D01*
X11403143Y-18007286D01*
X11393619Y-18045381D01*
X11384095Y-18064429D01*
X11374571Y-18073952D01*
X11355524Y-18083476D01*
X11336476Y-18083476D01*
X11317428Y-18073952D01*
X11307905Y-18064429D01*
X11298381Y-18045381D01*
X11288857Y-18007286D01*
X11288857Y-17959667D01*
X11298381Y-17921571D01*
X11307905Y-17902524D01*
X11317428Y-17893000D01*
X11336476Y-17883476D01*
X11488857Y-18064429D02*
X11498381Y-18073952D01*
X11488857Y-18083476D01*
X11479333Y-18073952D01*
X11488857Y-18064429D01*
X11488857Y-18083476D01*
X11622190Y-17883476D02*
X11641238Y-17883476D01*
X11660286Y-17893000D01*
X11669809Y-17902524D01*
X11679333Y-17921571D01*
X11688857Y-17959667D01*
X11688857Y-18007286D01*
X11679333Y-18045381D01*
X11669809Y-18064429D01*
X11660286Y-18073952D01*
X11641238Y-18083476D01*
X11622190Y-18083476D01*
X11603143Y-18073952D01*
X11593619Y-18064429D01*
X11584095Y-18045381D01*
X11574571Y-18007286D01*
X11574571Y-17959667D01*
X11584095Y-17921571D01*
X11593619Y-17902524D01*
X11603143Y-17893000D01*
X11622190Y-17883476D01*
X11784095Y-18083476D02*
X11822190Y-18083476D01*
X11841238Y-18073952D01*
X11850762Y-18064429D01*
X11869809Y-18035857D01*
X11879333Y-17997762D01*
X11879333Y-17921571D01*
X11869809Y-17902524D01*
X11860286Y-17893000D01*
X11841238Y-17883476D01*
X11803143Y-17883476D01*
X11784095Y-17893000D01*
X11774571Y-17902524D01*
X11765048Y-17921571D01*
X11765048Y-17969190D01*
X11774571Y-17988238D01*
X11784095Y-17997762D01*
X11803143Y-18007286D01*
X11841238Y-18007286D01*
X11860286Y-17997762D01*
X11869809Y-17988238D01*
X11879333Y-17969190D01*
X12003143Y-17883476D02*
X12022190Y-17883476D01*
X12041238Y-17893000D01*
X12050762Y-17902524D01*
X12060286Y-17921571D01*
X12069809Y-17959667D01*
X12069809Y-18007286D01*
X12060286Y-18045381D01*
X12050762Y-18064429D01*
X12041238Y-18073952D01*
X12022190Y-18083476D01*
X12003143Y-18083476D01*
X11984095Y-18073952D01*
X11974571Y-18064429D01*
X11965048Y-18045381D01*
X11955524Y-18007286D01*
X11955524Y-17959667D01*
X11965048Y-17921571D01*
X11974571Y-17902524D01*
X11984095Y-17893000D01*
X12003143Y-17883476D01*
X12193619Y-17883476D02*
X12212667Y-17883476D01*
X12231714Y-17893000D01*
X12241238Y-17902524D01*
X12250762Y-17921571D01*
X12260286Y-17959667D01*
X12260286Y-18007286D01*
X12250762Y-18045381D01*
X12241238Y-18064429D01*
X12231714Y-18073952D01*
X12212667Y-18083476D01*
X12193619Y-18083476D01*
X12174571Y-18073952D01*
X12165048Y-18064429D01*
X12155524Y-18045381D01*
X12146000Y-18007286D01*
X12146000Y-17959667D01*
X12155524Y-17921571D01*
X12165048Y-17902524D01*
X12174571Y-17893000D01*
X12193619Y-17883476D01*
X12336476Y-17883476D02*
X12336476Y-17921571D01*
X12412667Y-17883476D02*
X12412667Y-17921571D01*
X12707905Y-18159667D02*
X12698381Y-18150143D01*
X12679333Y-18121571D01*
X12669809Y-18102524D01*
X12660286Y-18073952D01*
X12650762Y-18026333D01*
X12650762Y-17988238D01*
X12660286Y-17940619D01*
X12669809Y-17912048D01*
X12679333Y-17893000D01*
X12698381Y-17864429D01*
X12707905Y-17854905D01*
X12869809Y-17950143D02*
X12869809Y-18083476D01*
X12822190Y-17873952D02*
X12774571Y-18016810D01*
X12898381Y-18016810D01*
X13126952Y-18083476D02*
X13126952Y-17883476D01*
X13212667Y-18083476D02*
X13212667Y-17978714D01*
X13203143Y-17959667D01*
X13184095Y-17950143D01*
X13155524Y-17950143D01*
X13136476Y-17959667D01*
X13126952Y-17969190D01*
X13336476Y-18083476D02*
X13317428Y-18073952D01*
X13307905Y-18064429D01*
X13298381Y-18045381D01*
X13298381Y-17988238D01*
X13307905Y-17969190D01*
X13317428Y-17959667D01*
X13336476Y-17950143D01*
X13365048Y-17950143D01*
X13384095Y-17959667D01*
X13393619Y-17969190D01*
X13403143Y-17988238D01*
X13403143Y-18045381D01*
X13393619Y-18064429D01*
X13384095Y-18073952D01*
X13365048Y-18083476D01*
X13336476Y-18083476D01*
X13517428Y-18083476D02*
X13498381Y-18073952D01*
X13488857Y-18054905D01*
X13488857Y-17883476D01*
X13669809Y-18073952D02*
X13650762Y-18083476D01*
X13612667Y-18083476D01*
X13593619Y-18073952D01*
X13584095Y-18054905D01*
X13584095Y-17978714D01*
X13593619Y-17959667D01*
X13612667Y-17950143D01*
X13650762Y-17950143D01*
X13669809Y-17959667D01*
X13679333Y-17978714D01*
X13679333Y-17997762D01*
X13584095Y-18016810D01*
X13755524Y-18073952D02*
X13774571Y-18083476D01*
X13812667Y-18083476D01*
X13831714Y-18073952D01*
X13841238Y-18054905D01*
X13841238Y-18045381D01*
X13831714Y-18026333D01*
X13812667Y-18016810D01*
X13784095Y-18016810D01*
X13765048Y-18007286D01*
X13755524Y-17988238D01*
X13755524Y-17978714D01*
X13765048Y-17959667D01*
X13784095Y-17950143D01*
X13812667Y-17950143D01*
X13831714Y-17959667D01*
X13907905Y-18159667D02*
X13917428Y-18150143D01*
X13936476Y-18121571D01*
X13946000Y-18102524D01*
X13955524Y-18073952D01*
X13965048Y-18026333D01*
X13965048Y-17988238D01*
X13955524Y-17940619D01*
X13946000Y-17912048D01*
X13936476Y-17893000D01*
X13917428Y-17864429D01*
X13907905Y-17854905D01*
M02*
