%TF.GenerationSoftware,KiCad,Pcbnew,(6.0.4)*%
%TF.CreationDate,2022-04-24T15:44:46-04:00*%
%TF.ProjectId,keeb,6b656562-2e6b-4696-9361-645f70636258,rev?*%
%TF.SameCoordinates,Original*%
%TF.FileFunction,Paste,Top*%
%TF.FilePolarity,Positive*%
%FSLAX46Y46*%
G04 Gerber Fmt 4.6, Leading zero omitted, Abs format (unit mm)*
G04 Created by KiCad (PCBNEW (6.0.4)) date 2022-04-24 15:44:46*
%MOMM*%
%LPD*%
G01*
G04 APERTURE LIST*
G04 Aperture macros list*
%AMRoundRect*
0 Rectangle with rounded corners*
0 $1 Rounding radius*
0 $2 $3 $4 $5 $6 $7 $8 $9 X,Y pos of 4 corners*
0 Add a 4 corners polygon primitive as box body*
4,1,4,$2,$3,$4,$5,$6,$7,$8,$9,$2,$3,0*
0 Add four circle primitives for the rounded corners*
1,1,$1+$1,$2,$3*
1,1,$1+$1,$4,$5*
1,1,$1+$1,$6,$7*
1,1,$1+$1,$8,$9*
0 Add four rect primitives between the rounded corners*
20,1,$1+$1,$2,$3,$4,$5,0*
20,1,$1+$1,$4,$5,$6,$7,0*
20,1,$1+$1,$6,$7,$8,$9,0*
20,1,$1+$1,$8,$9,$2,$3,0*%
G04 Aperture macros list end*
%ADD10RoundRect,0.250000X0.475000X-0.250000X0.475000X0.250000X-0.475000X0.250000X-0.475000X-0.250000X0*%
%ADD11R,1.500000X1.000000*%
%ADD12RoundRect,0.020300X-0.774700X-0.124700X0.774700X-0.124700X0.774700X0.124700X-0.774700X0.124700X0*%
%ADD13RoundRect,0.020300X0.774700X0.124700X-0.774700X0.124700X-0.774700X-0.124700X0.774700X-0.124700X0*%
%ADD14RoundRect,0.250000X-0.475000X0.250000X-0.475000X-0.250000X0.475000X-0.250000X0.475000X0.250000X0*%
%ADD15R,0.300000X0.700000*%
G04 APERTURE END LIST*
D10*
%TO.C,C14*%
X137950000Y-151800000D03*
X137950000Y-149900000D03*
%TD*%
%TO.C,C12*%
X157450000Y-133250000D03*
X157450000Y-131350000D03*
%TD*%
D11*
%TO.C,LED14*%
X150900000Y-151900000D03*
X150900000Y-148700000D03*
X146000000Y-148700000D03*
X146000000Y-151900000D03*
%TD*%
%TO.C,LED13*%
X131400000Y-151900000D03*
X131400000Y-148700000D03*
X126500000Y-148700000D03*
X126500000Y-151900000D03*
%TD*%
D10*
%TO.C,C11*%
X137950000Y-133250000D03*
X137950000Y-131350000D03*
%TD*%
D11*
%TO.C,LED3*%
X170400000Y-73900000D03*
X170400000Y-70700000D03*
X165500000Y-70700000D03*
X165500000Y-73900000D03*
%TD*%
D10*
%TO.C,C13*%
X176950000Y-133250000D03*
X176950000Y-131350000D03*
%TD*%
%TO.C,C5*%
X137950000Y-94250000D03*
X137950000Y-92350000D03*
%TD*%
%TO.C,C16*%
X176950000Y-151800000D03*
X176950000Y-149900000D03*
%TD*%
%TO.C,C8*%
X137950000Y-113800000D03*
X137950000Y-111900000D03*
%TD*%
D11*
%TO.C,LED11*%
X150900000Y-132400000D03*
X150900000Y-129200000D03*
X146000000Y-129200000D03*
X146000000Y-132400000D03*
%TD*%
D10*
%TO.C,C7*%
X176950000Y-94250000D03*
X176950000Y-92350000D03*
%TD*%
D12*
%TO.C,U2*%
X189235000Y-135050000D03*
X189235000Y-135550000D03*
X189235000Y-136050000D03*
X189235000Y-136550000D03*
X189235000Y-137050000D03*
X189235000Y-137550000D03*
X189235000Y-138050000D03*
X189235000Y-138550000D03*
X189235000Y-139050000D03*
X189235000Y-139550000D03*
X189235000Y-140050000D03*
X189235000Y-140550000D03*
X189235000Y-141050000D03*
X189235000Y-141550000D03*
X189235000Y-142050000D03*
X189235000Y-142550000D03*
X189235000Y-143050000D03*
X189235000Y-143550000D03*
X189235000Y-144050000D03*
X189235000Y-144550000D03*
X189235000Y-145050000D03*
X189235000Y-145550000D03*
X189235000Y-146050000D03*
X189235000Y-146550000D03*
X189235000Y-147050000D03*
X189235000Y-147550000D03*
X189235000Y-148050000D03*
X189235000Y-148550000D03*
D13*
X196665000Y-148550000D03*
X196665000Y-148050000D03*
X196665000Y-147550000D03*
X196665000Y-147050000D03*
X196665000Y-146550000D03*
X196665000Y-146050000D03*
X196665000Y-145550000D03*
X196665000Y-145050000D03*
X196665000Y-144550000D03*
X196665000Y-144050000D03*
X196665000Y-143550000D03*
X196665000Y-143050000D03*
X196665000Y-142550000D03*
X196665000Y-142050000D03*
X196665000Y-141550000D03*
X196665000Y-141050000D03*
X196665000Y-140550000D03*
X196665000Y-140050000D03*
X196665000Y-139550000D03*
X196665000Y-139050000D03*
X196665000Y-138550000D03*
X196665000Y-138050000D03*
X196665000Y-137550000D03*
X196665000Y-137050000D03*
X196665000Y-136550000D03*
X196665000Y-136050000D03*
X196665000Y-135550000D03*
X196665000Y-135050000D03*
%TD*%
D11*
%TO.C,LED2*%
X150900000Y-73900000D03*
X150900000Y-70700000D03*
X146000000Y-70700000D03*
X146000000Y-73900000D03*
%TD*%
%TO.C,LED8*%
X150900000Y-112900000D03*
X150900000Y-109700000D03*
X146000000Y-109700000D03*
X146000000Y-112900000D03*
%TD*%
%TO.C,LED5*%
X150900000Y-93400000D03*
X150900000Y-90200000D03*
X146000000Y-90200000D03*
X146000000Y-93400000D03*
%TD*%
%TO.C,LED9*%
X170400000Y-112900000D03*
X170400000Y-109700000D03*
X165500000Y-109700000D03*
X165500000Y-112900000D03*
%TD*%
%TO.C,LED1*%
X131400000Y-73900000D03*
X131400000Y-70700000D03*
X126500000Y-70700000D03*
X126500000Y-73900000D03*
%TD*%
D10*
%TO.C,C2*%
X138450000Y-74750000D03*
X138450000Y-72850000D03*
%TD*%
D11*
%TO.C,LED12*%
X170400000Y-132400000D03*
X170400000Y-129200000D03*
X165500000Y-129200000D03*
X165500000Y-132400000D03*
%TD*%
D10*
%TO.C,C10*%
X176950000Y-113800000D03*
X176950000Y-111900000D03*
%TD*%
D11*
%TO.C,LED10*%
X131350000Y-132400000D03*
X131350000Y-129200000D03*
X126450000Y-129200000D03*
X126450000Y-132400000D03*
%TD*%
D10*
%TO.C,C9*%
X157450000Y-113800000D03*
X157450000Y-111900000D03*
%TD*%
%TO.C,C3*%
X157450000Y-74750000D03*
X157450000Y-72850000D03*
%TD*%
D11*
%TO.C,LED6*%
X170400000Y-93400000D03*
X170400000Y-90200000D03*
X165500000Y-90200000D03*
X165500000Y-93400000D03*
%TD*%
D10*
%TO.C,C4*%
X176950000Y-74750000D03*
X176950000Y-72850000D03*
%TD*%
D11*
%TO.C,LED7*%
X131400000Y-112900000D03*
X131400000Y-109700000D03*
X126500000Y-109700000D03*
X126500000Y-112900000D03*
%TD*%
D10*
%TO.C,C15*%
X157450000Y-151800000D03*
X157450000Y-149900000D03*
%TD*%
%TO.C,C6*%
X157450000Y-94250000D03*
X157450000Y-92350000D03*
%TD*%
D11*
%TO.C,LED4*%
X131400000Y-93400000D03*
X131400000Y-90200000D03*
X126500000Y-90200000D03*
X126500000Y-93400000D03*
%TD*%
%TO.C,LED15*%
X170400000Y-151900000D03*
X170400000Y-148700000D03*
X165500000Y-148700000D03*
X165500000Y-151900000D03*
%TD*%
D14*
%TO.C,C1*%
X183950000Y-143800000D03*
X183950000Y-145700000D03*
%TD*%
D15*
%TO.C,J2*%
X192200000Y-64820000D03*
X191700000Y-64820000D03*
X191200000Y-64820000D03*
X190700000Y-64820000D03*
X190200000Y-64820000D03*
X189700000Y-64820000D03*
X189200000Y-64820000D03*
X188700000Y-64820000D03*
X188200000Y-64820000D03*
X187700000Y-64820000D03*
X187200000Y-64820000D03*
X186700000Y-64820000D03*
X186950000Y-63120000D03*
X187450000Y-63120000D03*
X187950000Y-63120000D03*
X188450000Y-63120000D03*
X188950000Y-63120000D03*
X189450000Y-63120000D03*
X189950000Y-63120000D03*
X190450000Y-63120000D03*
X190950000Y-63120000D03*
X191450000Y-63120000D03*
X191950000Y-63120000D03*
X192450000Y-63120000D03*
%TD*%
D14*
%TO.C,C17*%
X179450000Y-143850000D03*
X179450000Y-145750000D03*
%TD*%
M02*
